M48
; DRILL file {KiCad (6.0.10)} date Tue Jun  6 06:07:44 2023
; FORMAT={-:-/ absolute / inch / decimal}
; #@! TF.CreationDate,2023-06-06T06:07:44+02:00
; #@! TF.GenerationSoftware,Kicad,Pcbnew,(6.0.10)
; #@! TF.FileFunction,Plated,1,2,PTH
FMAT,2
INCH
; #@! TA.AperFunction,Plated,PTH,ViaDrill
T1C0.0157
; #@! TA.AperFunction,Plated,PTH,ComponentDrill
T2C0.0394
; #@! TA.AperFunction,Plated,PTH,ComponentDrill
T3C0.0433
%
G90
G05
T1
X5.9685Y-4.0315
X6.0138Y-3.7992
X6.1983Y-4.0526
X6.3091Y-3.9469
X6.5447Y-3.4413
T2
X5.3134Y-3.6014
X5.3134Y-3.7014
X5.3134Y-3.8014
X5.3134Y-3.9014
X5.3134Y-4.0014
X5.3134Y-4.1014
X5.3134Y-4.2014
X5.3134Y-4.3014
X5.3134Y-4.4014
X5.3134Y-4.5014
X5.3134Y-4.6014
X5.3134Y-4.7014
X5.3134Y-4.8014
X5.3134Y-4.9014
X5.3713Y-2.8902
X5.3713Y-2.9902
X5.3713Y-3.0902
X5.3713Y-3.1902
X5.422Y-3.6016
X5.422Y-3.7016
X5.422Y-3.8016
X5.4744Y-5.0128
X5.4744Y-5.1128
X5.5744Y-5.0128
X5.5744Y-5.1128
X5.6506Y-3.3941
X5.6506Y-3.4941
X5.6506Y-3.5941
X5.6506Y-3.6941
X5.6506Y-3.7941
X5.6506Y-3.8941
X5.6506Y-3.9941
X5.6506Y-4.0941
X5.6506Y-4.1941
X5.6506Y-4.2941
X5.6506Y-4.3941
X5.6506Y-4.4941
X5.6506Y-4.5941
X5.6506Y-4.6941
X5.6506Y-4.7941
X5.6744Y-5.0128
X5.6744Y-5.1128
X5.7744Y-5.0128
X5.7744Y-5.1128
X5.8744Y-5.0128
X5.8744Y-5.1128
X5.9744Y-5.0128
X5.9744Y-5.1128
X6.1384Y-3.6014
X6.1384Y-3.7014
X6.1384Y-3.8014
X6.1384Y-3.9014
X6.1384Y-4.0014
X6.1384Y-4.1014
X6.1384Y-4.2014
X6.1384Y-4.3014
X6.1384Y-4.4014
X6.1384Y-4.5014
X6.1384Y-4.6014
X6.1384Y-4.7014
X6.1384Y-4.8014
X6.1384Y-4.9014
X6.6516Y-3.3913
X6.6516Y-3.4913
X6.6516Y-3.5913
X6.6516Y-3.6913
X6.6516Y-3.7913
X6.6516Y-3.8913
X6.6516Y-3.9913
X6.6516Y-4.0913
X6.6516Y-4.1913
X6.6516Y-4.2913
X6.6516Y-4.3913
X6.6516Y-4.4913
X6.6516Y-4.5913
X6.6516Y-4.6913
X6.6516Y-4.7913
X7.0472Y-2.939
X7.0472Y-3.039
X7.0472Y-3.139
X7.0472Y-3.239
X7.0472Y-3.339
X7.0472Y-3.439
X7.3425Y-4.1291
X7.3425Y-4.2291
X7.3425Y-4.3291
X7.3425Y-4.4291
X7.3425Y-4.5819
X7.3425Y-4.6819
X7.3425Y-4.7819
X7.3425Y-4.8819
X7.3425Y-4.9819
X7.3425Y-5.0819
X7.4409Y-2.9315
X7.4409Y-3.0315
X7.4409Y-3.1315
X7.4409Y-3.2315
X7.4409Y-3.3315
X7.4409Y-3.4315
T3
X7.2047Y-3.7303
X7.2047Y-3.9075
X7.4606Y-3.7303
X7.4606Y-3.9075
T0
M30
