G04 #@! TF.GenerationSoftware,KiCad,Pcbnew,(6.0.10)*
G04 #@! TF.CreationDate,2023-06-06T06:07:39+02:00*
G04 #@! TF.ProjectId,RECOLOCADOR_ESP32_DEV_KIT_V1_VERSIONFINAL,5245434f-4c4f-4434-9144-4f525f455350,FINAL*
G04 #@! TF.SameCoordinates,Original*
G04 #@! TF.FileFunction,Copper,L2,Bot*
G04 #@! TF.FilePolarity,Positive*
%FSLAX46Y46*%
G04 Gerber Fmt 4.6, Leading zero omitted, Abs format (unit mm)*
G04 Created by KiCad (PCBNEW (6.0.10)) date 2023-06-06 06:07:39*
%MOMM*%
%LPD*%
G01*
G04 APERTURE LIST*
G04 Aperture macros list*
%AMFreePoly0*
4,1,22,0.500000,-0.750000,0.000000,-0.750000,0.000000,-0.745033,-0.079941,-0.743568,-0.215256,-0.701293,-0.333266,-0.622738,-0.424486,-0.514219,-0.481581,-0.384460,-0.499963,-0.243891,-0.482194,-0.129773,-0.499963,0.006109,-0.482194,0.120227,-0.499963,0.256109,-0.478152,0.396186,-0.417904,0.524511,-0.324060,0.630769,-0.204165,0.706417,-0.067858,0.745374,0.000000,0.744959,0.000000,0.750000,
0.500000,0.750000,0.500000,-0.750000,0.500000,-0.750000,$1*%
%AMFreePoly1*
4,1,20,0.000000,0.744959,0.073905,0.744508,0.209726,0.703889,0.328688,0.626782,0.421226,0.519385,0.479903,0.390333,0.500000,0.250000,0.500000,-0.250000,0.499851,-0.262216,0.476331,-0.402017,0.414519,-0.529596,0.319384,-0.634700,0.198574,-0.708877,0.061801,-0.746166,0.000000,-0.745033,0.000000,-0.750000,-0.500000,-0.750000,-0.500000,0.750000,0.000000,0.750000,0.000000,0.744959,
0.000000,0.744959,$1*%
%AMFreePoly2*
4,1,22,0.500000,-0.750000,0.000000,-0.750000,0.000000,-0.745033,-0.079941,-0.743568,-0.215256,-0.701293,-0.333266,-0.622738,-0.424486,-0.514219,-0.481581,-0.384460,-0.499164,-0.250000,-0.500000,-0.250000,-0.500000,0.250000,-0.499164,0.250000,-0.499963,0.256109,-0.478152,0.396186,-0.417904,0.524511,-0.324060,0.630769,-0.204165,0.706417,-0.067858,0.745374,0.000000,0.744959,0.000000,0.750000,
0.500000,0.750000,0.500000,-0.750000,0.500000,-0.750000,$1*%
G04 Aperture macros list end*
G04 #@! TA.AperFunction,ComponentPad*
%ADD10R,1.700000X1.700000*%
G04 #@! TD*
G04 #@! TA.AperFunction,ComponentPad*
%ADD11O,1.700000X1.700000*%
G04 #@! TD*
G04 #@! TA.AperFunction,ComponentPad*
%ADD12C,2.000000*%
G04 #@! TD*
G04 #@! TA.AperFunction,SMDPad,CuDef*
%ADD13FreePoly0,0.000000*%
G04 #@! TD*
G04 #@! TA.AperFunction,SMDPad,CuDef*
%ADD14FreePoly1,0.000000*%
G04 #@! TD*
G04 #@! TA.AperFunction,SMDPad,CuDef*
%ADD15FreePoly2,90.000000*%
G04 #@! TD*
G04 #@! TA.AperFunction,SMDPad,CuDef*
%ADD16FreePoly1,90.000000*%
G04 #@! TD*
G04 #@! TA.AperFunction,SMDPad,CuDef*
%ADD17FreePoly2,0.000000*%
G04 #@! TD*
G04 #@! TA.AperFunction,ViaPad*
%ADD18C,0.800000*%
G04 #@! TD*
G04 #@! TA.AperFunction,Conductor*
%ADD19C,0.250000*%
G04 #@! TD*
G04 #@! TA.AperFunction,Conductor*
%ADD20C,0.800000*%
G04 #@! TD*
G04 #@! TA.AperFunction,Conductor*
%ADD21C,0.750000*%
G04 #@! TD*
G04 #@! TA.AperFunction,Conductor*
%ADD22C,0.720000*%
G04 #@! TD*
G04 #@! TA.AperFunction,Conductor*
%ADD23C,0.500000*%
G04 #@! TD*
G04 APERTURE END LIST*
G36*
X149900000Y-101699999D02*
G01*
X149400000Y-101699999D01*
X149400000Y-101299999D01*
X149900000Y-101299999D01*
X149900000Y-101699999D01*
G37*
G36*
X149900000Y-100899999D02*
G01*
X149400000Y-100899999D01*
X149400000Y-100499999D01*
X149900000Y-100499999D01*
X149900000Y-100899999D01*
G37*
G36*
X149850000Y-97200000D02*
G01*
X149350000Y-97200000D01*
X149350000Y-96800000D01*
X149850000Y-96800000D01*
X149850000Y-97200000D01*
G37*
G36*
X149850000Y-98000000D02*
G01*
X149350000Y-98000000D01*
X149350000Y-97600000D01*
X149850000Y-97600000D01*
X149850000Y-98000000D01*
G37*
D10*
X189000000Y-87160000D03*
D11*
X189000000Y-84620000D03*
X189000000Y-82080000D03*
X189000000Y-79540000D03*
X189000000Y-77000000D03*
X189000000Y-74460000D03*
D10*
X136430000Y-81030000D03*
D11*
X136430000Y-78490000D03*
X136430000Y-75950000D03*
X136430000Y-73410000D03*
D10*
X186500000Y-116380000D03*
D11*
X186500000Y-118920000D03*
X186500000Y-121460000D03*
X186500000Y-124000000D03*
X186500000Y-126540000D03*
X186500000Y-129080000D03*
D10*
X168950000Y-121700000D03*
D11*
X168950000Y-119160000D03*
X168950000Y-116620000D03*
X168950000Y-114080000D03*
X168950000Y-111540000D03*
X168950000Y-109000000D03*
X168950000Y-106460000D03*
X168950000Y-103920000D03*
X168950000Y-101380000D03*
X168950000Y-98840000D03*
X168950000Y-96300000D03*
X168950000Y-93760000D03*
X168950000Y-91220000D03*
X168950000Y-88680000D03*
X168950000Y-86140000D03*
D10*
X143525000Y-86210000D03*
D11*
X143525000Y-88750000D03*
X143525000Y-91290000D03*
X143525000Y-93830000D03*
X143525000Y-96370000D03*
X143525000Y-98910000D03*
X143525000Y-101450000D03*
X143525000Y-103990000D03*
X143525000Y-106530000D03*
X143525000Y-109070000D03*
X143525000Y-111610000D03*
X143525000Y-114150000D03*
X143525000Y-116690000D03*
X143525000Y-119230000D03*
X143525000Y-121770000D03*
D12*
X189500000Y-94750000D03*
X183000000Y-94750000D03*
X183000000Y-99250000D03*
X189500000Y-99250000D03*
D10*
X186500000Y-104880000D03*
D11*
X186500000Y-107420000D03*
X186500000Y-109960000D03*
X186500000Y-112500000D03*
D10*
X179000000Y-87350000D03*
D11*
X179000000Y-84810000D03*
X179000000Y-82270000D03*
X179000000Y-79730000D03*
X179000000Y-77190000D03*
X179000000Y-74650000D03*
D10*
X134960000Y-91475000D03*
D11*
X134960000Y-94015000D03*
X134960000Y-96555000D03*
X134960000Y-99095000D03*
X134960000Y-101635000D03*
X134960000Y-104175000D03*
X134960000Y-106715000D03*
X134960000Y-109255000D03*
X134960000Y-111795000D03*
X134960000Y-114335000D03*
X134960000Y-116875000D03*
X134960000Y-119415000D03*
X134960000Y-121955000D03*
X134960000Y-124495000D03*
D10*
X155915000Y-91475000D03*
D11*
X155915000Y-94015000D03*
X155915000Y-96555000D03*
X155915000Y-99095000D03*
X155915000Y-101635000D03*
X155915000Y-104175000D03*
X155915000Y-106715000D03*
X155915000Y-109255000D03*
X155915000Y-111795000D03*
X155915000Y-114335000D03*
X155915000Y-116875000D03*
X155915000Y-119415000D03*
X155915000Y-121955000D03*
X155915000Y-124495000D03*
D13*
X149000000Y-101099999D03*
D14*
X150300000Y-101099999D03*
D15*
X152800000Y-85650000D03*
D16*
X152800000Y-84350000D03*
D17*
X148950000Y-97400000D03*
D14*
X150250000Y-97400000D03*
D10*
X137720000Y-91480000D03*
D11*
X137720000Y-94020000D03*
X137720000Y-96560000D03*
D15*
X150300000Y-85650000D03*
D16*
X150300000Y-84350000D03*
D10*
X139050000Y-127325000D03*
D11*
X139050000Y-129865000D03*
X141590000Y-127325000D03*
X141590000Y-129865000D03*
X144130000Y-127325000D03*
X144130000Y-129865000D03*
X146670000Y-127325000D03*
X146670000Y-129865000D03*
X149210000Y-127325000D03*
X149210000Y-129865000D03*
X151750000Y-127325000D03*
X151750000Y-129865000D03*
D18*
X166235300Y-87410000D03*
X152750000Y-96500000D03*
X151600000Y-102400000D03*
X157437700Y-102937000D03*
X160250000Y-100250000D03*
D19*
X143525000Y-103990000D02*
X143272200Y-103990000D01*
X136135300Y-95998200D02*
X135327400Y-95190300D01*
X136135300Y-96853100D02*
X136135300Y-95998200D01*
X135327400Y-95190300D02*
X134960000Y-95190300D01*
X134960000Y-94015000D02*
X134960000Y-95190300D01*
X143272200Y-103990000D02*
X136135300Y-96853100D01*
X143525000Y-106530000D02*
X143525000Y-105354700D01*
X135533200Y-97730300D02*
X134960000Y-97730300D01*
X143525000Y-105354700D02*
X143157600Y-105354700D01*
X134960000Y-96555000D02*
X134960000Y-97730300D01*
X143157600Y-105354700D02*
X135533200Y-97730300D01*
X135533200Y-100270300D02*
X134960000Y-100270300D01*
X143157600Y-107894700D02*
X135533200Y-100270300D01*
X143525000Y-109070000D02*
X143525000Y-107894700D01*
X134960000Y-99095000D02*
X134960000Y-100270300D01*
X143525000Y-107894700D02*
X143157600Y-107894700D01*
X134566400Y-110525000D02*
X133784700Y-109743300D01*
X143525000Y-121770000D02*
X143525000Y-120594700D01*
X142349700Y-119786800D02*
X142349700Y-117520500D01*
X143525000Y-120594700D02*
X143157600Y-120594700D01*
X134960000Y-101635000D02*
X134960000Y-102810300D01*
X133784700Y-103618200D02*
X134592600Y-102810300D01*
X133784700Y-109743300D02*
X133784700Y-103618200D01*
X135354200Y-110525000D02*
X134566400Y-110525000D01*
X134592600Y-102810300D02*
X134960000Y-102810300D01*
X143157600Y-120594700D02*
X142349700Y-119786800D01*
X142349700Y-117520500D02*
X135354200Y-110525000D01*
X158004600Y-124079500D02*
X156405300Y-125678800D01*
X154739600Y-123700400D02*
X143919200Y-112880000D01*
X168950000Y-112008500D02*
X175873200Y-112008500D01*
X168950000Y-111540000D02*
X168950000Y-112008500D01*
X139760300Y-112880000D02*
X136135300Y-109255000D01*
X175873200Y-112008500D02*
X185324700Y-121460000D01*
X168950000Y-112008500D02*
X158004600Y-122953900D01*
X155417600Y-125678800D02*
X154739600Y-125000800D01*
X156405300Y-125678800D02*
X155417600Y-125678800D01*
X134960000Y-109255000D02*
X136135300Y-109255000D01*
X158004600Y-122953900D02*
X158004600Y-124079500D01*
X143919200Y-112880000D02*
X139760300Y-112880000D01*
X154739600Y-125000800D02*
X154739600Y-123700400D01*
X186500000Y-121460000D02*
X185324700Y-121460000D01*
X151780900Y-131548200D02*
X141568500Y-131548200D01*
X168073800Y-115255300D02*
X151780900Y-131548200D01*
X134592600Y-112970300D02*
X134960000Y-112970300D01*
X134960000Y-111795000D02*
X134960000Y-112970300D01*
X168950000Y-114667600D02*
X168950000Y-115255300D01*
X140225400Y-120478000D02*
X135352400Y-115605000D01*
X141568500Y-131548200D02*
X140225400Y-130205100D01*
X134491000Y-115605000D02*
X133784700Y-114898700D01*
X135352400Y-115605000D02*
X134491000Y-115605000D01*
X168950000Y-114667600D02*
X175992300Y-114667600D01*
X168950000Y-115255300D02*
X168073800Y-115255300D01*
X133784700Y-114898700D02*
X133784700Y-113778200D01*
X133784700Y-113778200D02*
X134592600Y-112970300D01*
X186500000Y-124000000D02*
X185324700Y-124000000D01*
X140225400Y-130205100D02*
X140225400Y-120478000D01*
X175992300Y-114667600D02*
X185324700Y-124000000D01*
X168950000Y-114080000D02*
X168950000Y-114667600D01*
X134960000Y-124495000D02*
X134960000Y-127465500D01*
X139493000Y-131998500D02*
X154936200Y-131998500D01*
X134960000Y-127465500D02*
X139493000Y-131998500D01*
X168950000Y-119160000D02*
X167774700Y-119160000D01*
X154936200Y-131998500D02*
X167774700Y-119160000D01*
D20*
X172340000Y-86140000D02*
X168950000Y-86140000D01*
D19*
X175800000Y-101800000D02*
X175460000Y-101800000D01*
D20*
X175460000Y-101800000D02*
X172450000Y-98790000D01*
X172450000Y-98790000D02*
X172450000Y-86250000D01*
X186500000Y-112500000D02*
X175800000Y-101800000D01*
D19*
X172450000Y-86250000D02*
X172340000Y-86140000D01*
X136135400Y-86135400D02*
X136210000Y-86210000D01*
X135949600Y-92650400D02*
X134600400Y-92650400D01*
D21*
X135510000Y-78490000D02*
X134750000Y-79250000D01*
X182732000Y-74460000D02*
X189000000Y-74460000D01*
D22*
X166850000Y-74650000D02*
X179000000Y-74650000D01*
D21*
X134750000Y-84750000D02*
X136135400Y-86135400D01*
D19*
X136135400Y-92464600D02*
X135949600Y-92650400D01*
D21*
X136430000Y-78490000D02*
X135510000Y-78490000D01*
X186500000Y-84740000D02*
X186500000Y-104880000D01*
X182542000Y-74650000D02*
X186500000Y-78608000D01*
D20*
X189000000Y-84620000D02*
X186620000Y-84620000D01*
D21*
X182542000Y-74650000D02*
X182732000Y-74460000D01*
D19*
X136125300Y-123225000D02*
X139050000Y-126149700D01*
X134567800Y-123225000D02*
X136125300Y-123225000D01*
D21*
X166500000Y-87145300D02*
X166500000Y-75000000D01*
D19*
X136135400Y-86135400D02*
X136135400Y-92464600D01*
D21*
X179000000Y-74650000D02*
X182542000Y-74650000D01*
D19*
X133308800Y-93942000D02*
X133308800Y-121966000D01*
D21*
X166500000Y-75000000D02*
X166850000Y-74650000D01*
D19*
X186430000Y-84810000D02*
X186500000Y-84740000D01*
X133308800Y-121966000D02*
X134567800Y-123225000D01*
D21*
X186500000Y-78608000D02*
X186500000Y-84740000D01*
D23*
X139050000Y-129865000D02*
X139050000Y-127325000D01*
D19*
X134600400Y-92650400D02*
X133308800Y-93942000D01*
D20*
X179000000Y-84810000D02*
X186430000Y-84810000D01*
D19*
X139050000Y-126149700D02*
X139050000Y-127325000D01*
D20*
X186620000Y-84620000D02*
X186500000Y-84740000D01*
D21*
X136210000Y-86210000D02*
X143525000Y-86210000D01*
X134750000Y-79250000D02*
X134750000Y-84750000D01*
D19*
X168950000Y-91220000D02*
X168950000Y-92395300D01*
X168950000Y-92395300D02*
X168582600Y-92395300D01*
X156282300Y-105539700D02*
X155915000Y-105539700D01*
X155915000Y-106715000D02*
X155915000Y-105539700D01*
X167774700Y-93203200D02*
X167774700Y-94047300D01*
X168582600Y-92395300D02*
X167774700Y-93203200D01*
X167774700Y-94047300D02*
X156282300Y-105539700D01*
X168582600Y-94935300D02*
X157090300Y-106427600D01*
X155915000Y-109255000D02*
X155915000Y-108079700D01*
X156282400Y-108079700D02*
X155915000Y-108079700D01*
X157090300Y-107271800D02*
X156282400Y-108079700D01*
X168950000Y-94935300D02*
X168582600Y-94935300D01*
X157090300Y-106427600D02*
X157090300Y-107271800D01*
X168950000Y-93760000D02*
X168950000Y-94935300D01*
X168582600Y-97475300D02*
X167588100Y-98469800D01*
X168950000Y-96300000D02*
X168950000Y-97475300D01*
X167588100Y-98469800D02*
X167588100Y-99314000D01*
X168950000Y-97475300D02*
X168582600Y-97475300D01*
X155915000Y-111795000D02*
X155915000Y-110619700D01*
X167588100Y-99314000D02*
X156282400Y-110619700D01*
X156282400Y-110619700D02*
X155915000Y-110619700D01*
X155915000Y-114335000D02*
X155915000Y-113159700D01*
X156282400Y-113159700D02*
X155915000Y-113159700D01*
X168582600Y-100015300D02*
X157090300Y-111507600D01*
X157090300Y-112351800D02*
X156282400Y-113159700D01*
X168950000Y-100015300D02*
X168582600Y-100015300D01*
X168950000Y-98840000D02*
X168950000Y-100015300D01*
X157090300Y-111507600D02*
X157090300Y-112351800D01*
X154739700Y-114891800D02*
X155547600Y-115699700D01*
X143525000Y-97545300D02*
X143892300Y-97545300D01*
X143892300Y-97545300D02*
X154739700Y-108392700D01*
X154739700Y-108392700D02*
X154739700Y-114891800D01*
X143525000Y-96370000D02*
X143525000Y-97545300D01*
X155915000Y-116875000D02*
X155915000Y-115699700D01*
X155547600Y-115699700D02*
X155915000Y-115699700D01*
X144700300Y-107392300D02*
X155547700Y-118239700D01*
X143892400Y-102625300D02*
X144700300Y-103433200D01*
X144700300Y-103433200D02*
X144700300Y-107392300D01*
X143525000Y-101450000D02*
X143525000Y-102625300D01*
X155547700Y-118239700D02*
X155915000Y-118239700D01*
X143525000Y-102625300D02*
X143892400Y-102625300D01*
X155915000Y-119415000D02*
X155915000Y-118239700D01*
X157090300Y-119127600D02*
X157090300Y-119971800D01*
X168950000Y-106460000D02*
X168950000Y-107635300D01*
X155915000Y-121955000D02*
X155915000Y-120779700D01*
X156282400Y-120779700D02*
X155915000Y-120779700D01*
X157090300Y-119971800D02*
X156282400Y-120779700D01*
X168950000Y-107635300D02*
X168582600Y-107635300D01*
X168582600Y-107635300D02*
X157090300Y-119127600D01*
X168950000Y-109000000D02*
X168950000Y-110175300D01*
X155915000Y-124495000D02*
X155915000Y-123319700D01*
X167324300Y-111433600D02*
X167324300Y-112263300D01*
X156267900Y-123319700D02*
X155915000Y-123319700D01*
X167324300Y-112263300D02*
X156267900Y-123319700D01*
X168582600Y-110175300D02*
X167324300Y-111433600D01*
X168950000Y-110175300D02*
X168582600Y-110175300D01*
X142910300Y-124870000D02*
X142910300Y-130314000D01*
X144677400Y-131047600D02*
X145494700Y-130230300D01*
X144716700Y-123063600D02*
X142910300Y-124870000D01*
X143525000Y-117865300D02*
X143892300Y-117865300D01*
X143525000Y-116690000D02*
X143525000Y-117865300D01*
X146670000Y-129865000D02*
X145494700Y-129865000D01*
X142910300Y-130314000D02*
X143643900Y-131047600D01*
X145494700Y-130230300D02*
X145494700Y-129865000D01*
X144716700Y-118689700D02*
X144716700Y-123063600D01*
X143892300Y-117865300D02*
X144716700Y-118689700D01*
X143643900Y-131047600D02*
X144677400Y-131047600D01*
X143525000Y-115325300D02*
X143834600Y-115325300D01*
X143525000Y-114150000D02*
X143525000Y-115325300D01*
X145305300Y-116796000D02*
X145305300Y-127881800D01*
X144130000Y-129865000D02*
X144130000Y-128689700D01*
X144497400Y-128689700D02*
X144130000Y-128689700D01*
X145305300Y-127881800D02*
X144497400Y-128689700D01*
X143834600Y-115325300D02*
X145305300Y-116796000D01*
D20*
X146980000Y-81030000D02*
X150300000Y-84350000D01*
D19*
X142830000Y-81030000D02*
X142850000Y-81050000D01*
D20*
X136430000Y-81030000D02*
X146980000Y-81030000D01*
X152800000Y-83200000D02*
X152800000Y-84350000D01*
X136430000Y-73410000D02*
X143010000Y-73410000D01*
X143010000Y-73410000D02*
X152800000Y-83200000D01*
X152800000Y-96450000D02*
X152750000Y-96500000D01*
D19*
X151600000Y-102400000D02*
X150300000Y-101100000D01*
X157437700Y-102937000D02*
X153111600Y-102937000D01*
X152137000Y-102937000D02*
X151600000Y-102400000D01*
D20*
X152800000Y-85650000D02*
X152800000Y-96450000D01*
D19*
X153111600Y-102937000D02*
X152137000Y-102937000D01*
D20*
X150300000Y-85650000D02*
X150300000Y-97350000D01*
D19*
X150250000Y-97400000D02*
X150580000Y-97730000D01*
X150300000Y-97350000D02*
X150250000Y-97400000D01*
X157730000Y-97730000D02*
X160250000Y-100250000D01*
X150580000Y-97730000D02*
X157730000Y-97730000D01*
X139180000Y-90020000D02*
X137750000Y-91450000D01*
X148900000Y-95003299D02*
X148900000Y-97400000D01*
X139180000Y-90020000D02*
X143916701Y-90020000D01*
X143916701Y-90020000D02*
X148900000Y-95003299D01*
X148799999Y-101099999D02*
X149000000Y-101099999D01*
X146900000Y-96725400D02*
X146900000Y-99200000D01*
X145364500Y-95189900D02*
X139090100Y-95189900D01*
X139090100Y-95189900D02*
X137750000Y-96530000D01*
X146900000Y-99200000D02*
X148799999Y-101099999D01*
X145364500Y-95189900D02*
X146900000Y-96725400D01*
G04 #@! TA.AperFunction,Conductor*
G36*
X185954349Y-70034566D02*
G01*
X191498399Y-70085985D01*
X191499854Y-70086017D01*
X191500016Y-70086082D01*
X191500151Y-70086024D01*
X191501645Y-70086057D01*
X191802124Y-70096593D01*
X191836746Y-70097921D01*
X191848743Y-70098958D01*
X192068663Y-70128634D01*
X192069810Y-70128795D01*
X192133216Y-70137991D01*
X192186516Y-70145722D01*
X192197549Y-70147828D01*
X192253513Y-70161121D01*
X192397361Y-70195289D01*
X192399356Y-70195781D01*
X192529494Y-70228973D01*
X192539456Y-70231956D01*
X192615898Y-70258335D01*
X192727206Y-70296745D01*
X192729815Y-70297680D01*
X192862086Y-70346776D01*
X192870920Y-70350442D01*
X193047958Y-70431930D01*
X193051335Y-70433545D01*
X193125200Y-70470241D01*
X193180806Y-70497867D01*
X193188460Y-70502006D01*
X193354842Y-70599593D01*
X193358738Y-70601974D01*
X193445057Y-70656910D01*
X193482286Y-70680604D01*
X193488819Y-70685056D01*
X193643818Y-70797957D01*
X193648088Y-70801210D01*
X193763438Y-70893060D01*
X193768816Y-70897596D01*
X193885469Y-71001699D01*
X193911504Y-71024934D01*
X193916056Y-71029203D01*
X194021231Y-71132864D01*
X194025567Y-71137354D01*
X194154980Y-71278204D01*
X194159618Y-71283546D01*
X194253065Y-71397474D01*
X194256404Y-71401728D01*
X194371563Y-71555106D01*
X194376109Y-71561574D01*
X194456488Y-71683919D01*
X194458932Y-71687790D01*
X194558923Y-71852746D01*
X194563190Y-71860369D01*
X194629394Y-71988916D01*
X194631016Y-71992186D01*
X194661676Y-72056332D01*
X194715078Y-72168061D01*
X194718874Y-72176844D01*
X194769887Y-72308407D01*
X194770908Y-72311135D01*
X194838358Y-72497778D01*
X194841482Y-72507682D01*
X194876577Y-72637409D01*
X194877103Y-72639420D01*
X194882445Y-72660543D01*
X194924824Y-72828116D01*
X194927431Y-72838425D01*
X194929695Y-72849418D01*
X194948336Y-72966013D01*
X194948484Y-72966970D01*
X194963726Y-73068769D01*
X194981350Y-73186484D01*
X194982563Y-73198486D01*
X194984386Y-73232953D01*
X194996699Y-73481280D01*
X194999207Y-73531870D01*
X194999284Y-73534990D01*
X194999280Y-73535000D01*
X194999285Y-73535012D01*
X194999362Y-73538111D01*
X194994895Y-106093394D01*
X194991611Y-130025750D01*
X194991574Y-130027871D01*
X194991529Y-130027984D01*
X194991570Y-130028080D01*
X194991534Y-130030147D01*
X194981380Y-130319815D01*
X194981364Y-130320245D01*
X194979637Y-130365135D01*
X194978598Y-130377134D01*
X194949543Y-130592470D01*
X194949416Y-130593376D01*
X194931783Y-130714960D01*
X194929679Y-130725984D01*
X194926431Y-130739658D01*
X194882944Y-130922741D01*
X194882447Y-130924760D01*
X194848474Y-131057972D01*
X194845490Y-131067936D01*
X194781516Y-131253326D01*
X194780548Y-131256029D01*
X194776300Y-131267475D01*
X194730611Y-131390572D01*
X194726943Y-131399410D01*
X194646284Y-131574653D01*
X194644668Y-131578031D01*
X194579447Y-131709312D01*
X194575302Y-131716977D01*
X194478592Y-131881867D01*
X194476244Y-131885708D01*
X194471808Y-131892678D01*
X194396625Y-132010811D01*
X194392174Y-132017344D01*
X194280260Y-132170990D01*
X194276984Y-132175290D01*
X194239139Y-132222818D01*
X194184072Y-132291975D01*
X194179512Y-132297383D01*
X194053264Y-132438851D01*
X194048994Y-132443403D01*
X193944095Y-132549835D01*
X193939605Y-132554170D01*
X193799991Y-132682448D01*
X193794671Y-132687069D01*
X193685053Y-132776982D01*
X193679322Y-132781683D01*
X193675075Y-132785017D01*
X193523074Y-132899143D01*
X193516623Y-132903677D01*
X193392678Y-132985108D01*
X193388820Y-132987544D01*
X193237209Y-133079447D01*
X193225396Y-133086608D01*
X193217771Y-133090875D01*
X193087472Y-133157981D01*
X193084119Y-133159646D01*
X192910059Y-133242842D01*
X192901274Y-133246638D01*
X192767475Y-133298519D01*
X192764748Y-133299540D01*
X192580328Y-133366188D01*
X192570420Y-133369312D01*
X192437719Y-133405214D01*
X192435772Y-133405724D01*
X192239645Y-133455324D01*
X192228666Y-133457585D01*
X192107330Y-133476983D01*
X192106329Y-133477138D01*
X191967625Y-133497906D01*
X191891572Y-133509293D01*
X191879570Y-133510506D01*
X191831753Y-133513035D01*
X191831339Y-133513056D01*
X191706080Y-133519267D01*
X191546624Y-133527174D01*
X191542667Y-133527271D01*
X191542611Y-133527248D01*
X191542548Y-133527274D01*
X191540332Y-133527329D01*
X160798232Y-133507568D01*
X135974215Y-133491612D01*
X135972132Y-133491575D01*
X135972016Y-133491529D01*
X135971918Y-133491571D01*
X135969882Y-133491535D01*
X135680185Y-133481380D01*
X135679755Y-133481364D01*
X135654244Y-133480383D01*
X135634862Y-133479637D01*
X135622866Y-133478598D01*
X135407530Y-133449543D01*
X135406624Y-133449416D01*
X135285031Y-133431781D01*
X135274016Y-133429679D01*
X135209912Y-133414453D01*
X135077259Y-133382944D01*
X135075240Y-133382447D01*
X134942028Y-133348474D01*
X134932064Y-133345490D01*
X134746674Y-133281516D01*
X134743971Y-133280548D01*
X134652608Y-133246638D01*
X134609428Y-133230611D01*
X134600590Y-133226943D01*
X134425347Y-133146284D01*
X134421969Y-133144668D01*
X134290688Y-133079447D01*
X134283023Y-133075302D01*
X134118134Y-132978592D01*
X134114280Y-132976236D01*
X133993127Y-132899131D01*
X133989181Y-132896619D01*
X133982664Y-132892179D01*
X133829007Y-132780258D01*
X133824707Y-132776982D01*
X133708025Y-132684072D01*
X133702617Y-132679512D01*
X133561149Y-132553264D01*
X133556597Y-132548994D01*
X133450165Y-132444095D01*
X133445830Y-132439605D01*
X133332798Y-132316585D01*
X133317552Y-132299991D01*
X133312931Y-132294671D01*
X133218311Y-132179314D01*
X133214977Y-132175067D01*
X133211916Y-132170990D01*
X133100857Y-132023074D01*
X133096323Y-132016623D01*
X133014892Y-131892678D01*
X133012448Y-131888808D01*
X133008209Y-131881814D01*
X132913389Y-131725391D01*
X132909125Y-131717771D01*
X132842019Y-131587472D01*
X132840354Y-131584119D01*
X132757158Y-131410059D01*
X132753362Y-131401274D01*
X132701481Y-131267475D01*
X132700460Y-131264748D01*
X132650799Y-131127331D01*
X132633812Y-131080328D01*
X132630686Y-131070414D01*
X132615475Y-131014188D01*
X132594786Y-130937719D01*
X132594264Y-130935724D01*
X132594083Y-130935007D01*
X132544676Y-130739645D01*
X132542413Y-130728657D01*
X132542276Y-130727798D01*
X132523017Y-130607330D01*
X132522862Y-130606329D01*
X132494597Y-130417555D01*
X132490707Y-130391572D01*
X132489494Y-130379571D01*
X132486958Y-130331629D01*
X132486937Y-130331213D01*
X132486394Y-130320245D01*
X132476415Y-130119000D01*
X132472820Y-130046506D01*
X132472721Y-130042686D01*
X132472752Y-130042611D01*
X132472716Y-130042525D01*
X132472665Y-130040551D01*
X132454440Y-121994807D01*
X132979536Y-121994807D01*
X132982390Y-122005456D01*
X132989291Y-122031210D01*
X132991670Y-122041942D01*
X132998212Y-122079045D01*
X133003723Y-122088590D01*
X133004915Y-122091866D01*
X133006392Y-122095034D01*
X133009246Y-122105684D01*
X133015570Y-122114715D01*
X133030855Y-122136544D01*
X133036761Y-122145815D01*
X133044135Y-122158586D01*
X133055606Y-122178455D01*
X133068010Y-122188863D01*
X133084482Y-122202685D01*
X133092585Y-122210111D01*
X134323689Y-123441215D01*
X134331116Y-123449319D01*
X134350286Y-123472165D01*
X134378750Y-123537206D01*
X134367533Y-123607310D01*
X134332716Y-123651352D01*
X134221447Y-123740815D01*
X134089024Y-123898630D01*
X134086056Y-123904028D01*
X134086053Y-123904033D01*
X133997407Y-124065282D01*
X133989776Y-124079162D01*
X133927484Y-124275532D01*
X133926798Y-124281649D01*
X133926797Y-124281653D01*
X133916463Y-124373783D01*
X133904520Y-124480262D01*
X133905036Y-124486406D01*
X133917373Y-124633317D01*
X133921759Y-124685553D01*
X133923458Y-124691478D01*
X133955950Y-124804790D01*
X133978544Y-124883586D01*
X133981359Y-124889063D01*
X133981360Y-124889066D01*
X134057845Y-125037890D01*
X134072712Y-125066818D01*
X134200677Y-125228270D01*
X134205370Y-125232264D01*
X134205371Y-125232265D01*
X134215654Y-125241016D01*
X134357564Y-125361791D01*
X134537398Y-125462297D01*
X134543255Y-125464200D01*
X134547441Y-125465560D01*
X134606045Y-125505636D01*
X134633679Y-125571034D01*
X134634500Y-125585392D01*
X134634500Y-127445790D01*
X134634020Y-127456772D01*
X134630736Y-127494307D01*
X134637988Y-127521370D01*
X134640491Y-127530710D01*
X134642870Y-127541442D01*
X134649412Y-127578545D01*
X134654923Y-127588090D01*
X134656115Y-127591366D01*
X134657592Y-127594534D01*
X134660446Y-127605184D01*
X134666770Y-127614215D01*
X134682055Y-127636044D01*
X134687961Y-127645315D01*
X134701293Y-127668406D01*
X134706806Y-127677955D01*
X134715251Y-127685041D01*
X134735682Y-127702185D01*
X134743785Y-127709611D01*
X139248889Y-132214715D01*
X139256315Y-132222818D01*
X139280545Y-132251694D01*
X139290094Y-132257207D01*
X139313185Y-132270539D01*
X139322456Y-132276445D01*
X139353316Y-132298054D01*
X139363966Y-132300908D01*
X139367134Y-132302385D01*
X139370410Y-132303577D01*
X139379955Y-132309088D01*
X139413699Y-132315038D01*
X139417058Y-132315630D01*
X139427785Y-132318008D01*
X139464193Y-132327764D01*
X139475178Y-132326803D01*
X139475180Y-132326803D01*
X139501728Y-132324480D01*
X139512710Y-132324000D01*
X154916490Y-132324000D01*
X154927472Y-132324480D01*
X154954020Y-132326803D01*
X154954022Y-132326803D01*
X154965007Y-132327764D01*
X155001415Y-132318008D01*
X155012142Y-132315630D01*
X155015501Y-132315038D01*
X155049245Y-132309088D01*
X155058790Y-132303577D01*
X155062066Y-132302385D01*
X155065234Y-132300908D01*
X155075884Y-132298054D01*
X155106744Y-132276445D01*
X155116015Y-132270539D01*
X155139106Y-132257207D01*
X155148655Y-132251694D01*
X155172885Y-132222817D01*
X155180311Y-132214715D01*
X158329764Y-129065262D01*
X185444520Y-129065262D01*
X185445036Y-129071406D01*
X185461201Y-129263903D01*
X185461759Y-129270553D01*
X185463458Y-129276478D01*
X185515311Y-129457310D01*
X185518544Y-129468586D01*
X185521359Y-129474063D01*
X185521360Y-129474066D01*
X185603533Y-129633958D01*
X185612712Y-129651818D01*
X185740677Y-129813270D01*
X185745370Y-129817264D01*
X185745371Y-129817265D01*
X185836092Y-129894474D01*
X185897564Y-129946791D01*
X186077398Y-130047297D01*
X186148114Y-130070274D01*
X186267471Y-130109056D01*
X186267475Y-130109057D01*
X186273329Y-130110959D01*
X186477894Y-130135351D01*
X186484029Y-130134879D01*
X186484031Y-130134879D01*
X186540039Y-130130569D01*
X186683300Y-130119546D01*
X186689230Y-130117890D01*
X186689232Y-130117890D01*
X186875797Y-130065800D01*
X186875796Y-130065800D01*
X186881725Y-130064145D01*
X186887214Y-130061372D01*
X186887220Y-130061370D01*
X187060116Y-129974033D01*
X187065610Y-129971258D01*
X187227951Y-129844424D01*
X187243959Y-129825879D01*
X187358540Y-129693134D01*
X187358540Y-129693133D01*
X187362564Y-129688472D01*
X187375272Y-129666103D01*
X187441573Y-129549391D01*
X187464323Y-129509344D01*
X187529351Y-129313863D01*
X187555171Y-129109474D01*
X187555583Y-129080000D01*
X187535480Y-128874970D01*
X187475935Y-128677749D01*
X187379218Y-128495849D01*
X187284425Y-128379622D01*
X187252906Y-128340975D01*
X187252903Y-128340972D01*
X187249011Y-128336200D01*
X187216421Y-128309239D01*
X187095025Y-128208811D01*
X187095021Y-128208809D01*
X187090275Y-128204882D01*
X186909055Y-128106897D01*
X186712254Y-128045977D01*
X186706129Y-128045333D01*
X186706128Y-128045333D01*
X186513498Y-128025087D01*
X186513496Y-128025087D01*
X186507369Y-128024443D01*
X186420529Y-128032346D01*
X186308342Y-128042555D01*
X186308339Y-128042556D01*
X186302203Y-128043114D01*
X186104572Y-128101280D01*
X185922002Y-128196726D01*
X185917201Y-128200586D01*
X185917198Y-128200588D01*
X185838893Y-128263547D01*
X185761447Y-128325815D01*
X185629024Y-128483630D01*
X185626056Y-128489028D01*
X185626053Y-128489033D01*
X185534033Y-128656419D01*
X185529776Y-128664162D01*
X185527913Y-128670035D01*
X185474390Y-128838763D01*
X185467484Y-128860532D01*
X185466798Y-128866649D01*
X185466797Y-128866653D01*
X185452535Y-128993808D01*
X185444520Y-129065262D01*
X158329764Y-129065262D01*
X160869764Y-126525262D01*
X185444520Y-126525262D01*
X185445036Y-126531406D01*
X185461201Y-126723903D01*
X185461759Y-126730553D01*
X185463458Y-126736478D01*
X185515311Y-126917310D01*
X185518544Y-126928586D01*
X185521359Y-126934063D01*
X185521360Y-126934066D01*
X185542247Y-126974707D01*
X185612712Y-127111818D01*
X185740677Y-127273270D01*
X185745370Y-127277264D01*
X185745371Y-127277265D01*
X185836092Y-127354474D01*
X185897564Y-127406791D01*
X186077398Y-127507297D01*
X186172238Y-127538113D01*
X186267471Y-127569056D01*
X186267475Y-127569057D01*
X186273329Y-127570959D01*
X186477894Y-127595351D01*
X186484029Y-127594879D01*
X186484031Y-127594879D01*
X186540039Y-127590569D01*
X186683300Y-127579546D01*
X186689230Y-127577890D01*
X186689232Y-127577890D01*
X186839175Y-127536025D01*
X186881725Y-127524145D01*
X186887214Y-127521372D01*
X186887220Y-127521370D01*
X187025961Y-127451286D01*
X187065610Y-127431258D01*
X187227951Y-127304424D01*
X187362564Y-127148472D01*
X187375272Y-127126103D01*
X187461276Y-126974707D01*
X187464323Y-126969344D01*
X187529351Y-126773863D01*
X187555171Y-126569474D01*
X187555583Y-126540000D01*
X187535480Y-126334970D01*
X187475935Y-126137749D01*
X187379218Y-125955849D01*
X187305859Y-125865902D01*
X187252906Y-125800975D01*
X187252903Y-125800972D01*
X187249011Y-125796200D01*
X187231786Y-125781950D01*
X187095025Y-125668811D01*
X187095021Y-125668809D01*
X187090275Y-125664882D01*
X186909055Y-125566897D01*
X186712254Y-125505977D01*
X186706129Y-125505333D01*
X186706128Y-125505333D01*
X186513498Y-125485087D01*
X186513496Y-125485087D01*
X186507369Y-125484443D01*
X186420529Y-125492346D01*
X186308342Y-125502555D01*
X186308339Y-125502556D01*
X186302203Y-125503114D01*
X186104572Y-125561280D01*
X185922002Y-125656726D01*
X185917201Y-125660586D01*
X185917198Y-125660588D01*
X185906971Y-125668811D01*
X185761447Y-125785815D01*
X185629024Y-125943630D01*
X185626056Y-125949028D01*
X185626053Y-125949033D01*
X185569278Y-126052307D01*
X185529776Y-126124162D01*
X185467484Y-126320532D01*
X185466798Y-126326649D01*
X185466797Y-126326653D01*
X185454871Y-126432976D01*
X185444520Y-126525262D01*
X160869764Y-126525262D01*
X164825278Y-122569748D01*
X167899500Y-122569748D01*
X167900707Y-122575816D01*
X167902626Y-122585461D01*
X167911133Y-122628231D01*
X167955448Y-122694552D01*
X168021769Y-122738867D01*
X168033938Y-122741288D01*
X168033939Y-122741288D01*
X168074184Y-122749293D01*
X168080252Y-122750500D01*
X169819748Y-122750500D01*
X169825816Y-122749293D01*
X169866061Y-122741288D01*
X169866062Y-122741288D01*
X169878231Y-122738867D01*
X169944552Y-122694552D01*
X169988867Y-122628231D01*
X169997375Y-122585461D01*
X169999293Y-122575816D01*
X170000500Y-122569748D01*
X170000500Y-120830252D01*
X169988867Y-120771769D01*
X169944552Y-120705448D01*
X169878231Y-120661133D01*
X169866062Y-120658712D01*
X169866061Y-120658712D01*
X169825816Y-120650707D01*
X169819748Y-120649500D01*
X168080252Y-120649500D01*
X168074184Y-120650707D01*
X168033939Y-120658712D01*
X168033938Y-120658712D01*
X168021769Y-120661133D01*
X167955448Y-120705448D01*
X167911133Y-120771769D01*
X167899500Y-120830252D01*
X167899500Y-122569748D01*
X164825278Y-122569748D01*
X167804913Y-119590113D01*
X167867225Y-119556087D01*
X167938040Y-119561152D01*
X167994876Y-119603699D01*
X168006075Y-119621614D01*
X168023087Y-119654715D01*
X168062712Y-119731818D01*
X168190677Y-119893270D01*
X168195370Y-119897264D01*
X168195371Y-119897265D01*
X168337369Y-120018114D01*
X168347564Y-120026791D01*
X168352942Y-120029797D01*
X168352944Y-120029798D01*
X168358568Y-120032941D01*
X168527398Y-120127297D01*
X168622238Y-120158113D01*
X168717471Y-120189056D01*
X168717475Y-120189057D01*
X168723329Y-120190959D01*
X168927894Y-120215351D01*
X168934029Y-120214879D01*
X168934031Y-120214879D01*
X168990039Y-120210569D01*
X169133300Y-120199546D01*
X169139230Y-120197890D01*
X169139232Y-120197890D01*
X169304970Y-120151615D01*
X169331725Y-120144145D01*
X169337214Y-120141372D01*
X169337220Y-120141370D01*
X169510116Y-120054033D01*
X169515610Y-120051258D01*
X169527052Y-120042319D01*
X169628487Y-119963069D01*
X169677951Y-119924424D01*
X169695456Y-119904145D01*
X169808540Y-119773134D01*
X169808540Y-119773133D01*
X169812564Y-119768472D01*
X169833387Y-119731818D01*
X169851056Y-119700714D01*
X169914323Y-119589344D01*
X169979351Y-119393863D01*
X170005171Y-119189474D01*
X170005583Y-119160000D01*
X169985480Y-118954970D01*
X169925935Y-118757749D01*
X169829218Y-118575849D01*
X169718483Y-118440075D01*
X169702906Y-118420975D01*
X169702903Y-118420972D01*
X169699011Y-118416200D01*
X169673425Y-118395033D01*
X169545025Y-118288811D01*
X169545021Y-118288809D01*
X169540275Y-118284882D01*
X169375848Y-118195977D01*
X169364474Y-118189827D01*
X169359055Y-118186897D01*
X169162254Y-118125977D01*
X169156129Y-118125333D01*
X169156128Y-118125333D01*
X168963498Y-118105087D01*
X168963496Y-118105087D01*
X168957369Y-118104443D01*
X168870529Y-118112346D01*
X168758342Y-118122555D01*
X168758339Y-118122556D01*
X168752203Y-118123114D01*
X168554572Y-118181280D01*
X168372002Y-118276726D01*
X168367201Y-118280586D01*
X168367198Y-118280588D01*
X168269122Y-118359443D01*
X168211447Y-118405815D01*
X168079024Y-118563630D01*
X168076056Y-118569028D01*
X168076053Y-118569033D01*
X168027723Y-118656946D01*
X167979776Y-118744162D01*
X167977914Y-118750031D01*
X167975485Y-118755699D01*
X167973458Y-118754830D01*
X167939342Y-118805481D01*
X167874140Y-118833575D01*
X167858901Y-118834500D01*
X167794410Y-118834500D01*
X167783428Y-118834020D01*
X167756880Y-118831697D01*
X167756878Y-118831697D01*
X167745893Y-118830736D01*
X167709485Y-118840492D01*
X167698758Y-118842870D01*
X167695399Y-118843462D01*
X167661655Y-118849412D01*
X167652110Y-118854923D01*
X167648834Y-118856115D01*
X167645666Y-118857592D01*
X167635016Y-118860446D01*
X167625985Y-118866770D01*
X167604156Y-118882055D01*
X167594885Y-118887961D01*
X167575528Y-118899137D01*
X167562245Y-118906806D01*
X167538015Y-118935682D01*
X167530589Y-118943785D01*
X154838279Y-131636095D01*
X154775967Y-131670121D01*
X154749184Y-131673000D01*
X152420616Y-131673000D01*
X152352495Y-131652998D01*
X152306002Y-131599342D01*
X152295898Y-131529068D01*
X152325392Y-131464488D01*
X152331521Y-131457905D01*
X167835463Y-115953963D01*
X167897775Y-115919937D01*
X167968590Y-115925002D01*
X168025426Y-115967549D01*
X168050237Y-116034069D01*
X168034973Y-116103759D01*
X167979776Y-116204162D01*
X167917484Y-116400532D01*
X167916798Y-116406649D01*
X167916797Y-116406653D01*
X167908722Y-116478649D01*
X167894520Y-116605262D01*
X167895036Y-116611406D01*
X167909041Y-116778180D01*
X167911759Y-116810553D01*
X167913458Y-116816478D01*
X167965308Y-116997300D01*
X167968544Y-117008586D01*
X167971359Y-117014063D01*
X167971360Y-117014066D01*
X168059897Y-117186341D01*
X168062712Y-117191818D01*
X168190677Y-117353270D01*
X168195370Y-117357264D01*
X168195371Y-117357265D01*
X168337369Y-117478114D01*
X168347564Y-117486791D01*
X168352942Y-117489797D01*
X168352944Y-117489798D01*
X168384563Y-117507469D01*
X168527398Y-117587297D01*
X168622238Y-117618113D01*
X168717471Y-117649056D01*
X168717475Y-117649057D01*
X168723329Y-117650959D01*
X168927894Y-117675351D01*
X168934029Y-117674879D01*
X168934031Y-117674879D01*
X168990039Y-117670569D01*
X169133300Y-117659546D01*
X169139230Y-117657890D01*
X169139232Y-117657890D01*
X169302642Y-117612265D01*
X169331725Y-117604145D01*
X169337214Y-117601372D01*
X169337220Y-117601370D01*
X169510116Y-117514033D01*
X169515610Y-117511258D01*
X169537394Y-117494239D01*
X169642688Y-117411974D01*
X169677951Y-117384424D01*
X169686473Y-117374552D01*
X169808540Y-117233134D01*
X169808540Y-117233133D01*
X169812564Y-117228472D01*
X169833387Y-117191818D01*
X169883983Y-117102752D01*
X169914323Y-117049344D01*
X169979351Y-116853863D01*
X170005171Y-116649474D01*
X170005583Y-116620000D01*
X169985480Y-116414970D01*
X169925935Y-116217749D01*
X169829218Y-116035849D01*
X169719969Y-115901897D01*
X169702906Y-115880975D01*
X169702903Y-115880972D01*
X169699011Y-115876200D01*
X169673425Y-115855033D01*
X169545025Y-115748811D01*
X169545021Y-115748809D01*
X169540275Y-115744882D01*
X169403091Y-115670707D01*
X169364474Y-115649827D01*
X169359055Y-115646897D01*
X169291968Y-115626130D01*
X169232808Y-115586879D01*
X169204261Y-115521874D01*
X169215390Y-115451755D01*
X169223803Y-115438645D01*
X169223643Y-115438552D01*
X169229157Y-115429002D01*
X169236240Y-115420561D01*
X169240008Y-115410208D01*
X169240011Y-115410203D01*
X169242363Y-115403740D01*
X169251644Y-115383836D01*
X169252304Y-115382694D01*
X169260588Y-115368345D01*
X169262502Y-115357491D01*
X169262504Y-115357485D01*
X169263696Y-115350724D01*
X169269378Y-115329516D01*
X169271730Y-115323052D01*
X169275500Y-115312694D01*
X169275500Y-115170062D01*
X169295502Y-115101941D01*
X169344690Y-115057596D01*
X169445578Y-115006634D01*
X169502388Y-114993100D01*
X175805284Y-114993100D01*
X175873405Y-115013102D01*
X175894379Y-115030005D01*
X185080589Y-124216215D01*
X185088016Y-124224319D01*
X185112245Y-124253194D01*
X185121794Y-124258707D01*
X185144885Y-124272039D01*
X185154156Y-124277945D01*
X185185016Y-124299554D01*
X185195666Y-124302408D01*
X185198834Y-124303885D01*
X185202110Y-124305077D01*
X185211655Y-124310588D01*
X185245399Y-124316538D01*
X185248758Y-124317130D01*
X185259485Y-124319508D01*
X185295893Y-124329264D01*
X185306869Y-124328304D01*
X185306872Y-124328304D01*
X185333443Y-124325979D01*
X185344424Y-124325500D01*
X185409211Y-124325500D01*
X185477332Y-124345502D01*
X185521278Y-124393906D01*
X185588381Y-124524474D01*
X185612712Y-124571818D01*
X185740677Y-124733270D01*
X185897564Y-124866791D01*
X185902942Y-124869797D01*
X185902944Y-124869798D01*
X185941342Y-124891258D01*
X186077398Y-124967297D01*
X186172238Y-124998113D01*
X186267471Y-125029056D01*
X186267475Y-125029057D01*
X186273329Y-125030959D01*
X186477894Y-125055351D01*
X186484029Y-125054879D01*
X186484031Y-125054879D01*
X186540039Y-125050569D01*
X186683300Y-125039546D01*
X186689230Y-125037890D01*
X186689232Y-125037890D01*
X186813104Y-125003304D01*
X186881725Y-124984145D01*
X186887214Y-124981372D01*
X186887220Y-124981370D01*
X187060116Y-124894033D01*
X187065610Y-124891258D01*
X187227951Y-124764424D01*
X187265188Y-124721285D01*
X187358540Y-124613134D01*
X187358540Y-124613133D01*
X187362564Y-124608472D01*
X187383387Y-124571818D01*
X187431907Y-124486406D01*
X187464323Y-124429344D01*
X187529351Y-124233863D01*
X187555171Y-124029474D01*
X187555583Y-124000000D01*
X187535480Y-123794970D01*
X187475935Y-123597749D01*
X187379218Y-123415849D01*
X187287840Y-123303809D01*
X187252906Y-123260975D01*
X187252903Y-123260972D01*
X187249011Y-123256200D01*
X187244262Y-123252271D01*
X187095025Y-123128811D01*
X187095021Y-123128809D01*
X187090275Y-123124882D01*
X186909055Y-123026897D01*
X186712254Y-122965977D01*
X186706129Y-122965333D01*
X186706128Y-122965333D01*
X186513498Y-122945087D01*
X186513496Y-122945087D01*
X186507369Y-122944443D01*
X186420529Y-122952346D01*
X186308342Y-122962555D01*
X186308339Y-122962556D01*
X186302203Y-122963114D01*
X186104572Y-123021280D01*
X185922002Y-123116726D01*
X185917201Y-123120586D01*
X185917198Y-123120588D01*
X185766254Y-123241950D01*
X185761447Y-123245815D01*
X185629024Y-123403630D01*
X185626054Y-123409033D01*
X185626053Y-123409034D01*
X185553655Y-123540725D01*
X185503309Y-123590784D01*
X185433892Y-123605677D01*
X185367443Y-123580676D01*
X185354145Y-123569119D01*
X176236411Y-114451385D01*
X176228984Y-114443281D01*
X176211841Y-114422851D01*
X176211842Y-114422851D01*
X176204755Y-114414406D01*
X176195206Y-114408893D01*
X176172115Y-114395561D01*
X176162844Y-114389655D01*
X176141015Y-114374370D01*
X176131984Y-114368046D01*
X176121334Y-114365192D01*
X176118166Y-114363715D01*
X176114890Y-114362523D01*
X176105345Y-114357012D01*
X176071601Y-114351062D01*
X176068242Y-114350470D01*
X176057515Y-114348092D01*
X176021107Y-114338336D01*
X176010122Y-114339297D01*
X176010120Y-114339297D01*
X175983572Y-114341620D01*
X175972590Y-114342100D01*
X170118702Y-114342100D01*
X170050581Y-114322098D01*
X170004088Y-114268442D01*
X169993696Y-114200308D01*
X169997276Y-114171972D01*
X170005171Y-114109474D01*
X170005583Y-114080000D01*
X169985480Y-113874970D01*
X169925935Y-113677749D01*
X169829218Y-113495849D01*
X169726413Y-113369798D01*
X169702906Y-113340975D01*
X169702903Y-113340972D01*
X169699011Y-113336200D01*
X169671672Y-113313583D01*
X169545025Y-113208811D01*
X169545021Y-113208809D01*
X169540275Y-113204882D01*
X169359055Y-113106897D01*
X169162254Y-113045977D01*
X169156129Y-113045333D01*
X169156128Y-113045333D01*
X168963498Y-113025087D01*
X168963496Y-113025087D01*
X168957369Y-113024443D01*
X168870529Y-113032346D01*
X168758342Y-113042555D01*
X168758339Y-113042556D01*
X168752203Y-113043114D01*
X168740172Y-113046655D01*
X168692896Y-113060569D01*
X168621899Y-113060614D01*
X168562149Y-113022268D01*
X168532615Y-112957706D01*
X168542674Y-112887425D01*
X168568226Y-112850600D01*
X168791336Y-112627490D01*
X168853648Y-112593464D01*
X168895347Y-112591471D01*
X168921778Y-112594622D01*
X168921780Y-112594622D01*
X168927894Y-112595351D01*
X168934029Y-112594879D01*
X168934031Y-112594879D01*
X168990039Y-112590569D01*
X169133300Y-112579546D01*
X169139230Y-112577890D01*
X169139232Y-112577890D01*
X169263104Y-112543304D01*
X169331725Y-112524145D01*
X169337214Y-112521372D01*
X169337220Y-112521370D01*
X169510110Y-112434036D01*
X169515610Y-112431258D01*
X169527052Y-112422319D01*
X169569779Y-112388937D01*
X169605907Y-112360711D01*
X169671900Y-112334533D01*
X169683479Y-112334000D01*
X175686184Y-112334000D01*
X175754305Y-112354002D01*
X175775279Y-112370905D01*
X180447864Y-117043491D01*
X185080595Y-121676222D01*
X185088022Y-121684326D01*
X185112245Y-121713194D01*
X185144884Y-121732038D01*
X185154152Y-121737942D01*
X185185016Y-121759553D01*
X185195662Y-121762406D01*
X185198830Y-121763883D01*
X185202107Y-121765076D01*
X185211655Y-121770588D01*
X185241208Y-121775799D01*
X185248769Y-121777132D01*
X185259503Y-121779512D01*
X185295893Y-121789263D01*
X185306869Y-121788303D01*
X185306872Y-121788303D01*
X185333431Y-121785979D01*
X185344412Y-121785500D01*
X185409211Y-121785500D01*
X185477332Y-121805502D01*
X185521278Y-121853906D01*
X185588381Y-121984474D01*
X185612712Y-122031818D01*
X185740677Y-122193270D01*
X185745370Y-122197264D01*
X185745371Y-122197265D01*
X185755889Y-122206216D01*
X185897564Y-122326791D01*
X185902942Y-122329797D01*
X185902944Y-122329798D01*
X185927615Y-122343586D01*
X186077398Y-122427297D01*
X186172238Y-122458113D01*
X186267471Y-122489056D01*
X186267475Y-122489057D01*
X186273329Y-122490959D01*
X186477894Y-122515351D01*
X186484029Y-122514879D01*
X186484031Y-122514879D01*
X186540039Y-122510569D01*
X186683300Y-122499546D01*
X186689230Y-122497890D01*
X186689232Y-122497890D01*
X186875797Y-122445800D01*
X186875796Y-122445800D01*
X186881725Y-122444145D01*
X186887214Y-122441372D01*
X186887220Y-122441370D01*
X187060116Y-122354033D01*
X187065610Y-122351258D01*
X187227951Y-122224424D01*
X187246716Y-122202685D01*
X187358540Y-122073134D01*
X187358540Y-122073133D01*
X187362564Y-122068472D01*
X187380713Y-122036525D01*
X187420505Y-121966478D01*
X187464323Y-121889344D01*
X187529351Y-121693863D01*
X187555171Y-121489474D01*
X187555583Y-121460000D01*
X187535480Y-121254970D01*
X187475935Y-121057749D01*
X187379218Y-120875849D01*
X187276605Y-120750033D01*
X187252906Y-120720975D01*
X187252903Y-120720972D01*
X187249011Y-120716200D01*
X187244262Y-120712271D01*
X187095025Y-120588811D01*
X187095021Y-120588809D01*
X187090275Y-120584882D01*
X186909055Y-120486897D01*
X186712254Y-120425977D01*
X186706129Y-120425333D01*
X186706128Y-120425333D01*
X186513498Y-120405087D01*
X186513496Y-120405087D01*
X186507369Y-120404443D01*
X186430373Y-120411450D01*
X186308342Y-120422555D01*
X186308339Y-120422556D01*
X186302203Y-120423114D01*
X186104572Y-120481280D01*
X186099107Y-120484137D01*
X186045721Y-120512047D01*
X185922002Y-120576726D01*
X185917201Y-120580586D01*
X185917198Y-120580588D01*
X185770474Y-120698557D01*
X185761447Y-120705815D01*
X185629024Y-120863630D01*
X185564007Y-120981897D01*
X185553656Y-121000725D01*
X185503311Y-121050783D01*
X185433894Y-121065677D01*
X185367445Y-121040676D01*
X185354146Y-121029119D01*
X183230289Y-118905262D01*
X185444520Y-118905262D01*
X185447428Y-118939890D01*
X185454042Y-119018649D01*
X185461759Y-119110553D01*
X185463458Y-119116478D01*
X185500740Y-119246495D01*
X185518544Y-119308586D01*
X185521359Y-119314063D01*
X185521360Y-119314066D01*
X185590181Y-119447978D01*
X185612712Y-119491818D01*
X185740677Y-119653270D01*
X185745370Y-119657264D01*
X185745371Y-119657265D01*
X185869744Y-119763114D01*
X185897564Y-119786791D01*
X186077398Y-119887297D01*
X186154771Y-119912437D01*
X186267471Y-119949056D01*
X186267475Y-119949057D01*
X186273329Y-119950959D01*
X186477894Y-119975351D01*
X186484029Y-119974879D01*
X186484031Y-119974879D01*
X186540039Y-119970569D01*
X186683300Y-119959546D01*
X186689230Y-119957890D01*
X186689232Y-119957890D01*
X186875797Y-119905800D01*
X186875796Y-119905800D01*
X186881725Y-119904145D01*
X186887214Y-119901372D01*
X186887220Y-119901370D01*
X187060116Y-119814033D01*
X187065610Y-119811258D01*
X187074107Y-119804620D01*
X187146781Y-119747841D01*
X187227951Y-119684424D01*
X187297631Y-119603699D01*
X187358540Y-119533134D01*
X187358540Y-119533133D01*
X187362564Y-119528472D01*
X187383387Y-119491818D01*
X187431907Y-119406406D01*
X187464323Y-119349344D01*
X187529351Y-119153863D01*
X187555171Y-118949474D01*
X187555583Y-118920000D01*
X187535480Y-118714970D01*
X187475935Y-118517749D01*
X187379218Y-118335849D01*
X187297912Y-118236158D01*
X187252906Y-118180975D01*
X187252903Y-118180972D01*
X187249011Y-118176200D01*
X187244262Y-118172271D01*
X187095025Y-118048811D01*
X187095021Y-118048809D01*
X187090275Y-118044882D01*
X186909055Y-117946897D01*
X186712254Y-117885977D01*
X186706129Y-117885333D01*
X186706128Y-117885333D01*
X186513498Y-117865087D01*
X186513496Y-117865087D01*
X186507369Y-117864443D01*
X186420529Y-117872346D01*
X186308342Y-117882555D01*
X186308339Y-117882556D01*
X186302203Y-117883114D01*
X186104572Y-117941280D01*
X185922002Y-118036726D01*
X185917201Y-118040586D01*
X185917198Y-118040588D01*
X185774735Y-118155131D01*
X185761447Y-118165815D01*
X185629024Y-118323630D01*
X185626056Y-118329028D01*
X185626053Y-118329033D01*
X185559835Y-118449484D01*
X185529776Y-118504162D01*
X185467484Y-118700532D01*
X185466798Y-118706649D01*
X185466797Y-118706653D01*
X185447123Y-118882055D01*
X185444520Y-118905262D01*
X183230289Y-118905262D01*
X181574775Y-117249748D01*
X185449500Y-117249748D01*
X185461133Y-117308231D01*
X185505448Y-117374552D01*
X185571769Y-117418867D01*
X185583938Y-117421288D01*
X185583939Y-117421288D01*
X185624184Y-117429293D01*
X185630252Y-117430500D01*
X187369748Y-117430500D01*
X187375816Y-117429293D01*
X187416061Y-117421288D01*
X187416062Y-117421288D01*
X187428231Y-117418867D01*
X187494552Y-117374552D01*
X187538867Y-117308231D01*
X187550500Y-117249748D01*
X187550500Y-115510252D01*
X187545744Y-115486342D01*
X187541288Y-115463939D01*
X187541288Y-115463938D01*
X187538867Y-115451769D01*
X187494552Y-115385448D01*
X187428231Y-115341133D01*
X187416062Y-115338712D01*
X187416061Y-115338712D01*
X187375816Y-115330707D01*
X187369748Y-115329500D01*
X185630252Y-115329500D01*
X185624184Y-115330707D01*
X185583939Y-115338712D01*
X185583938Y-115338712D01*
X185571769Y-115341133D01*
X185505448Y-115385448D01*
X185461133Y-115451769D01*
X185458712Y-115463938D01*
X185458712Y-115463939D01*
X185454256Y-115486342D01*
X185449500Y-115510252D01*
X185449500Y-117249748D01*
X181574775Y-117249748D01*
X176117310Y-111792284D01*
X176109883Y-111784180D01*
X176092741Y-111763751D01*
X176092742Y-111763751D01*
X176085655Y-111755306D01*
X176076106Y-111749793D01*
X176053015Y-111736461D01*
X176043744Y-111730555D01*
X176021915Y-111715270D01*
X176012884Y-111708946D01*
X176002234Y-111706092D01*
X175999066Y-111704615D01*
X175995790Y-111703423D01*
X175986245Y-111697912D01*
X175952501Y-111691962D01*
X175949142Y-111691370D01*
X175938415Y-111688992D01*
X175902007Y-111679236D01*
X175891022Y-111680197D01*
X175891020Y-111680197D01*
X175864472Y-111682520D01*
X175853490Y-111683000D01*
X170131358Y-111683000D01*
X170063237Y-111662998D01*
X170016744Y-111609342D01*
X170005370Y-111555239D01*
X170005534Y-111543522D01*
X170005534Y-111543518D01*
X170005583Y-111540000D01*
X169985480Y-111334970D01*
X169925935Y-111137749D01*
X169829218Y-110955849D01*
X169734579Y-110839810D01*
X169702906Y-110800975D01*
X169702903Y-110800972D01*
X169699011Y-110796200D01*
X169670770Y-110772837D01*
X169545025Y-110668811D01*
X169545021Y-110668809D01*
X169540275Y-110664882D01*
X169359055Y-110566897D01*
X169291968Y-110546130D01*
X169232808Y-110506879D01*
X169204261Y-110441874D01*
X169215390Y-110371755D01*
X169223803Y-110358645D01*
X169223643Y-110358552D01*
X169229157Y-110349002D01*
X169236240Y-110340561D01*
X169240008Y-110330208D01*
X169240011Y-110330203D01*
X169242363Y-110323740D01*
X169251644Y-110303836D01*
X169255076Y-110297892D01*
X169260588Y-110288345D01*
X169262502Y-110277491D01*
X169262504Y-110277485D01*
X169263696Y-110270724D01*
X169269378Y-110249516D01*
X169271730Y-110243052D01*
X169275500Y-110232694D01*
X169275500Y-110090062D01*
X169295502Y-110021941D01*
X169344690Y-109977596D01*
X169510113Y-109894035D01*
X169510115Y-109894034D01*
X169515610Y-109891258D01*
X169677951Y-109764424D01*
X169722020Y-109713370D01*
X169808540Y-109613134D01*
X169808540Y-109613133D01*
X169812564Y-109608472D01*
X169833387Y-109571818D01*
X169897711Y-109458586D01*
X169914323Y-109429344D01*
X169979351Y-109233863D01*
X170005171Y-109029474D01*
X170005583Y-109000000D01*
X169985480Y-108794970D01*
X169925935Y-108597749D01*
X169829218Y-108415849D01*
X169751488Y-108320543D01*
X169702906Y-108260975D01*
X169702903Y-108260972D01*
X169699011Y-108256200D01*
X169684248Y-108243987D01*
X169545025Y-108128811D01*
X169545021Y-108128809D01*
X169540275Y-108124882D01*
X169359055Y-108026897D01*
X169291968Y-108006130D01*
X169232808Y-107966879D01*
X169204261Y-107901874D01*
X169215390Y-107831755D01*
X169223803Y-107818645D01*
X169223643Y-107818552D01*
X169229157Y-107809002D01*
X169236240Y-107800561D01*
X169240008Y-107790208D01*
X169240011Y-107790203D01*
X169242363Y-107783740D01*
X169251644Y-107763836D01*
X169255076Y-107757892D01*
X169260588Y-107748345D01*
X169262502Y-107737491D01*
X169262504Y-107737485D01*
X169263696Y-107730724D01*
X169269378Y-107709516D01*
X169271730Y-107703052D01*
X169275500Y-107692694D01*
X169275500Y-107550062D01*
X169295502Y-107481941D01*
X169344690Y-107437596D01*
X169510113Y-107354035D01*
X169510115Y-107354034D01*
X169515610Y-107351258D01*
X169527052Y-107342319D01*
X169635649Y-107257474D01*
X169677951Y-107224424D01*
X169739379Y-107153259D01*
X169808540Y-107073134D01*
X169808540Y-107073133D01*
X169812564Y-107068472D01*
X169833387Y-107031818D01*
X169882829Y-106944783D01*
X169914323Y-106889344D01*
X169979351Y-106693863D01*
X170005171Y-106489474D01*
X170005583Y-106460000D01*
X169985480Y-106254970D01*
X169925935Y-106057749D01*
X169829218Y-105875849D01*
X169747632Y-105775815D01*
X169702906Y-105720975D01*
X169702903Y-105720972D01*
X169699011Y-105716200D01*
X169681786Y-105701950D01*
X169545025Y-105588811D01*
X169545021Y-105588809D01*
X169540275Y-105584882D01*
X169359055Y-105486897D01*
X169162254Y-105425977D01*
X169156129Y-105425333D01*
X169156128Y-105425333D01*
X168963498Y-105405087D01*
X168963496Y-105405087D01*
X168957369Y-105404443D01*
X168870529Y-105412346D01*
X168758342Y-105422555D01*
X168758339Y-105422556D01*
X168752203Y-105423114D01*
X168554572Y-105481280D01*
X168372002Y-105576726D01*
X168367201Y-105580586D01*
X168367198Y-105580588D01*
X168274795Y-105654882D01*
X168211447Y-105705815D01*
X168079024Y-105863630D01*
X168076056Y-105869028D01*
X168076053Y-105869033D01*
X168027721Y-105956950D01*
X167979776Y-106044162D01*
X167917484Y-106240532D01*
X167916798Y-106246649D01*
X167916797Y-106246653D01*
X167908722Y-106318649D01*
X167894520Y-106445262D01*
X167911759Y-106650553D01*
X167913458Y-106656478D01*
X167937680Y-106740949D01*
X167968544Y-106848586D01*
X167971359Y-106854063D01*
X167971360Y-106854066D01*
X168059897Y-107026341D01*
X168062712Y-107031818D01*
X168190677Y-107193270D01*
X168195370Y-107197264D01*
X168195371Y-107197265D01*
X168288537Y-107276556D01*
X168327450Y-107335939D01*
X168328081Y-107406933D01*
X168295969Y-107461605D01*
X156952346Y-118805228D01*
X156890034Y-118839254D01*
X156819219Y-118834189D01*
X156765608Y-118795769D01*
X156667906Y-118675976D01*
X156667905Y-118675975D01*
X156664011Y-118671200D01*
X156588092Y-118608394D01*
X156510025Y-118543811D01*
X156510021Y-118543809D01*
X156505275Y-118539882D01*
X156324055Y-118441897D01*
X156318167Y-118440074D01*
X156317676Y-118439868D01*
X156262628Y-118395033D01*
X156240500Y-118323712D01*
X156240500Y-118182306D01*
X156234378Y-118165486D01*
X156228695Y-118144276D01*
X156227502Y-118137510D01*
X156225588Y-118126655D01*
X156216640Y-118111156D01*
X156207361Y-118091257D01*
X156201240Y-118074440D01*
X156194153Y-118065994D01*
X156188643Y-118056450D01*
X156191432Y-118054840D01*
X156170208Y-118006326D01*
X156181434Y-117936223D01*
X156228779Y-117883317D01*
X156261314Y-117869032D01*
X156290793Y-117860802D01*
X156290800Y-117860799D01*
X156296725Y-117859145D01*
X156302214Y-117856372D01*
X156302220Y-117856370D01*
X156475116Y-117769033D01*
X156480610Y-117766258D01*
X156642951Y-117639424D01*
X156651681Y-117629311D01*
X156773540Y-117488134D01*
X156773540Y-117488133D01*
X156777564Y-117483472D01*
X156798387Y-117446818D01*
X156833831Y-117384424D01*
X156879323Y-117304344D01*
X156944351Y-117108863D01*
X156970171Y-116904474D01*
X156970503Y-116880728D01*
X156970534Y-116878522D01*
X156970534Y-116878518D01*
X156970583Y-116875000D01*
X156950480Y-116669970D01*
X156890935Y-116472749D01*
X156794218Y-116290849D01*
X156719116Y-116198765D01*
X156667906Y-116135975D01*
X156667903Y-116135972D01*
X156664011Y-116131200D01*
X156646781Y-116116946D01*
X156510025Y-116003811D01*
X156510021Y-116003809D01*
X156505275Y-115999882D01*
X156324055Y-115901897D01*
X156318167Y-115900074D01*
X156317676Y-115899868D01*
X156262628Y-115855033D01*
X156240500Y-115783712D01*
X156240500Y-115642306D01*
X156234378Y-115625486D01*
X156228695Y-115604276D01*
X156227502Y-115597510D01*
X156225588Y-115586655D01*
X156216640Y-115571156D01*
X156207361Y-115551257D01*
X156201240Y-115534440D01*
X156194153Y-115525994D01*
X156188643Y-115516450D01*
X156191432Y-115514840D01*
X156170208Y-115466326D01*
X156181434Y-115396223D01*
X156228779Y-115343317D01*
X156261314Y-115329032D01*
X156290793Y-115320802D01*
X156290800Y-115320799D01*
X156296725Y-115319145D01*
X156302214Y-115316372D01*
X156302220Y-115316370D01*
X156475116Y-115229033D01*
X156480610Y-115226258D01*
X156485728Y-115222260D01*
X156579692Y-115148847D01*
X156642951Y-115099424D01*
X156647024Y-115094706D01*
X156773540Y-114948134D01*
X156773540Y-114948133D01*
X156777564Y-114943472D01*
X156787469Y-114926037D01*
X156876276Y-114769707D01*
X156879323Y-114764344D01*
X156944351Y-114568863D01*
X156970171Y-114364474D01*
X156970484Y-114342100D01*
X156970534Y-114338522D01*
X156970534Y-114338518D01*
X156970583Y-114335000D01*
X156950480Y-114129970D01*
X156890935Y-113932749D01*
X156794218Y-113750849D01*
X156720859Y-113660902D01*
X156667906Y-113595975D01*
X156667903Y-113595972D01*
X156664011Y-113591200D01*
X156577639Y-113519747D01*
X156537900Y-113460913D01*
X156536278Y-113389935D01*
X156568859Y-113333567D01*
X157306515Y-112595911D01*
X157314619Y-112588484D01*
X157335049Y-112571341D01*
X157343494Y-112564255D01*
X157360674Y-112534498D01*
X157362339Y-112531615D01*
X157368245Y-112522344D01*
X157378701Y-112507411D01*
X157389854Y-112491484D01*
X157392708Y-112480833D01*
X157394188Y-112477660D01*
X157395379Y-112474388D01*
X157400888Y-112464845D01*
X157407434Y-112427724D01*
X157409808Y-112417017D01*
X157419563Y-112380607D01*
X157417823Y-112360711D01*
X157416279Y-112343069D01*
X157415800Y-112332088D01*
X157415800Y-111694616D01*
X157435802Y-111626495D01*
X157452705Y-111605521D01*
X165152964Y-103905262D01*
X167894520Y-103905262D01*
X167911759Y-104110553D01*
X167913458Y-104116478D01*
X167937680Y-104200949D01*
X167968544Y-104308586D01*
X167971359Y-104314063D01*
X167971360Y-104314066D01*
X168026594Y-104421540D01*
X168062712Y-104491818D01*
X168190677Y-104653270D01*
X168195370Y-104657264D01*
X168195371Y-104657265D01*
X168337369Y-104778114D01*
X168347564Y-104786791D01*
X168352942Y-104789797D01*
X168352944Y-104789798D01*
X168381492Y-104805753D01*
X168527398Y-104887297D01*
X168620547Y-104917563D01*
X168717471Y-104949056D01*
X168717475Y-104949057D01*
X168723329Y-104950959D01*
X168927894Y-104975351D01*
X168934029Y-104974879D01*
X168934031Y-104974879D01*
X168990039Y-104970569D01*
X169133300Y-104959546D01*
X169139230Y-104957890D01*
X169139232Y-104957890D01*
X169302642Y-104912265D01*
X169331725Y-104904145D01*
X169337214Y-104901372D01*
X169337220Y-104901370D01*
X169469952Y-104834322D01*
X169515610Y-104811258D01*
X169540137Y-104792096D01*
X169673101Y-104688213D01*
X169677951Y-104684424D01*
X169739379Y-104613259D01*
X169808540Y-104533134D01*
X169808540Y-104533133D01*
X169812564Y-104528472D01*
X169833387Y-104491818D01*
X169880511Y-104408863D01*
X169914323Y-104349344D01*
X169979351Y-104153863D01*
X170005171Y-103949474D01*
X170005583Y-103920000D01*
X169985480Y-103714970D01*
X169925935Y-103517749D01*
X169829218Y-103335849D01*
X169712700Y-103192984D01*
X169702906Y-103180975D01*
X169702903Y-103180972D01*
X169699011Y-103176200D01*
X169671227Y-103153215D01*
X169545025Y-103048811D01*
X169545021Y-103048809D01*
X169540275Y-103044882D01*
X169370553Y-102953114D01*
X169364474Y-102949827D01*
X169359055Y-102946897D01*
X169162254Y-102885977D01*
X169156129Y-102885333D01*
X169156128Y-102885333D01*
X168963498Y-102865087D01*
X168963496Y-102865087D01*
X168957369Y-102864443D01*
X168870529Y-102872346D01*
X168758342Y-102882555D01*
X168758339Y-102882556D01*
X168752203Y-102883114D01*
X168554572Y-102941280D01*
X168372002Y-103036726D01*
X168367201Y-103040586D01*
X168367198Y-103040588D01*
X168222271Y-103157112D01*
X168211447Y-103165815D01*
X168079024Y-103323630D01*
X168076056Y-103329028D01*
X168076053Y-103329033D01*
X167999581Y-103468136D01*
X167979776Y-103504162D01*
X167917484Y-103700532D01*
X167916798Y-103706649D01*
X167916797Y-103706653D01*
X167901985Y-103838712D01*
X167894520Y-103905262D01*
X165152964Y-103905262D01*
X167686967Y-101371259D01*
X167749279Y-101337233D01*
X167820094Y-101342298D01*
X167876930Y-101384845D01*
X167901620Y-101449811D01*
X167911759Y-101570553D01*
X167913458Y-101576478D01*
X167937680Y-101660949D01*
X167968544Y-101768586D01*
X167971359Y-101774063D01*
X167971360Y-101774066D01*
X168026055Y-101880491D01*
X168062712Y-101951818D01*
X168190677Y-102113270D01*
X168195370Y-102117264D01*
X168195371Y-102117265D01*
X168337369Y-102238114D01*
X168347564Y-102246791D01*
X168352942Y-102249797D01*
X168352944Y-102249798D01*
X168384563Y-102267469D01*
X168527398Y-102347297D01*
X168622238Y-102378113D01*
X168717471Y-102409056D01*
X168717475Y-102409057D01*
X168723329Y-102410959D01*
X168927894Y-102435351D01*
X168934029Y-102434879D01*
X168934031Y-102434879D01*
X168990039Y-102430569D01*
X169133300Y-102419546D01*
X169139230Y-102417890D01*
X169139232Y-102417890D01*
X169268191Y-102381884D01*
X169331725Y-102364145D01*
X169337214Y-102361372D01*
X169337220Y-102361370D01*
X169510116Y-102274033D01*
X169515610Y-102271258D01*
X169536470Y-102254961D01*
X169628230Y-102183270D01*
X169677951Y-102144424D01*
X169684882Y-102136395D01*
X169808540Y-101993134D01*
X169808540Y-101993133D01*
X169812564Y-101988472D01*
X169833387Y-101951818D01*
X169874557Y-101879344D01*
X169914323Y-101809344D01*
X169979351Y-101613863D01*
X170005171Y-101409474D01*
X170005583Y-101380000D01*
X169985480Y-101174970D01*
X169925935Y-100977749D01*
X169829218Y-100795849D01*
X169744480Y-100691950D01*
X169702906Y-100640975D01*
X169702903Y-100640972D01*
X169699011Y-100636200D01*
X169694262Y-100632271D01*
X169545025Y-100508811D01*
X169545021Y-100508809D01*
X169540275Y-100504882D01*
X169359055Y-100406897D01*
X169291968Y-100386130D01*
X169232808Y-100346879D01*
X169204261Y-100281874D01*
X169215390Y-100211755D01*
X169223803Y-100198645D01*
X169223643Y-100198552D01*
X169229157Y-100189002D01*
X169236240Y-100180561D01*
X169240008Y-100170208D01*
X169240011Y-100170203D01*
X169242363Y-100163740D01*
X169251644Y-100143836D01*
X169255076Y-100137892D01*
X169260588Y-100128345D01*
X169262502Y-100117491D01*
X169262504Y-100117485D01*
X169263696Y-100110724D01*
X169269378Y-100089516D01*
X169271730Y-100083052D01*
X169275500Y-100072694D01*
X169275500Y-99930062D01*
X169295502Y-99861941D01*
X169344690Y-99817596D01*
X169510113Y-99734035D01*
X169510115Y-99734034D01*
X169515610Y-99731258D01*
X169527445Y-99722012D01*
X169628230Y-99643270D01*
X169677951Y-99604424D01*
X169742445Y-99529707D01*
X169808540Y-99453134D01*
X169808540Y-99453133D01*
X169812564Y-99448472D01*
X169817583Y-99439638D01*
X169882344Y-99325637D01*
X169914323Y-99269344D01*
X169979351Y-99073863D01*
X170005171Y-98869474D01*
X170005583Y-98840000D01*
X169985480Y-98634970D01*
X169925935Y-98437749D01*
X169829218Y-98255849D01*
X169747632Y-98155815D01*
X169702906Y-98100975D01*
X169702903Y-98100972D01*
X169699011Y-98096200D01*
X169688312Y-98087349D01*
X169545025Y-97968811D01*
X169545021Y-97968809D01*
X169540275Y-97964882D01*
X169369018Y-97872284D01*
X169364474Y-97869827D01*
X169359055Y-97866897D01*
X169291968Y-97846130D01*
X169232808Y-97806879D01*
X169204261Y-97741874D01*
X169215390Y-97671755D01*
X169223803Y-97658645D01*
X169223643Y-97658552D01*
X169229157Y-97649002D01*
X169236240Y-97640561D01*
X169240008Y-97630208D01*
X169240011Y-97630203D01*
X169242363Y-97623740D01*
X169251644Y-97603836D01*
X169252304Y-97602694D01*
X169260588Y-97588345D01*
X169262502Y-97577491D01*
X169262504Y-97577485D01*
X169263696Y-97570724D01*
X169269378Y-97549516D01*
X169271730Y-97543052D01*
X169275500Y-97532694D01*
X169275500Y-97390062D01*
X169295502Y-97321941D01*
X169344690Y-97277596D01*
X169510113Y-97194035D01*
X169510115Y-97194034D01*
X169515610Y-97191258D01*
X169531624Y-97178747D01*
X169628230Y-97103270D01*
X169677951Y-97064424D01*
X169709654Y-97027696D01*
X169808540Y-96913134D01*
X169808540Y-96913133D01*
X169812564Y-96908472D01*
X169825539Y-96885633D01*
X169882260Y-96785785D01*
X169914323Y-96729344D01*
X169979351Y-96533863D01*
X170005171Y-96329474D01*
X170005583Y-96300000D01*
X169985480Y-96094970D01*
X169925935Y-95897749D01*
X169829218Y-95715849D01*
X169747632Y-95615815D01*
X169702906Y-95560975D01*
X169702903Y-95560972D01*
X169699011Y-95556200D01*
X169688312Y-95547349D01*
X169545025Y-95428811D01*
X169545021Y-95428809D01*
X169540275Y-95424882D01*
X169359055Y-95326897D01*
X169291968Y-95306130D01*
X169232808Y-95266879D01*
X169204261Y-95201874D01*
X169215390Y-95131755D01*
X169223803Y-95118645D01*
X169223643Y-95118552D01*
X169229157Y-95109002D01*
X169236240Y-95100561D01*
X169240008Y-95090208D01*
X169240011Y-95090203D01*
X169242363Y-95083740D01*
X169251644Y-95063836D01*
X169255076Y-95057892D01*
X169260588Y-95048345D01*
X169262502Y-95037491D01*
X169262504Y-95037485D01*
X169263696Y-95030724D01*
X169269378Y-95009516D01*
X169271730Y-95003052D01*
X169275500Y-94992694D01*
X169275500Y-94850062D01*
X169295502Y-94781941D01*
X169344690Y-94737596D01*
X169510113Y-94654035D01*
X169510115Y-94654034D01*
X169515610Y-94651258D01*
X169531564Y-94638794D01*
X169628230Y-94563270D01*
X169677951Y-94524424D01*
X169684643Y-94516672D01*
X169808540Y-94373134D01*
X169808540Y-94373133D01*
X169812564Y-94368472D01*
X169833387Y-94331818D01*
X169880511Y-94248863D01*
X169914323Y-94189344D01*
X169979351Y-93993863D01*
X170005171Y-93789474D01*
X170005583Y-93760000D01*
X169985480Y-93554970D01*
X169925935Y-93357749D01*
X169829218Y-93175849D01*
X169713969Y-93034540D01*
X169702906Y-93020975D01*
X169702903Y-93020972D01*
X169699011Y-93016200D01*
X169694262Y-93012271D01*
X169545025Y-92888811D01*
X169545021Y-92888809D01*
X169540275Y-92884882D01*
X169359055Y-92786897D01*
X169291968Y-92766130D01*
X169232808Y-92726879D01*
X169204261Y-92661874D01*
X169215390Y-92591755D01*
X169223803Y-92578645D01*
X169223643Y-92578552D01*
X169229157Y-92569002D01*
X169236240Y-92560561D01*
X169240008Y-92550208D01*
X169240011Y-92550203D01*
X169242363Y-92543740D01*
X169251644Y-92523836D01*
X169255076Y-92517892D01*
X169260588Y-92508345D01*
X169262502Y-92497491D01*
X169262504Y-92497485D01*
X169263696Y-92490724D01*
X169269378Y-92469516D01*
X169271730Y-92463052D01*
X169275500Y-92452694D01*
X169275500Y-92310062D01*
X169295502Y-92241941D01*
X169344690Y-92197596D01*
X169510113Y-92114035D01*
X169510115Y-92114034D01*
X169515610Y-92111258D01*
X169677951Y-91984424D01*
X169779614Y-91866646D01*
X169808540Y-91833134D01*
X169808540Y-91833133D01*
X169812564Y-91828472D01*
X169833387Y-91791818D01*
X169897711Y-91678586D01*
X169914323Y-91649344D01*
X169979351Y-91453863D01*
X170005171Y-91249474D01*
X170005583Y-91220000D01*
X169985480Y-91014970D01*
X169925935Y-90817749D01*
X169829218Y-90635849D01*
X169706554Y-90485448D01*
X169702906Y-90480975D01*
X169702903Y-90480972D01*
X169699011Y-90476200D01*
X169692173Y-90470543D01*
X169545025Y-90348811D01*
X169545021Y-90348809D01*
X169540275Y-90344882D01*
X169359055Y-90246897D01*
X169308183Y-90231150D01*
X169249025Y-90191899D01*
X169220477Y-90126895D01*
X169231605Y-90056776D01*
X169278876Y-90003804D01*
X169309235Y-89990099D01*
X169442255Y-89950191D01*
X169451842Y-89946433D01*
X169643095Y-89852739D01*
X169651945Y-89847464D01*
X169825328Y-89723792D01*
X169833200Y-89717139D01*
X169984052Y-89566812D01*
X169990730Y-89558965D01*
X170115003Y-89386020D01*
X170120313Y-89377183D01*
X170214670Y-89186267D01*
X170218469Y-89176672D01*
X170280377Y-88972910D01*
X170282555Y-88962837D01*
X170283986Y-88951962D01*
X170281775Y-88937778D01*
X170268617Y-88934000D01*
X167633225Y-88934000D01*
X167619694Y-88937973D01*
X167618257Y-88947966D01*
X167648565Y-89082446D01*
X167651645Y-89092275D01*
X167731770Y-89289603D01*
X167736413Y-89298794D01*
X167847694Y-89480388D01*
X167853777Y-89488699D01*
X167993213Y-89649667D01*
X168000580Y-89656883D01*
X168164434Y-89792916D01*
X168172881Y-89798831D01*
X168356756Y-89906279D01*
X168366042Y-89910729D01*
X168565001Y-89986703D01*
X168579866Y-89991022D01*
X168579289Y-89993008D01*
X168634260Y-90022082D01*
X168669110Y-90083936D01*
X168664988Y-90154813D01*
X168623201Y-90212209D01*
X168581930Y-90233228D01*
X168560489Y-90239538D01*
X168560484Y-90239540D01*
X168554572Y-90241280D01*
X168372002Y-90336726D01*
X168367201Y-90340586D01*
X168367198Y-90340588D01*
X168251375Y-90433712D01*
X168211447Y-90465815D01*
X168079024Y-90623630D01*
X168076056Y-90629028D01*
X168076053Y-90629033D01*
X168069315Y-90641290D01*
X167979776Y-90804162D01*
X167917484Y-91000532D01*
X167916798Y-91006649D01*
X167916797Y-91006653D01*
X167903146Y-91128359D01*
X167894520Y-91205262D01*
X167911759Y-91410553D01*
X167968544Y-91608586D01*
X167971359Y-91614063D01*
X167971360Y-91614066D01*
X168028222Y-91724707D01*
X168062712Y-91791818D01*
X168190677Y-91953270D01*
X168195370Y-91957264D01*
X168195371Y-91957265D01*
X168288537Y-92036556D01*
X168327450Y-92095939D01*
X168328081Y-92166933D01*
X168295969Y-92221605D01*
X167558485Y-92959089D01*
X167550381Y-92966516D01*
X167546337Y-92969909D01*
X167521506Y-92990745D01*
X167515993Y-93000294D01*
X167502661Y-93023385D01*
X167496755Y-93032656D01*
X167475146Y-93063516D01*
X167472292Y-93074166D01*
X167470815Y-93077334D01*
X167469623Y-93080610D01*
X167464112Y-93090155D01*
X167458162Y-93123899D01*
X167457570Y-93127258D01*
X167455192Y-93137985D01*
X167445436Y-93174393D01*
X167446397Y-93185378D01*
X167446397Y-93185380D01*
X167448720Y-93211928D01*
X167449200Y-93222910D01*
X167449200Y-93860284D01*
X167429198Y-93928405D01*
X167412295Y-93949379D01*
X161066131Y-100295543D01*
X161003819Y-100329569D01*
X160933004Y-100324504D01*
X160876168Y-100281957D01*
X160852114Y-100222895D01*
X160836122Y-100101426D01*
X160835044Y-100093238D01*
X160774536Y-99947159D01*
X160678282Y-99821718D01*
X160552841Y-99725464D01*
X160406762Y-99664956D01*
X160250000Y-99644318D01*
X160183159Y-99653118D01*
X160113011Y-99642179D01*
X160077618Y-99617291D01*
X157974110Y-97513784D01*
X157966683Y-97505680D01*
X157949541Y-97485251D01*
X157949542Y-97485251D01*
X157942455Y-97476806D01*
X157924381Y-97466371D01*
X157909815Y-97457961D01*
X157900544Y-97452055D01*
X157878715Y-97436770D01*
X157869684Y-97430446D01*
X157859034Y-97427592D01*
X157855866Y-97426115D01*
X157852590Y-97424923D01*
X157843045Y-97419412D01*
X157809301Y-97413462D01*
X157805942Y-97412870D01*
X157795215Y-97410492D01*
X157758807Y-97400736D01*
X157747822Y-97401697D01*
X157747820Y-97401697D01*
X157721272Y-97404020D01*
X157710290Y-97404500D01*
X156844723Y-97404500D01*
X156776602Y-97384498D01*
X156730109Y-97330842D01*
X156720005Y-97260568D01*
X156749341Y-97196169D01*
X156773540Y-97168134D01*
X156773540Y-97168133D01*
X156777564Y-97163472D01*
X156783797Y-97152501D01*
X156833831Y-97064424D01*
X156879323Y-96984344D01*
X156944351Y-96788863D01*
X156970171Y-96584474D01*
X156970464Y-96563522D01*
X156970534Y-96558522D01*
X156970534Y-96558518D01*
X156970583Y-96555000D01*
X156950480Y-96349970D01*
X156890935Y-96152749D01*
X156794218Y-95970849D01*
X156695235Y-95849484D01*
X156667906Y-95815975D01*
X156667903Y-95815972D01*
X156664011Y-95811200D01*
X156659262Y-95807271D01*
X156510025Y-95683811D01*
X156510021Y-95683809D01*
X156505275Y-95679882D01*
X156324055Y-95581897D01*
X156127254Y-95520977D01*
X156121129Y-95520333D01*
X156121128Y-95520333D01*
X155928498Y-95500087D01*
X155928496Y-95500087D01*
X155922369Y-95499443D01*
X155835529Y-95507346D01*
X155723342Y-95517555D01*
X155723339Y-95517556D01*
X155717203Y-95518114D01*
X155519572Y-95576280D01*
X155337002Y-95671726D01*
X155332201Y-95675586D01*
X155332198Y-95675588D01*
X155203538Y-95779033D01*
X155176447Y-95800815D01*
X155044024Y-95958630D01*
X155041056Y-95964028D01*
X155041053Y-95964033D01*
X154972315Y-96089068D01*
X154944776Y-96139162D01*
X154882484Y-96335532D01*
X154881798Y-96341649D01*
X154881797Y-96341653D01*
X154864431Y-96496478D01*
X154859520Y-96540262D01*
X154863404Y-96586513D01*
X154876070Y-96737343D01*
X154876759Y-96745553D01*
X154878849Y-96752841D01*
X154931467Y-96936341D01*
X154933544Y-96943586D01*
X154936359Y-96949063D01*
X154936360Y-96949066D01*
X155022589Y-97116850D01*
X155027712Y-97126818D01*
X155036744Y-97138213D01*
X155085902Y-97200236D01*
X155112539Y-97266046D01*
X155099368Y-97335810D01*
X155050571Y-97387379D01*
X154987156Y-97404500D01*
X151080428Y-97404500D01*
X151012307Y-97384498D01*
X150965814Y-97330842D01*
X150954428Y-97278500D01*
X150954428Y-97219611D01*
X150955975Y-97201086D01*
X150955871Y-97201073D01*
X150956171Y-97198741D01*
X150956174Y-97198708D01*
X150956180Y-97198670D01*
X150956586Y-97196258D01*
X150959404Y-97164843D01*
X150959555Y-97152501D01*
X150957505Y-97121019D01*
X150952353Y-97085044D01*
X150937838Y-96983687D01*
X150937837Y-96983681D01*
X150937201Y-96979242D01*
X150934751Y-96970861D01*
X150922191Y-96927912D01*
X150920933Y-96923610D01*
X150911799Y-96903520D01*
X150900500Y-96851370D01*
X150900500Y-86334004D01*
X150920502Y-86265883D01*
X150948893Y-86235834D01*
X150948476Y-86235338D01*
X151054679Y-86146066D01*
X151054680Y-86146065D01*
X151058111Y-86143181D01*
X151072398Y-86127202D01*
X151093753Y-86103318D01*
X151093757Y-86103313D01*
X151096745Y-86099971D01*
X151105726Y-86086479D01*
X151173623Y-85984480D01*
X151173626Y-85984474D01*
X151176108Y-85980746D01*
X151201061Y-85928431D01*
X151243771Y-85791725D01*
X151245800Y-85779201D01*
X151252321Y-85738935D01*
X151253038Y-85734510D01*
X151255663Y-85591311D01*
X151255110Y-85586870D01*
X151254873Y-85582387D01*
X151254974Y-85582382D01*
X151254428Y-85573578D01*
X151254428Y-85150000D01*
X151252833Y-85141979D01*
X151241288Y-85083939D01*
X151241288Y-85083938D01*
X151238867Y-85071769D01*
X151231974Y-85061453D01*
X151227223Y-85049983D01*
X151230937Y-85048445D01*
X151216472Y-85002249D01*
X151231312Y-84951711D01*
X151227223Y-84950017D01*
X151231974Y-84938547D01*
X151238867Y-84928231D01*
X151254428Y-84850000D01*
X151254428Y-84359845D01*
X151254449Y-84357536D01*
X151255581Y-84295784D01*
X151255663Y-84291311D01*
X151248498Y-84233792D01*
X151210825Y-84095612D01*
X151200164Y-84070975D01*
X151189587Y-84046534D01*
X151189585Y-84046531D01*
X151187806Y-84042419D01*
X151112866Y-83920367D01*
X151110002Y-83916917D01*
X151078705Y-83879219D01*
X151078703Y-83879217D01*
X151075843Y-83875772D01*
X150969659Y-83779658D01*
X150933105Y-83755002D01*
X150925322Y-83749752D01*
X150925320Y-83749751D01*
X150921605Y-83747245D01*
X150792713Y-83684798D01*
X150737496Y-83667176D01*
X150596258Y-83643414D01*
X150593835Y-83643197D01*
X150593830Y-83643196D01*
X150580550Y-83642005D01*
X150564843Y-83640596D01*
X150562419Y-83640566D01*
X150562412Y-83640566D01*
X150559327Y-83640529D01*
X150552501Y-83640445D01*
X150521019Y-83642495D01*
X150514059Y-83643492D01*
X150443791Y-83633353D01*
X150407096Y-83607861D01*
X147438297Y-80639062D01*
X147427429Y-80626671D01*
X147413305Y-80608264D01*
X147408282Y-80601718D01*
X147282841Y-80505464D01*
X147136762Y-80444956D01*
X147019361Y-80429500D01*
X146980000Y-80424318D01*
X146971812Y-80425396D01*
X146948827Y-80428422D01*
X146932381Y-80429500D01*
X137606500Y-80429500D01*
X137538379Y-80409498D01*
X137491886Y-80355842D01*
X137480500Y-80303500D01*
X137480500Y-80160252D01*
X137468867Y-80101769D01*
X137424552Y-80035448D01*
X137374782Y-80002192D01*
X137368547Y-79998026D01*
X137358231Y-79991133D01*
X137346062Y-79988712D01*
X137346061Y-79988712D01*
X137305816Y-79980707D01*
X137299748Y-79979500D01*
X135560252Y-79979500D01*
X135554184Y-79980707D01*
X135513939Y-79988712D01*
X135513938Y-79988712D01*
X135501769Y-79991133D01*
X135495974Y-79995005D01*
X135429127Y-80002192D01*
X135365640Y-79970412D01*
X135329414Y-79909353D01*
X135325500Y-79878194D01*
X135325500Y-79540570D01*
X135345502Y-79472449D01*
X135362405Y-79451475D01*
X135545208Y-79268672D01*
X135607520Y-79234646D01*
X135678335Y-79239711D01*
X135715963Y-79261811D01*
X135827564Y-79356791D01*
X136007398Y-79457297D01*
X136064960Y-79476000D01*
X136197471Y-79519056D01*
X136197475Y-79519057D01*
X136203329Y-79520959D01*
X136407894Y-79545351D01*
X136414029Y-79544879D01*
X136414031Y-79544879D01*
X136470039Y-79540569D01*
X136613300Y-79529546D01*
X136619230Y-79527890D01*
X136619232Y-79527890D01*
X136805797Y-79475800D01*
X136805796Y-79475800D01*
X136811725Y-79474145D01*
X136817214Y-79471372D01*
X136817220Y-79471370D01*
X136990116Y-79384033D01*
X136995610Y-79381258D01*
X137157951Y-79254424D01*
X137168838Y-79241812D01*
X137288540Y-79103134D01*
X137288540Y-79103133D01*
X137292564Y-79098472D01*
X137296915Y-79090814D01*
X137367025Y-78967397D01*
X137394323Y-78919344D01*
X137459351Y-78723863D01*
X137485171Y-78519474D01*
X137485583Y-78490000D01*
X137465480Y-78284970D01*
X137405935Y-78087749D01*
X137309218Y-77905849D01*
X137222566Y-77799603D01*
X137182906Y-77750975D01*
X137182903Y-77750972D01*
X137179011Y-77746200D01*
X137119760Y-77697183D01*
X137025025Y-77618811D01*
X137025021Y-77618809D01*
X137020275Y-77614882D01*
X136839055Y-77516897D01*
X136788183Y-77501150D01*
X136729025Y-77461899D01*
X136700477Y-77396895D01*
X136711605Y-77326776D01*
X136758876Y-77273804D01*
X136789235Y-77260099D01*
X136922255Y-77220191D01*
X136931842Y-77216433D01*
X137123095Y-77122739D01*
X137131945Y-77117464D01*
X137305328Y-76993792D01*
X137313200Y-76987139D01*
X137464052Y-76836812D01*
X137470730Y-76828965D01*
X137595003Y-76656020D01*
X137600313Y-76647183D01*
X137694670Y-76456267D01*
X137698469Y-76446672D01*
X137760377Y-76242910D01*
X137762555Y-76232837D01*
X137763986Y-76221962D01*
X137761775Y-76207778D01*
X137748617Y-76204000D01*
X135113225Y-76204000D01*
X135099694Y-76207973D01*
X135098257Y-76217966D01*
X135128565Y-76352446D01*
X135131645Y-76362275D01*
X135211770Y-76559603D01*
X135216413Y-76568794D01*
X135327694Y-76750388D01*
X135333777Y-76758699D01*
X135473213Y-76919667D01*
X135480580Y-76926883D01*
X135644434Y-77062916D01*
X135652881Y-77068831D01*
X135836756Y-77176279D01*
X135846042Y-77180729D01*
X136045001Y-77256703D01*
X136059866Y-77261022D01*
X136059289Y-77263008D01*
X136114260Y-77292082D01*
X136149110Y-77353936D01*
X136144988Y-77424813D01*
X136103201Y-77482209D01*
X136061930Y-77503228D01*
X136040489Y-77509538D01*
X136040484Y-77509540D01*
X136034572Y-77511280D01*
X135852002Y-77606726D01*
X135847201Y-77610586D01*
X135847198Y-77610588D01*
X135696254Y-77731950D01*
X135691447Y-77735815D01*
X135687480Y-77740543D01*
X135581605Y-77866719D01*
X135522496Y-77906046D01*
X135501529Y-77910650D01*
X135472291Y-77914499D01*
X135472282Y-77914500D01*
X135472280Y-77914500D01*
X135359764Y-77929313D01*
X135219767Y-77987302D01*
X135129732Y-78056388D01*
X135129729Y-78056391D01*
X135099549Y-78079549D01*
X135094523Y-78086099D01*
X135081417Y-78103179D01*
X135070550Y-78115570D01*
X134375570Y-78810550D01*
X134363179Y-78821417D01*
X134339549Y-78839549D01*
X134334523Y-78846099D01*
X134317168Y-78868717D01*
X134316391Y-78869729D01*
X134316388Y-78869732D01*
X134292817Y-78900451D01*
X134247302Y-78959767D01*
X134189313Y-79099764D01*
X134174500Y-79212280D01*
X134174500Y-79212286D01*
X134169535Y-79250000D01*
X134170613Y-79258188D01*
X134170613Y-79258189D01*
X134173422Y-79279526D01*
X134174500Y-79295972D01*
X134174500Y-84704028D01*
X134173422Y-84720474D01*
X134169535Y-84750000D01*
X134174500Y-84787714D01*
X134174500Y-84787720D01*
X134189313Y-84900236D01*
X134240305Y-85023340D01*
X134247302Y-85040233D01*
X134316388Y-85130268D01*
X134316391Y-85130271D01*
X134339549Y-85160451D01*
X134346099Y-85165477D01*
X134363179Y-85178583D01*
X134375570Y-85189450D01*
X135755132Y-86569012D01*
X135758403Y-86571522D01*
X135760086Y-86572998D01*
X135776964Y-86591019D01*
X135783861Y-86600007D01*
X135809463Y-86666227D01*
X135809900Y-86676713D01*
X135809900Y-90298500D01*
X135789898Y-90366621D01*
X135736242Y-90413114D01*
X135683900Y-90424500D01*
X134090252Y-90424500D01*
X134084184Y-90425707D01*
X134043939Y-90433712D01*
X134043938Y-90433712D01*
X134031769Y-90436133D01*
X133965448Y-90480448D01*
X133921133Y-90546769D01*
X133909500Y-90605252D01*
X133909500Y-92344748D01*
X133910707Y-92350816D01*
X133916167Y-92378263D01*
X133921133Y-92403231D01*
X133965448Y-92469552D01*
X134031769Y-92513867D01*
X134036578Y-92514824D01*
X134087811Y-92556111D01*
X134110232Y-92623474D01*
X134092673Y-92692266D01*
X134073407Y-92717066D01*
X133092584Y-93697890D01*
X133084481Y-93705316D01*
X133055606Y-93729545D01*
X133050093Y-93739094D01*
X133036761Y-93762185D01*
X133030855Y-93771456D01*
X133009246Y-93802316D01*
X133006392Y-93812966D01*
X133004915Y-93816134D01*
X133003723Y-93819410D01*
X132998212Y-93828955D01*
X132992831Y-93859474D01*
X132991670Y-93866058D01*
X132989292Y-93876785D01*
X132979536Y-93913193D01*
X132980497Y-93924178D01*
X132980497Y-93924180D01*
X132982820Y-93950728D01*
X132983300Y-93961710D01*
X132983300Y-121946290D01*
X132982820Y-121957272D01*
X132982015Y-121966478D01*
X132979536Y-121994807D01*
X132454440Y-121994807D01*
X132349536Y-75684183D01*
X135094389Y-75684183D01*
X135095912Y-75692607D01*
X135108292Y-75696000D01*
X137748344Y-75696000D01*
X137761875Y-75692027D01*
X137763180Y-75682947D01*
X137721214Y-75515875D01*
X137717894Y-75506124D01*
X137632972Y-75310814D01*
X137628105Y-75301739D01*
X137512426Y-75122926D01*
X137506136Y-75114757D01*
X137362806Y-74957240D01*
X137355273Y-74950215D01*
X137188139Y-74818222D01*
X137179552Y-74812517D01*
X136993117Y-74709599D01*
X136983705Y-74705369D01*
X136792031Y-74637493D01*
X136734495Y-74595899D01*
X136708579Y-74529801D01*
X136722513Y-74460185D01*
X136771872Y-74409154D01*
X136800206Y-74397362D01*
X136805790Y-74395803D01*
X136805799Y-74395800D01*
X136811725Y-74394145D01*
X136817214Y-74391372D01*
X136817220Y-74391370D01*
X136990116Y-74304033D01*
X136995610Y-74301258D01*
X137157951Y-74174424D01*
X137231255Y-74089500D01*
X137261751Y-74054170D01*
X137321404Y-74015672D01*
X137357133Y-74010500D01*
X142709075Y-74010500D01*
X142777196Y-74030502D01*
X142798170Y-74047405D01*
X152162595Y-83411830D01*
X152196621Y-83474142D01*
X152199500Y-83500925D01*
X152199500Y-83665672D01*
X152179498Y-83733793D01*
X152148755Y-83766730D01*
X152148183Y-83767156D01*
X152144402Y-83769574D01*
X152137718Y-83775333D01*
X152069473Y-83834137D01*
X152035901Y-83863064D01*
X152032962Y-83866433D01*
X152032958Y-83866437D01*
X152021808Y-83879219D01*
X151997798Y-83906742D01*
X151919898Y-84026927D01*
X151895586Y-84079545D01*
X151894301Y-84083843D01*
X151894298Y-84083850D01*
X151862704Y-84189498D01*
X151854550Y-84216763D01*
X151845983Y-84274086D01*
X151845837Y-84298034D01*
X151845214Y-84400035D01*
X151845108Y-84417307D01*
X151845447Y-84419780D01*
X151845572Y-84423635D01*
X151845572Y-84850000D01*
X151861133Y-84928231D01*
X151868026Y-84938547D01*
X151872777Y-84950017D01*
X151869063Y-84951555D01*
X151883528Y-84997751D01*
X151868688Y-85048289D01*
X151872777Y-85049983D01*
X151868026Y-85061453D01*
X151861133Y-85071769D01*
X151858712Y-85083938D01*
X151858712Y-85083939D01*
X151847167Y-85141979D01*
X151845572Y-85150000D01*
X151845572Y-85640916D01*
X151845570Y-85641686D01*
X151845173Y-85706695D01*
X151845108Y-85717307D01*
X151852974Y-85774732D01*
X151854205Y-85779039D01*
X151854206Y-85779044D01*
X151868273Y-85828264D01*
X151892331Y-85912441D01*
X151915999Y-85965351D01*
X151918385Y-85969133D01*
X151918389Y-85969140D01*
X151928068Y-85984480D01*
X151992425Y-86086479D01*
X152029992Y-86130620D01*
X152137343Y-86225428D01*
X152142676Y-86228931D01*
X152143085Y-86229412D01*
X152144650Y-86230608D01*
X152144390Y-86230949D01*
X152188630Y-86283047D01*
X152199500Y-86334243D01*
X152199500Y-96234779D01*
X152189910Y-96282995D01*
X152164956Y-96343238D01*
X152163878Y-96351426D01*
X152157552Y-96399474D01*
X152144318Y-96500000D01*
X152164956Y-96656762D01*
X152225464Y-96802841D01*
X152287208Y-96883307D01*
X152316694Y-96921734D01*
X152321718Y-96928282D01*
X152328264Y-96933305D01*
X152341663Y-96943586D01*
X152447159Y-97024536D01*
X152593238Y-97085044D01*
X152750000Y-97105682D01*
X152758188Y-97104604D01*
X152898574Y-97086122D01*
X152906762Y-97085044D01*
X153052841Y-97024536D01*
X153158337Y-96943586D01*
X153171736Y-96933305D01*
X153178282Y-96928282D01*
X153184855Y-96919717D01*
X153189892Y-96913152D01*
X153213152Y-96889892D01*
X153221734Y-96883307D01*
X153221736Y-96883305D01*
X153228282Y-96878282D01*
X153324536Y-96752841D01*
X153385044Y-96606762D01*
X153386859Y-96592978D01*
X153399099Y-96500001D01*
X153399099Y-96500000D01*
X153404604Y-96458188D01*
X153405682Y-96450000D01*
X153401578Y-96418827D01*
X153400500Y-96402381D01*
X153400500Y-94000262D01*
X154859520Y-94000262D01*
X154876759Y-94205553D01*
X154880496Y-94218586D01*
X154931467Y-94396341D01*
X154933544Y-94403586D01*
X154936359Y-94409063D01*
X154936360Y-94409066D01*
X154996593Y-94526267D01*
X155027712Y-94586818D01*
X155155677Y-94748270D01*
X155160370Y-94752264D01*
X155160371Y-94752265D01*
X155292190Y-94864451D01*
X155312564Y-94881791D01*
X155317942Y-94884797D01*
X155317944Y-94884798D01*
X155394095Y-94927357D01*
X155492398Y-94982297D01*
X155576169Y-95009516D01*
X155682471Y-95044056D01*
X155682475Y-95044057D01*
X155688329Y-95045959D01*
X155892894Y-95070351D01*
X155899029Y-95069879D01*
X155899031Y-95069879D01*
X155955039Y-95065569D01*
X156098300Y-95054546D01*
X156104230Y-95052890D01*
X156104232Y-95052890D01*
X156244068Y-95013847D01*
X156296725Y-94999145D01*
X156302214Y-94996372D01*
X156302220Y-94996370D01*
X156457640Y-94917861D01*
X156480610Y-94906258D01*
X156501095Y-94890254D01*
X156574690Y-94832755D01*
X156642951Y-94779424D01*
X156654009Y-94766614D01*
X156773540Y-94628134D01*
X156773540Y-94628133D01*
X156777564Y-94623472D01*
X156798387Y-94586818D01*
X156848085Y-94499333D01*
X156879323Y-94444344D01*
X156944351Y-94248863D01*
X156970171Y-94044474D01*
X156970423Y-94026478D01*
X156970534Y-94018522D01*
X156970534Y-94018518D01*
X156970583Y-94015000D01*
X156950480Y-93809970D01*
X156890935Y-93612749D01*
X156794218Y-93430849D01*
X156720859Y-93340902D01*
X156667906Y-93275975D01*
X156667903Y-93275972D01*
X156664011Y-93271200D01*
X156612883Y-93228903D01*
X156510025Y-93143811D01*
X156510021Y-93143809D01*
X156505275Y-93139882D01*
X156324055Y-93041897D01*
X156127254Y-92980977D01*
X156121129Y-92980333D01*
X156121128Y-92980333D01*
X155928498Y-92960087D01*
X155928496Y-92960087D01*
X155922369Y-92959443D01*
X155835529Y-92967346D01*
X155723342Y-92977555D01*
X155723339Y-92977556D01*
X155717203Y-92978114D01*
X155519572Y-93036280D01*
X155337002Y-93131726D01*
X155332201Y-93135586D01*
X155332198Y-93135588D01*
X155210258Y-93233630D01*
X155176447Y-93260815D01*
X155044024Y-93418630D01*
X155041056Y-93424028D01*
X155041053Y-93424033D01*
X154969071Y-93554970D01*
X154944776Y-93599162D01*
X154882484Y-93795532D01*
X154881798Y-93801649D01*
X154881797Y-93801653D01*
X154868054Y-93924180D01*
X154859520Y-94000262D01*
X153400500Y-94000262D01*
X153400500Y-92344748D01*
X154864500Y-92344748D01*
X154865707Y-92350816D01*
X154871167Y-92378263D01*
X154876133Y-92403231D01*
X154920448Y-92469552D01*
X154986769Y-92513867D01*
X154998938Y-92516288D01*
X154998939Y-92516288D01*
X155039184Y-92524293D01*
X155045252Y-92525500D01*
X156784748Y-92525500D01*
X156790816Y-92524293D01*
X156831061Y-92516288D01*
X156831062Y-92516288D01*
X156843231Y-92513867D01*
X156909552Y-92469552D01*
X156953867Y-92403231D01*
X156958834Y-92378263D01*
X156964293Y-92350816D01*
X156965500Y-92344748D01*
X156965500Y-90605252D01*
X156953867Y-90546769D01*
X156909552Y-90480448D01*
X156843231Y-90436133D01*
X156831062Y-90433712D01*
X156831061Y-90433712D01*
X156790816Y-90425707D01*
X156784748Y-90424500D01*
X155045252Y-90424500D01*
X155039184Y-90425707D01*
X154998939Y-90433712D01*
X154998938Y-90433712D01*
X154986769Y-90436133D01*
X154920448Y-90480448D01*
X154876133Y-90546769D01*
X154864500Y-90605252D01*
X154864500Y-92344748D01*
X153400500Y-92344748D01*
X153400500Y-88414183D01*
X167614389Y-88414183D01*
X167615912Y-88422607D01*
X167628292Y-88426000D01*
X170268344Y-88426000D01*
X170281875Y-88422027D01*
X170283180Y-88412947D01*
X170241214Y-88245875D01*
X170237894Y-88236124D01*
X170152972Y-88040814D01*
X170148105Y-88031739D01*
X170032426Y-87852926D01*
X170026136Y-87844757D01*
X169882806Y-87687240D01*
X169875273Y-87680215D01*
X169708139Y-87548222D01*
X169699552Y-87542517D01*
X169513117Y-87439599D01*
X169503705Y-87435369D01*
X169312031Y-87367493D01*
X169254495Y-87325899D01*
X169228579Y-87259801D01*
X169242513Y-87190185D01*
X169291872Y-87139154D01*
X169320206Y-87127362D01*
X169325790Y-87125803D01*
X169325799Y-87125800D01*
X169331725Y-87124145D01*
X169337214Y-87121372D01*
X169337220Y-87121370D01*
X169510116Y-87034033D01*
X169515610Y-87031258D01*
X169677951Y-86904424D01*
X169755866Y-86814158D01*
X169781751Y-86784170D01*
X169841404Y-86745672D01*
X169877133Y-86740500D01*
X171723500Y-86740500D01*
X171791621Y-86760502D01*
X171838114Y-86814158D01*
X171849500Y-86866500D01*
X171849500Y-98742381D01*
X171848422Y-98758827D01*
X171844318Y-98790000D01*
X171849500Y-98829361D01*
X171864956Y-98946762D01*
X171925464Y-99092841D01*
X172021718Y-99218282D01*
X172028264Y-99223305D01*
X172046671Y-99237429D01*
X172059062Y-99248297D01*
X175063215Y-102252450D01*
X175157159Y-102324536D01*
X175303238Y-102385044D01*
X175460000Y-102405682D01*
X175483623Y-102402572D01*
X175553772Y-102413511D01*
X175589164Y-102438399D01*
X185420955Y-112270190D01*
X185454981Y-112332502D01*
X185457075Y-112373329D01*
X185444520Y-112485262D01*
X185445456Y-112496409D01*
X185458831Y-112655680D01*
X185461759Y-112690553D01*
X185463458Y-112696478D01*
X185514207Y-112873460D01*
X185518544Y-112888586D01*
X185521359Y-112894063D01*
X185521360Y-112894066D01*
X185599780Y-113046655D01*
X185612712Y-113071818D01*
X185740677Y-113233270D01*
X185745370Y-113237264D01*
X185745371Y-113237265D01*
X185814150Y-113295800D01*
X185897564Y-113366791D01*
X185902942Y-113369797D01*
X185902944Y-113369798D01*
X185934563Y-113387469D01*
X186077398Y-113467297D01*
X186150573Y-113491073D01*
X186267471Y-113529056D01*
X186267475Y-113529057D01*
X186273329Y-113530959D01*
X186477894Y-113555351D01*
X186484029Y-113554879D01*
X186484031Y-113554879D01*
X186540039Y-113550569D01*
X186683300Y-113539546D01*
X186689230Y-113537890D01*
X186689232Y-113537890D01*
X186839806Y-113495849D01*
X186881725Y-113484145D01*
X186887214Y-113481372D01*
X186887220Y-113481370D01*
X187033896Y-113407278D01*
X187065610Y-113391258D01*
X187227951Y-113264424D01*
X187234757Y-113256540D01*
X187358540Y-113113134D01*
X187358540Y-113113133D01*
X187362564Y-113108472D01*
X187383008Y-113072485D01*
X187437564Y-112976448D01*
X187464323Y-112929344D01*
X187529351Y-112733863D01*
X187555171Y-112529474D01*
X187555390Y-112513806D01*
X187555534Y-112503522D01*
X187555534Y-112503514D01*
X187555583Y-112500000D01*
X187535480Y-112294970D01*
X187475935Y-112097749D01*
X187379218Y-111915849D01*
X187280656Y-111795000D01*
X187252906Y-111760975D01*
X187252903Y-111760972D01*
X187249011Y-111756200D01*
X187244262Y-111752271D01*
X187095025Y-111628811D01*
X187095021Y-111628809D01*
X187090275Y-111624882D01*
X186909055Y-111526897D01*
X186858183Y-111511150D01*
X186799025Y-111471899D01*
X186770477Y-111406895D01*
X186781605Y-111336776D01*
X186828876Y-111283804D01*
X186859235Y-111270099D01*
X186992255Y-111230191D01*
X187001842Y-111226433D01*
X187193095Y-111132739D01*
X187201945Y-111127464D01*
X187375328Y-111003792D01*
X187383200Y-110997139D01*
X187534052Y-110846812D01*
X187540730Y-110838965D01*
X187665003Y-110666020D01*
X187670313Y-110657183D01*
X187764670Y-110466267D01*
X187768469Y-110456672D01*
X187830377Y-110252910D01*
X187832555Y-110242837D01*
X187833986Y-110231962D01*
X187831775Y-110217778D01*
X187818617Y-110214000D01*
X185183227Y-110214000D01*
X185162199Y-110220174D01*
X185091202Y-110220173D01*
X185037607Y-110188372D01*
X184543418Y-109694183D01*
X185164389Y-109694183D01*
X185165912Y-109702607D01*
X185178292Y-109706000D01*
X186227885Y-109706000D01*
X186243124Y-109701525D01*
X186244329Y-109700135D01*
X186246000Y-109692452D01*
X186246000Y-109687885D01*
X186754000Y-109687885D01*
X186758475Y-109703124D01*
X186759865Y-109704329D01*
X186767548Y-109706000D01*
X187818344Y-109706000D01*
X187831875Y-109702027D01*
X187833180Y-109692947D01*
X187791214Y-109525875D01*
X187787894Y-109516124D01*
X187702972Y-109320814D01*
X187698105Y-109311739D01*
X187582426Y-109132926D01*
X187576136Y-109124757D01*
X187432806Y-108967240D01*
X187425273Y-108960215D01*
X187258139Y-108828222D01*
X187249552Y-108822517D01*
X187212116Y-108801851D01*
X187162146Y-108751419D01*
X187147374Y-108681976D01*
X187172490Y-108615571D01*
X187199842Y-108588964D01*
X187375327Y-108463792D01*
X187383200Y-108457139D01*
X187534052Y-108306812D01*
X187540730Y-108298965D01*
X187665003Y-108126020D01*
X187670313Y-108117183D01*
X187764670Y-107926267D01*
X187768469Y-107916672D01*
X187830377Y-107712910D01*
X187832555Y-107702837D01*
X187833986Y-107691962D01*
X187831775Y-107677778D01*
X187818617Y-107674000D01*
X186772115Y-107674000D01*
X186756876Y-107678475D01*
X186755671Y-107679865D01*
X186754000Y-107687548D01*
X186754000Y-109687885D01*
X186246000Y-109687885D01*
X186246000Y-107692115D01*
X186241525Y-107676876D01*
X186240135Y-107675671D01*
X186232452Y-107674000D01*
X185183225Y-107674000D01*
X185169694Y-107677973D01*
X185168257Y-107687966D01*
X185198565Y-107822446D01*
X185201645Y-107832275D01*
X185281770Y-108029603D01*
X185286413Y-108038794D01*
X185397694Y-108220388D01*
X185403777Y-108228699D01*
X185543213Y-108389667D01*
X185550580Y-108396883D01*
X185714434Y-108532916D01*
X185722881Y-108538831D01*
X185792479Y-108579501D01*
X185841203Y-108631140D01*
X185854274Y-108700923D01*
X185827543Y-108766694D01*
X185787087Y-108800053D01*
X185778462Y-108804542D01*
X185769738Y-108810036D01*
X185599433Y-108937905D01*
X185591726Y-108944748D01*
X185444590Y-109098717D01*
X185438104Y-109106727D01*
X185318098Y-109282649D01*
X185313000Y-109291623D01*
X185223338Y-109484783D01*
X185219775Y-109494470D01*
X185164389Y-109694183D01*
X184543418Y-109694183D01*
X176196785Y-101347550D01*
X176102841Y-101275464D01*
X175956762Y-101214956D01*
X175947716Y-101213765D01*
X175808188Y-101195396D01*
X175800000Y-101194318D01*
X175776377Y-101197428D01*
X175706228Y-101186489D01*
X175670836Y-101161601D01*
X174991905Y-100482670D01*
X182132160Y-100482670D01*
X182137887Y-100490320D01*
X182309042Y-100595205D01*
X182317837Y-100599687D01*
X182527988Y-100686734D01*
X182537373Y-100689783D01*
X182758554Y-100742885D01*
X182768301Y-100744428D01*
X182995070Y-100762275D01*
X183004930Y-100762275D01*
X183231699Y-100744428D01*
X183241446Y-100742885D01*
X183462627Y-100689783D01*
X183472012Y-100686734D01*
X183682163Y-100599687D01*
X183690958Y-100595205D01*
X183858445Y-100492568D01*
X183867907Y-100482110D01*
X183864124Y-100473334D01*
X183012812Y-99622022D01*
X182998868Y-99614408D01*
X182997035Y-99614539D01*
X182990420Y-99618790D01*
X182138920Y-100470290D01*
X182132160Y-100482670D01*
X174991905Y-100482670D01*
X173764165Y-99254930D01*
X181487725Y-99254930D01*
X181505572Y-99481699D01*
X181507115Y-99491446D01*
X181560217Y-99712627D01*
X181563266Y-99722012D01*
X181650313Y-99932163D01*
X181654795Y-99940958D01*
X181757432Y-100108445D01*
X181767890Y-100117907D01*
X181776666Y-100114124D01*
X182627978Y-99262812D01*
X182634356Y-99251132D01*
X183364408Y-99251132D01*
X183364539Y-99252965D01*
X183368790Y-99259580D01*
X184220290Y-100111080D01*
X184232670Y-100117840D01*
X184240320Y-100112113D01*
X184345205Y-99940958D01*
X184349687Y-99932163D01*
X184436734Y-99722012D01*
X184439783Y-99712627D01*
X184492885Y-99491446D01*
X184494428Y-99481699D01*
X184512275Y-99254930D01*
X184512275Y-99245070D01*
X184494428Y-99018301D01*
X184492885Y-99008554D01*
X184439783Y-98787373D01*
X184436734Y-98777988D01*
X184349687Y-98567837D01*
X184345205Y-98559042D01*
X184242568Y-98391555D01*
X184232110Y-98382093D01*
X184223334Y-98385876D01*
X183372022Y-99237188D01*
X183364408Y-99251132D01*
X182634356Y-99251132D01*
X182635592Y-99248868D01*
X182635461Y-99247035D01*
X182631210Y-99240420D01*
X181779710Y-98388920D01*
X181767330Y-98382160D01*
X181759680Y-98387887D01*
X181654795Y-98559042D01*
X181650313Y-98567837D01*
X181563266Y-98777988D01*
X181560217Y-98787373D01*
X181507115Y-99008554D01*
X181505572Y-99018301D01*
X181487725Y-99245070D01*
X181487725Y-99254930D01*
X173764165Y-99254930D01*
X173087405Y-98578170D01*
X173053379Y-98515858D01*
X173050500Y-98489075D01*
X173050500Y-98017890D01*
X182132093Y-98017890D01*
X182135876Y-98026666D01*
X182987188Y-98877978D01*
X183001132Y-98885592D01*
X183002965Y-98885461D01*
X183009580Y-98881210D01*
X183861080Y-98029710D01*
X183867840Y-98017330D01*
X183862113Y-98009680D01*
X183690958Y-97904795D01*
X183682163Y-97900313D01*
X183472012Y-97813266D01*
X183462627Y-97810217D01*
X183241446Y-97757115D01*
X183231699Y-97755572D01*
X183004930Y-97737725D01*
X182995070Y-97737725D01*
X182768301Y-97755572D01*
X182758554Y-97757115D01*
X182537373Y-97810217D01*
X182527988Y-97813266D01*
X182317837Y-97900313D01*
X182309042Y-97904795D01*
X182141555Y-98007432D01*
X182132093Y-98017890D01*
X173050500Y-98017890D01*
X173050500Y-94718440D01*
X181794770Y-94718440D01*
X181809200Y-94938604D01*
X181810621Y-94944200D01*
X181810622Y-94944205D01*
X181851559Y-95105392D01*
X181863511Y-95152452D01*
X181865928Y-95157694D01*
X181865928Y-95157695D01*
X181902336Y-95236669D01*
X181955883Y-95352821D01*
X182083222Y-95533002D01*
X182241264Y-95686961D01*
X182246060Y-95690166D01*
X182246063Y-95690168D01*
X182330261Y-95746427D01*
X182424717Y-95809540D01*
X182430020Y-95811818D01*
X182430023Y-95811820D01*
X182617369Y-95892310D01*
X182627436Y-95896635D01*
X182707088Y-95914658D01*
X182836995Y-95944054D01*
X182837001Y-95944055D01*
X182842632Y-95945329D01*
X182848403Y-95945556D01*
X182848405Y-95945556D01*
X182916211Y-95948220D01*
X183063098Y-95953991D01*
X183172275Y-95938161D01*
X183275738Y-95923160D01*
X183275743Y-95923159D01*
X183281452Y-95922331D01*
X183286916Y-95920476D01*
X183286921Y-95920475D01*
X183484907Y-95853268D01*
X183484912Y-95853266D01*
X183490379Y-95851410D01*
X183682884Y-95743602D01*
X183710017Y-95721036D01*
X183848086Y-95606204D01*
X183852518Y-95602518D01*
X183918820Y-95522799D01*
X183989908Y-95437326D01*
X183989910Y-95437323D01*
X183993602Y-95432884D01*
X184066147Y-95303345D01*
X184098586Y-95245422D01*
X184098587Y-95245420D01*
X184101410Y-95240379D01*
X184103266Y-95234912D01*
X184103268Y-95234907D01*
X184170475Y-95036921D01*
X184170476Y-95036916D01*
X184172331Y-95031452D01*
X184173159Y-95025743D01*
X184173160Y-95025738D01*
X184192346Y-94893413D01*
X184203991Y-94813098D01*
X184205643Y-94750000D01*
X184185454Y-94530289D01*
X184176141Y-94497265D01*
X184138306Y-94363114D01*
X184125565Y-94317936D01*
X184027980Y-94120053D01*
X183983805Y-94060895D01*
X183899420Y-93947891D01*
X183899420Y-93947890D01*
X183895967Y-93943267D01*
X183758683Y-93816363D01*
X183738189Y-93797418D01*
X183738186Y-93797416D01*
X183733949Y-93793499D01*
X183547350Y-93675764D01*
X183342421Y-93594006D01*
X183336761Y-93592880D01*
X183336757Y-93592879D01*
X183131691Y-93552089D01*
X183131688Y-93552089D01*
X183126024Y-93550962D01*
X183120249Y-93550886D01*
X183120245Y-93550886D01*
X183009504Y-93549437D01*
X182905406Y-93548074D01*
X182899709Y-93549053D01*
X182899708Y-93549053D01*
X182693654Y-93584459D01*
X182693653Y-93584459D01*
X182687957Y-93585438D01*
X182480957Y-93661804D01*
X182475996Y-93664756D01*
X182475995Y-93664756D01*
X182351045Y-93739094D01*
X182291341Y-93774614D01*
X182125457Y-93920090D01*
X181988863Y-94093360D01*
X181886131Y-94288620D01*
X181820703Y-94499333D01*
X181794770Y-94718440D01*
X173050500Y-94718440D01*
X173050500Y-88219748D01*
X177949500Y-88219748D01*
X177961133Y-88278231D01*
X178005448Y-88344552D01*
X178071769Y-88388867D01*
X178083938Y-88391288D01*
X178083939Y-88391288D01*
X178124184Y-88399293D01*
X178130252Y-88400500D01*
X179869748Y-88400500D01*
X179875816Y-88399293D01*
X179916061Y-88391288D01*
X179916062Y-88391288D01*
X179928231Y-88388867D01*
X179994552Y-88344552D01*
X180038867Y-88278231D01*
X180050500Y-88219748D01*
X180050500Y-86480252D01*
X180038867Y-86421769D01*
X179994552Y-86355448D01*
X179928231Y-86311133D01*
X179916062Y-86308712D01*
X179916061Y-86308712D01*
X179875816Y-86300707D01*
X179869748Y-86299500D01*
X178130252Y-86299500D01*
X178124184Y-86300707D01*
X178083939Y-86308712D01*
X178083938Y-86308712D01*
X178071769Y-86311133D01*
X178005448Y-86355448D01*
X177961133Y-86421769D01*
X177949500Y-86480252D01*
X177949500Y-88219748D01*
X173050500Y-88219748D01*
X173050500Y-86210639D01*
X173035044Y-86093238D01*
X172974536Y-85947159D01*
X172898364Y-85847890D01*
X172883305Y-85828264D01*
X172878282Y-85821718D01*
X172871735Y-85816694D01*
X172829201Y-85784056D01*
X172805944Y-85760799D01*
X172773306Y-85718265D01*
X172773305Y-85718264D01*
X172768282Y-85711718D01*
X172642841Y-85615464D01*
X172496762Y-85554956D01*
X172410732Y-85543630D01*
X172383448Y-85540038D01*
X172383447Y-85540038D01*
X172379361Y-85539500D01*
X169875713Y-85539500D01*
X169807592Y-85519498D01*
X169778070Y-85493136D01*
X169702906Y-85400975D01*
X169702903Y-85400972D01*
X169699011Y-85396200D01*
X169692173Y-85390543D01*
X169545025Y-85268811D01*
X169545021Y-85268809D01*
X169540275Y-85264882D01*
X169359055Y-85166897D01*
X169162254Y-85105977D01*
X169156129Y-85105333D01*
X169156128Y-85105333D01*
X168963498Y-85085087D01*
X168963496Y-85085087D01*
X168957369Y-85084443D01*
X168870529Y-85092346D01*
X168758342Y-85102555D01*
X168758339Y-85102556D01*
X168752203Y-85103114D01*
X168554572Y-85161280D01*
X168372002Y-85256726D01*
X168367201Y-85260586D01*
X168367198Y-85260588D01*
X168251925Y-85353270D01*
X168211447Y-85385815D01*
X168079024Y-85543630D01*
X168076056Y-85549028D01*
X168076053Y-85549033D01*
X167986617Y-85711718D01*
X167979776Y-85724162D01*
X167917484Y-85920532D01*
X167916798Y-85926649D01*
X167916797Y-85926653D01*
X167911184Y-85976698D01*
X167894520Y-86125262D01*
X167895036Y-86131406D01*
X167902036Y-86214761D01*
X167911759Y-86330553D01*
X167913458Y-86336478D01*
X167956459Y-86486439D01*
X167968544Y-86528586D01*
X167971359Y-86534063D01*
X167971360Y-86534066D01*
X168059897Y-86706341D01*
X168062712Y-86711818D01*
X168190677Y-86873270D01*
X168195370Y-86877264D01*
X168195371Y-86877265D01*
X168312197Y-86976691D01*
X168347564Y-87006791D01*
X168527398Y-87107297D01*
X168592437Y-87128429D01*
X168651042Y-87168502D01*
X168678680Y-87233898D01*
X168666574Y-87303855D01*
X168618568Y-87356162D01*
X168592646Y-87368027D01*
X168426868Y-87422212D01*
X168417359Y-87426209D01*
X168228463Y-87524542D01*
X168219738Y-87530036D01*
X168049433Y-87657905D01*
X168041726Y-87664748D01*
X167894590Y-87818717D01*
X167888104Y-87826727D01*
X167768098Y-88002649D01*
X167763000Y-88011623D01*
X167673338Y-88204783D01*
X167669775Y-88214470D01*
X167614389Y-88414183D01*
X153400500Y-88414183D01*
X153400500Y-87410000D01*
X165629618Y-87410000D01*
X165630696Y-87418188D01*
X165642174Y-87505369D01*
X165650256Y-87566762D01*
X165710764Y-87712841D01*
X165779241Y-87802082D01*
X165798152Y-87826727D01*
X165807018Y-87838282D01*
X165932459Y-87934536D01*
X166078538Y-87995044D01*
X166235300Y-88015682D01*
X166243488Y-88014604D01*
X166383874Y-87996122D01*
X166392062Y-87995044D01*
X166538141Y-87934536D01*
X166663582Y-87838282D01*
X166672449Y-87826727D01*
X166691359Y-87802082D01*
X166759836Y-87712841D01*
X166765567Y-87699006D01*
X166772128Y-87683167D01*
X166811831Y-87631425D01*
X166910451Y-87555751D01*
X167002698Y-87435533D01*
X167060687Y-87295536D01*
X167065392Y-87259801D01*
X167074962Y-87187107D01*
X167074962Y-87187106D01*
X167075500Y-87183020D01*
X167075500Y-79997966D01*
X177668257Y-79997966D01*
X177698565Y-80132446D01*
X177701645Y-80142275D01*
X177781770Y-80339603D01*
X177786413Y-80348794D01*
X177897694Y-80530388D01*
X177903777Y-80538699D01*
X178043213Y-80699667D01*
X178050580Y-80706883D01*
X178214434Y-80842916D01*
X178222881Y-80848831D01*
X178406756Y-80956279D01*
X178416042Y-80960729D01*
X178615001Y-81036703D01*
X178629866Y-81041022D01*
X178629289Y-81043008D01*
X178684260Y-81072082D01*
X178719110Y-81133936D01*
X178714988Y-81204813D01*
X178673201Y-81262209D01*
X178631930Y-81283228D01*
X178610489Y-81289538D01*
X178610484Y-81289540D01*
X178604572Y-81291280D01*
X178422002Y-81386726D01*
X178417201Y-81390586D01*
X178417198Y-81390588D01*
X178266254Y-81511950D01*
X178261447Y-81515815D01*
X178129024Y-81673630D01*
X178126056Y-81679028D01*
X178126053Y-81679033D01*
X178119315Y-81691290D01*
X178029776Y-81854162D01*
X177967484Y-82050532D01*
X177966798Y-82056649D01*
X177966797Y-82056653D01*
X177960400Y-82113685D01*
X177944520Y-82255262D01*
X177961759Y-82460553D01*
X177963458Y-82466478D01*
X178015033Y-82646341D01*
X178018544Y-82658586D01*
X178021359Y-82664063D01*
X178021360Y-82664066D01*
X178106543Y-82829815D01*
X178112712Y-82841818D01*
X178240677Y-83003270D01*
X178245370Y-83007264D01*
X178245371Y-83007265D01*
X178314150Y-83065800D01*
X178397564Y-83136791D01*
X178577398Y-83237297D01*
X178672238Y-83268113D01*
X178767471Y-83299056D01*
X178767475Y-83299057D01*
X178773329Y-83300959D01*
X178977894Y-83325351D01*
X178984029Y-83324879D01*
X178984031Y-83324879D01*
X179040039Y-83320569D01*
X179183300Y-83309546D01*
X179189230Y-83307890D01*
X179189232Y-83307890D01*
X179375797Y-83255800D01*
X179375796Y-83255800D01*
X179381725Y-83254145D01*
X179387214Y-83251372D01*
X179387220Y-83251370D01*
X179560116Y-83164033D01*
X179565610Y-83161258D01*
X179727951Y-83034424D01*
X179862564Y-82878472D01*
X179883387Y-82841818D01*
X179923209Y-82771718D01*
X179964323Y-82699344D01*
X180029351Y-82503863D01*
X180055171Y-82299474D01*
X180055390Y-82283806D01*
X180055534Y-82273522D01*
X180055534Y-82273518D01*
X180055583Y-82270000D01*
X180035480Y-82064970D01*
X179975935Y-81867749D01*
X179879218Y-81685849D01*
X179805859Y-81595902D01*
X179752906Y-81530975D01*
X179752903Y-81530972D01*
X179749011Y-81526200D01*
X179691839Y-81478903D01*
X179595025Y-81398811D01*
X179595021Y-81398809D01*
X179590275Y-81394882D01*
X179409055Y-81296897D01*
X179358183Y-81281150D01*
X179299025Y-81241899D01*
X179270477Y-81176895D01*
X179281605Y-81106776D01*
X179328876Y-81053804D01*
X179359235Y-81040099D01*
X179492255Y-81000191D01*
X179501842Y-80996433D01*
X179693095Y-80902739D01*
X179701945Y-80897464D01*
X179875328Y-80773792D01*
X179883200Y-80767139D01*
X180034052Y-80616812D01*
X180040730Y-80608965D01*
X180165003Y-80436020D01*
X180170313Y-80427183D01*
X180264670Y-80236267D01*
X180268469Y-80226672D01*
X180330377Y-80022910D01*
X180332555Y-80012837D01*
X180333986Y-80001962D01*
X180331775Y-79987778D01*
X180318617Y-79984000D01*
X177683225Y-79984000D01*
X177669694Y-79987973D01*
X177668257Y-79997966D01*
X167075500Y-79997966D01*
X167075500Y-79464183D01*
X177664389Y-79464183D01*
X177665912Y-79472607D01*
X177678292Y-79476000D01*
X178727885Y-79476000D01*
X178743124Y-79471525D01*
X178744329Y-79470135D01*
X178746000Y-79462452D01*
X178746000Y-79457885D01*
X179254000Y-79457885D01*
X179258475Y-79473124D01*
X179259865Y-79474329D01*
X179267548Y-79476000D01*
X180318344Y-79476000D01*
X180331875Y-79472027D01*
X180333180Y-79462947D01*
X180291214Y-79295875D01*
X180287894Y-79286124D01*
X180202972Y-79090814D01*
X180198105Y-79081739D01*
X180082426Y-78902926D01*
X180076136Y-78894757D01*
X179932806Y-78737240D01*
X179925273Y-78730215D01*
X179758139Y-78598222D01*
X179749552Y-78592517D01*
X179712116Y-78571851D01*
X179662146Y-78521419D01*
X179647374Y-78451976D01*
X179672490Y-78385571D01*
X179699842Y-78358964D01*
X179875327Y-78233792D01*
X179883200Y-78227139D01*
X180034052Y-78076812D01*
X180040730Y-78068965D01*
X180165003Y-77896020D01*
X180170313Y-77887183D01*
X180264670Y-77696267D01*
X180268469Y-77686672D01*
X180330377Y-77482910D01*
X180332555Y-77472837D01*
X180333986Y-77461962D01*
X180331775Y-77447778D01*
X180318617Y-77444000D01*
X179272115Y-77444000D01*
X179256876Y-77448475D01*
X179255671Y-77449865D01*
X179254000Y-77457548D01*
X179254000Y-79457885D01*
X178746000Y-79457885D01*
X178746000Y-77462115D01*
X178741525Y-77446876D01*
X178740135Y-77445671D01*
X178732452Y-77444000D01*
X177683225Y-77444000D01*
X177669694Y-77447973D01*
X177668257Y-77457966D01*
X177698565Y-77592446D01*
X177701645Y-77602275D01*
X177781770Y-77799603D01*
X177786413Y-77808794D01*
X177897694Y-77990388D01*
X177903777Y-77998699D01*
X178043213Y-78159667D01*
X178050580Y-78166883D01*
X178214434Y-78302916D01*
X178222881Y-78308831D01*
X178292479Y-78349501D01*
X178341203Y-78401140D01*
X178354274Y-78470923D01*
X178327543Y-78536694D01*
X178287087Y-78570053D01*
X178278462Y-78574542D01*
X178269738Y-78580036D01*
X178099433Y-78707905D01*
X178091726Y-78714748D01*
X177944590Y-78868717D01*
X177938104Y-78876727D01*
X177818098Y-79052649D01*
X177813000Y-79061623D01*
X177723338Y-79254783D01*
X177719775Y-79264470D01*
X177664389Y-79464183D01*
X167075500Y-79464183D01*
X167075500Y-75336500D01*
X167095502Y-75268379D01*
X167149158Y-75221886D01*
X167201500Y-75210500D01*
X178042831Y-75210500D01*
X178110952Y-75230502D01*
X178141575Y-75258234D01*
X178183249Y-75310814D01*
X178236849Y-75378441D01*
X178236852Y-75378444D01*
X178240677Y-75383270D01*
X178245370Y-75387264D01*
X178245371Y-75387265D01*
X178348205Y-75474783D01*
X178397564Y-75516791D01*
X178577398Y-75617297D01*
X178642437Y-75638429D01*
X178701042Y-75678502D01*
X178728680Y-75743898D01*
X178716574Y-75813855D01*
X178668568Y-75866162D01*
X178642646Y-75878027D01*
X178476868Y-75932212D01*
X178467359Y-75936209D01*
X178278463Y-76034542D01*
X178269738Y-76040036D01*
X178099433Y-76167905D01*
X178091726Y-76174748D01*
X177944590Y-76328717D01*
X177938104Y-76336727D01*
X177818098Y-76512649D01*
X177813000Y-76521623D01*
X177723338Y-76714783D01*
X177719775Y-76724470D01*
X177664389Y-76924183D01*
X177665912Y-76932607D01*
X177678292Y-76936000D01*
X180318344Y-76936000D01*
X180331875Y-76932027D01*
X180333180Y-76922947D01*
X180291214Y-76755875D01*
X180287894Y-76746124D01*
X180202972Y-76550814D01*
X180198105Y-76541739D01*
X180082426Y-76362926D01*
X180076136Y-76354757D01*
X179932806Y-76197240D01*
X179925273Y-76190215D01*
X179758139Y-76058222D01*
X179749552Y-76052517D01*
X179563117Y-75949599D01*
X179553705Y-75945369D01*
X179362031Y-75877493D01*
X179304495Y-75835899D01*
X179278579Y-75769801D01*
X179292513Y-75700185D01*
X179341872Y-75649154D01*
X179370206Y-75637362D01*
X179375790Y-75635803D01*
X179375799Y-75635800D01*
X179381725Y-75634145D01*
X179387214Y-75631372D01*
X179387220Y-75631370D01*
X179560116Y-75544033D01*
X179565610Y-75541258D01*
X179727951Y-75414424D01*
X179754843Y-75383270D01*
X179853331Y-75269169D01*
X179912984Y-75230672D01*
X179948713Y-75225500D01*
X182251430Y-75225500D01*
X182319551Y-75245502D01*
X182340525Y-75262405D01*
X185887595Y-78809475D01*
X185921621Y-78871787D01*
X185924500Y-78898570D01*
X185924500Y-84083500D01*
X185904498Y-84151621D01*
X185850842Y-84198114D01*
X185798500Y-84209500D01*
X179925713Y-84209500D01*
X179857592Y-84189498D01*
X179828070Y-84163136D01*
X179752906Y-84070975D01*
X179752903Y-84070972D01*
X179749011Y-84066200D01*
X179718900Y-84041290D01*
X179595025Y-83938811D01*
X179595021Y-83938809D01*
X179590275Y-83934882D01*
X179409055Y-83836897D01*
X179212254Y-83775977D01*
X179206129Y-83775333D01*
X179206128Y-83775333D01*
X179013498Y-83755087D01*
X179013496Y-83755087D01*
X179007369Y-83754443D01*
X178920529Y-83762346D01*
X178808342Y-83772555D01*
X178808339Y-83772556D01*
X178802203Y-83773114D01*
X178604572Y-83831280D01*
X178422002Y-83926726D01*
X178417201Y-83930586D01*
X178417198Y-83930588D01*
X178278108Y-84042419D01*
X178261447Y-84055815D01*
X178129024Y-84213630D01*
X178126056Y-84219028D01*
X178126053Y-84219033D01*
X178049911Y-84357536D01*
X178029776Y-84394162D01*
X177967484Y-84590532D01*
X177966798Y-84596649D01*
X177966797Y-84596653D01*
X177954753Y-84704028D01*
X177944520Y-84795262D01*
X177945036Y-84801406D01*
X177957658Y-84951711D01*
X177961759Y-85000553D01*
X177963458Y-85006478D01*
X178012649Y-85178026D01*
X178018544Y-85198586D01*
X178021359Y-85204063D01*
X178021360Y-85204066D01*
X178109897Y-85376341D01*
X178112712Y-85381818D01*
X178240677Y-85543270D01*
X178245370Y-85547264D01*
X178245371Y-85547265D01*
X178356316Y-85641686D01*
X178397564Y-85676791D01*
X178577398Y-85777297D01*
X178672238Y-85808113D01*
X178767471Y-85839056D01*
X178767475Y-85839057D01*
X178773329Y-85840959D01*
X178977894Y-85865351D01*
X178984029Y-85864879D01*
X178984031Y-85864879D01*
X179040039Y-85860569D01*
X179183300Y-85849546D01*
X179189230Y-85847890D01*
X179189232Y-85847890D01*
X179313104Y-85813304D01*
X179381725Y-85794145D01*
X179387214Y-85791372D01*
X179387220Y-85791370D01*
X179542719Y-85712821D01*
X179565610Y-85701258D01*
X179727951Y-85574424D01*
X179751394Y-85547265D01*
X179831751Y-85454170D01*
X179891404Y-85415672D01*
X179927133Y-85410500D01*
X185798500Y-85410500D01*
X185866621Y-85430502D01*
X185913114Y-85484158D01*
X185924500Y-85536500D01*
X185924500Y-103703500D01*
X185904498Y-103771621D01*
X185850842Y-103818114D01*
X185798500Y-103829500D01*
X185630252Y-103829500D01*
X185624184Y-103830707D01*
X185583939Y-103838712D01*
X185583938Y-103838712D01*
X185571769Y-103841133D01*
X185505448Y-103885448D01*
X185461133Y-103951769D01*
X185458712Y-103963938D01*
X185458712Y-103963939D01*
X185450707Y-104004184D01*
X185449500Y-104010252D01*
X185449500Y-105749748D01*
X185450707Y-105755816D01*
X185455626Y-105780543D01*
X185461133Y-105808231D01*
X185505448Y-105874552D01*
X185571769Y-105918867D01*
X185583938Y-105921288D01*
X185583939Y-105921288D01*
X185622223Y-105928903D01*
X185630252Y-105930500D01*
X185905233Y-105930500D01*
X185973354Y-105950502D01*
X186019847Y-106004158D01*
X186029951Y-106074432D01*
X186000457Y-106139012D01*
X185963413Y-106168263D01*
X185778463Y-106264542D01*
X185769738Y-106270036D01*
X185599433Y-106397905D01*
X185591726Y-106404748D01*
X185444590Y-106558717D01*
X185438104Y-106566727D01*
X185318098Y-106742649D01*
X185313000Y-106751623D01*
X185223338Y-106944783D01*
X185219775Y-106954470D01*
X185164389Y-107154183D01*
X185165912Y-107162607D01*
X185178292Y-107166000D01*
X187818344Y-107166000D01*
X187831875Y-107162027D01*
X187833180Y-107152947D01*
X187791214Y-106985875D01*
X187787894Y-106976124D01*
X187702972Y-106780814D01*
X187698105Y-106771739D01*
X187582426Y-106592926D01*
X187576136Y-106584757D01*
X187432806Y-106427240D01*
X187425273Y-106420215D01*
X187258139Y-106288222D01*
X187249552Y-106282517D01*
X187063117Y-106179599D01*
X187053705Y-106175369D01*
X187053435Y-106175273D01*
X187053341Y-106175205D01*
X187048989Y-106173249D01*
X187049393Y-106172351D01*
X186995899Y-106133679D01*
X186969983Y-106067581D01*
X186983917Y-105997965D01*
X187033276Y-105946934D01*
X187095495Y-105930500D01*
X187369748Y-105930500D01*
X187377777Y-105928903D01*
X187416061Y-105921288D01*
X187416062Y-105921288D01*
X187428231Y-105918867D01*
X187494552Y-105874552D01*
X187538867Y-105808231D01*
X187544375Y-105780543D01*
X187549293Y-105755816D01*
X187550500Y-105749748D01*
X187550500Y-104010252D01*
X187549293Y-104004184D01*
X187541288Y-103963939D01*
X187541288Y-103963938D01*
X187538867Y-103951769D01*
X187494552Y-103885448D01*
X187428231Y-103841133D01*
X187416062Y-103838712D01*
X187416061Y-103838712D01*
X187375816Y-103830707D01*
X187369748Y-103829500D01*
X187201500Y-103829500D01*
X187133379Y-103809498D01*
X187086886Y-103755842D01*
X187075500Y-103703500D01*
X187075500Y-100482670D01*
X188632160Y-100482670D01*
X188637887Y-100490320D01*
X188809042Y-100595205D01*
X188817837Y-100599687D01*
X189027988Y-100686734D01*
X189037373Y-100689783D01*
X189258554Y-100742885D01*
X189268301Y-100744428D01*
X189495070Y-100762275D01*
X189504930Y-100762275D01*
X189731699Y-100744428D01*
X189741446Y-100742885D01*
X189962627Y-100689783D01*
X189972012Y-100686734D01*
X190182163Y-100599687D01*
X190190958Y-100595205D01*
X190358445Y-100492568D01*
X190367907Y-100482110D01*
X190364124Y-100473334D01*
X189512812Y-99622022D01*
X189498868Y-99614408D01*
X189497035Y-99614539D01*
X189490420Y-99618790D01*
X188638920Y-100470290D01*
X188632160Y-100482670D01*
X187075500Y-100482670D01*
X187075500Y-99254930D01*
X187987725Y-99254930D01*
X188005572Y-99481699D01*
X188007115Y-99491446D01*
X188060217Y-99712627D01*
X188063266Y-99722012D01*
X188150313Y-99932163D01*
X188154795Y-99940958D01*
X188257432Y-100108445D01*
X188267890Y-100117907D01*
X188276666Y-100114124D01*
X189127978Y-99262812D01*
X189134356Y-99251132D01*
X189864408Y-99251132D01*
X189864539Y-99252965D01*
X189868790Y-99259580D01*
X190720290Y-100111080D01*
X190732670Y-100117840D01*
X190740320Y-100112113D01*
X190845205Y-99940958D01*
X190849687Y-99932163D01*
X190936734Y-99722012D01*
X190939783Y-99712627D01*
X190992885Y-99491446D01*
X190994428Y-99481699D01*
X191012275Y-99254930D01*
X191012275Y-99245070D01*
X190994428Y-99018301D01*
X190992885Y-99008554D01*
X190939783Y-98787373D01*
X190936734Y-98777988D01*
X190849687Y-98567837D01*
X190845205Y-98559042D01*
X190742568Y-98391555D01*
X190732110Y-98382093D01*
X190723334Y-98385876D01*
X189872022Y-99237188D01*
X189864408Y-99251132D01*
X189134356Y-99251132D01*
X189135592Y-99248868D01*
X189135461Y-99247035D01*
X189131210Y-99240420D01*
X188279710Y-98388920D01*
X188267330Y-98382160D01*
X188259680Y-98387887D01*
X188154795Y-98559042D01*
X188150313Y-98567837D01*
X188063266Y-98777988D01*
X188060217Y-98787373D01*
X188007115Y-99008554D01*
X188005572Y-99018301D01*
X187987725Y-99245070D01*
X187987725Y-99254930D01*
X187075500Y-99254930D01*
X187075500Y-98017890D01*
X188632093Y-98017890D01*
X188635876Y-98026666D01*
X189487188Y-98877978D01*
X189501132Y-98885592D01*
X189502965Y-98885461D01*
X189509580Y-98881210D01*
X190361080Y-98029710D01*
X190367840Y-98017330D01*
X190362113Y-98009680D01*
X190190958Y-97904795D01*
X190182163Y-97900313D01*
X189972012Y-97813266D01*
X189962627Y-97810217D01*
X189741446Y-97757115D01*
X189731699Y-97755572D01*
X189504930Y-97737725D01*
X189495070Y-97737725D01*
X189268301Y-97755572D01*
X189258554Y-97757115D01*
X189037373Y-97810217D01*
X189027988Y-97813266D01*
X188817837Y-97900313D01*
X188809042Y-97904795D01*
X188641555Y-98007432D01*
X188632093Y-98017890D01*
X187075500Y-98017890D01*
X187075500Y-94718440D01*
X188294770Y-94718440D01*
X188309200Y-94938604D01*
X188310621Y-94944200D01*
X188310622Y-94944205D01*
X188351559Y-95105392D01*
X188363511Y-95152452D01*
X188365928Y-95157694D01*
X188365928Y-95157695D01*
X188402336Y-95236669D01*
X188455883Y-95352821D01*
X188583222Y-95533002D01*
X188741264Y-95686961D01*
X188746060Y-95690166D01*
X188746063Y-95690168D01*
X188830261Y-95746427D01*
X188924717Y-95809540D01*
X188930020Y-95811818D01*
X188930023Y-95811820D01*
X189117369Y-95892310D01*
X189127436Y-95896635D01*
X189207088Y-95914658D01*
X189336995Y-95944054D01*
X189337001Y-95944055D01*
X189342632Y-95945329D01*
X189348403Y-95945556D01*
X189348405Y-95945556D01*
X189416211Y-95948220D01*
X189563098Y-95953991D01*
X189672275Y-95938161D01*
X189775738Y-95923160D01*
X189775743Y-95923159D01*
X189781452Y-95922331D01*
X189786916Y-95920476D01*
X189786921Y-95920475D01*
X189984907Y-95853268D01*
X189984912Y-95853266D01*
X189990379Y-95851410D01*
X190182884Y-95743602D01*
X190210017Y-95721036D01*
X190348086Y-95606204D01*
X190352518Y-95602518D01*
X190418820Y-95522799D01*
X190489908Y-95437326D01*
X190489910Y-95437323D01*
X190493602Y-95432884D01*
X190566147Y-95303345D01*
X190598586Y-95245422D01*
X190598587Y-95245420D01*
X190601410Y-95240379D01*
X190603266Y-95234912D01*
X190603268Y-95234907D01*
X190670475Y-95036921D01*
X190670476Y-95036916D01*
X190672331Y-95031452D01*
X190673159Y-95025743D01*
X190673160Y-95025738D01*
X190692346Y-94893413D01*
X190703991Y-94813098D01*
X190705643Y-94750000D01*
X190685454Y-94530289D01*
X190676141Y-94497265D01*
X190638306Y-94363114D01*
X190625565Y-94317936D01*
X190527980Y-94120053D01*
X190483805Y-94060895D01*
X190399420Y-93947891D01*
X190399420Y-93947890D01*
X190395967Y-93943267D01*
X190258683Y-93816363D01*
X190238189Y-93797418D01*
X190238186Y-93797416D01*
X190233949Y-93793499D01*
X190047350Y-93675764D01*
X189842421Y-93594006D01*
X189836761Y-93592880D01*
X189836757Y-93592879D01*
X189631691Y-93552089D01*
X189631688Y-93552089D01*
X189626024Y-93550962D01*
X189620249Y-93550886D01*
X189620245Y-93550886D01*
X189509504Y-93549437D01*
X189405406Y-93548074D01*
X189399709Y-93549053D01*
X189399708Y-93549053D01*
X189193654Y-93584459D01*
X189193653Y-93584459D01*
X189187957Y-93585438D01*
X188980957Y-93661804D01*
X188975996Y-93664756D01*
X188975995Y-93664756D01*
X188851045Y-93739094D01*
X188791341Y-93774614D01*
X188625457Y-93920090D01*
X188488863Y-94093360D01*
X188386131Y-94288620D01*
X188320703Y-94499333D01*
X188294770Y-94718440D01*
X187075500Y-94718440D01*
X187075500Y-88029748D01*
X187949500Y-88029748D01*
X187950707Y-88035816D01*
X187958034Y-88072649D01*
X187961133Y-88088231D01*
X188005448Y-88154552D01*
X188071769Y-88198867D01*
X188083938Y-88201288D01*
X188083939Y-88201288D01*
X188124184Y-88209293D01*
X188130252Y-88210500D01*
X189869748Y-88210500D01*
X189875816Y-88209293D01*
X189916061Y-88201288D01*
X189916062Y-88201288D01*
X189928231Y-88198867D01*
X189994552Y-88154552D01*
X190038867Y-88088231D01*
X190041967Y-88072649D01*
X190049293Y-88035816D01*
X190050500Y-88029748D01*
X190050500Y-86290252D01*
X190038867Y-86231769D01*
X189994552Y-86165448D01*
X189928231Y-86121133D01*
X189916062Y-86118712D01*
X189916061Y-86118712D01*
X189875816Y-86110707D01*
X189869748Y-86109500D01*
X188130252Y-86109500D01*
X188124184Y-86110707D01*
X188083939Y-86118712D01*
X188083938Y-86118712D01*
X188071769Y-86121133D01*
X188005448Y-86165448D01*
X187961133Y-86231769D01*
X187949500Y-86290252D01*
X187949500Y-88029748D01*
X187075500Y-88029748D01*
X187075500Y-85346500D01*
X187095502Y-85278379D01*
X187149158Y-85231886D01*
X187201500Y-85220500D01*
X188074534Y-85220500D01*
X188142655Y-85240502D01*
X188173279Y-85268235D01*
X188240677Y-85353270D01*
X188397564Y-85486791D01*
X188402942Y-85489797D01*
X188402944Y-85489798D01*
X188441342Y-85511258D01*
X188577398Y-85587297D01*
X188661114Y-85614498D01*
X188767471Y-85649056D01*
X188767475Y-85649057D01*
X188773329Y-85650959D01*
X188977894Y-85675351D01*
X188984029Y-85674879D01*
X188984031Y-85674879D01*
X189040039Y-85670569D01*
X189183300Y-85659546D01*
X189189230Y-85657890D01*
X189189232Y-85657890D01*
X189341185Y-85615464D01*
X189381725Y-85604145D01*
X189387214Y-85601372D01*
X189387220Y-85601370D01*
X189519952Y-85534322D01*
X189565610Y-85511258D01*
X189727951Y-85384424D01*
X189760739Y-85346439D01*
X189858540Y-85233134D01*
X189858540Y-85233133D01*
X189862564Y-85228472D01*
X189964323Y-85049344D01*
X190029351Y-84853863D01*
X190055171Y-84649474D01*
X190055583Y-84620000D01*
X190035480Y-84414970D01*
X189975935Y-84217749D01*
X189879218Y-84035849D01*
X189805810Y-83945842D01*
X189752906Y-83880975D01*
X189752903Y-83880972D01*
X189749011Y-83876200D01*
X189736458Y-83865815D01*
X189595025Y-83748811D01*
X189595021Y-83748809D01*
X189590275Y-83744882D01*
X189409055Y-83646897D01*
X189212254Y-83585977D01*
X189206129Y-83585333D01*
X189206128Y-83585333D01*
X189013498Y-83565087D01*
X189013496Y-83565087D01*
X189007369Y-83564443D01*
X188920529Y-83572346D01*
X188808342Y-83582555D01*
X188808339Y-83582556D01*
X188802203Y-83583114D01*
X188604572Y-83641280D01*
X188422002Y-83736726D01*
X188417201Y-83740586D01*
X188417198Y-83740588D01*
X188370917Y-83777799D01*
X188261447Y-83865815D01*
X188257488Y-83870533D01*
X188257487Y-83870534D01*
X188170255Y-83974492D01*
X188111145Y-84013818D01*
X188073734Y-84019500D01*
X187201500Y-84019500D01*
X187133379Y-83999498D01*
X187086886Y-83945842D01*
X187075500Y-83893500D01*
X187075500Y-79807966D01*
X187668257Y-79807966D01*
X187698565Y-79942446D01*
X187701645Y-79952275D01*
X187781770Y-80149603D01*
X187786413Y-80158794D01*
X187897694Y-80340388D01*
X187903777Y-80348699D01*
X188043213Y-80509667D01*
X188050580Y-80516883D01*
X188214434Y-80652916D01*
X188222881Y-80658831D01*
X188406756Y-80766279D01*
X188416042Y-80770729D01*
X188615001Y-80846703D01*
X188629866Y-80851022D01*
X188629289Y-80853008D01*
X188684260Y-80882082D01*
X188719110Y-80943936D01*
X188714988Y-81014813D01*
X188673201Y-81072209D01*
X188631930Y-81093228D01*
X188610489Y-81099538D01*
X188610484Y-81099540D01*
X188604572Y-81101280D01*
X188422002Y-81196726D01*
X188417201Y-81200586D01*
X188417198Y-81200588D01*
X188266254Y-81321950D01*
X188261447Y-81325815D01*
X188129024Y-81483630D01*
X188126056Y-81489028D01*
X188126053Y-81489033D01*
X188048282Y-81630500D01*
X188029776Y-81664162D01*
X187967484Y-81860532D01*
X187966798Y-81866649D01*
X187966797Y-81866653D01*
X187957890Y-81946061D01*
X187944520Y-82065262D01*
X187945036Y-82071406D01*
X187959961Y-82249137D01*
X187961759Y-82270553D01*
X187963458Y-82276478D01*
X188016241Y-82460553D01*
X188018544Y-82468586D01*
X188021359Y-82474063D01*
X188021360Y-82474066D01*
X188039681Y-82509715D01*
X188112712Y-82651818D01*
X188240677Y-82813270D01*
X188245370Y-82817264D01*
X188245371Y-82817265D01*
X188310994Y-82873114D01*
X188397564Y-82946791D01*
X188577398Y-83047297D01*
X188672238Y-83078113D01*
X188767471Y-83109056D01*
X188767475Y-83109057D01*
X188773329Y-83110959D01*
X188977894Y-83135351D01*
X188984029Y-83134879D01*
X188984031Y-83134879D01*
X189040039Y-83130569D01*
X189183300Y-83119546D01*
X189189230Y-83117890D01*
X189189232Y-83117890D01*
X189375797Y-83065800D01*
X189375796Y-83065800D01*
X189381725Y-83064145D01*
X189387214Y-83061372D01*
X189387220Y-83061370D01*
X189560116Y-82974033D01*
X189565610Y-82971258D01*
X189727951Y-82844424D01*
X189811572Y-82747548D01*
X189858540Y-82693134D01*
X189858540Y-82693133D01*
X189862564Y-82688472D01*
X189883387Y-82651818D01*
X189961276Y-82514707D01*
X189964323Y-82509344D01*
X190029351Y-82313863D01*
X190055171Y-82109474D01*
X190055583Y-82080000D01*
X190035480Y-81874970D01*
X189975935Y-81677749D01*
X189879218Y-81495849D01*
X189805859Y-81405902D01*
X189752906Y-81340975D01*
X189752903Y-81340972D01*
X189749011Y-81336200D01*
X189701502Y-81296897D01*
X189595025Y-81208811D01*
X189595021Y-81208809D01*
X189590275Y-81204882D01*
X189409055Y-81106897D01*
X189358183Y-81091150D01*
X189299025Y-81051899D01*
X189270477Y-80986895D01*
X189281605Y-80916776D01*
X189328876Y-80863804D01*
X189359235Y-80850099D01*
X189492255Y-80810191D01*
X189501842Y-80806433D01*
X189693095Y-80712739D01*
X189701945Y-80707464D01*
X189875328Y-80583792D01*
X189883200Y-80577139D01*
X190034052Y-80426812D01*
X190040730Y-80418965D01*
X190165003Y-80246020D01*
X190170313Y-80237183D01*
X190264670Y-80046267D01*
X190268469Y-80036672D01*
X190330377Y-79832910D01*
X190332555Y-79822837D01*
X190333986Y-79811962D01*
X190331775Y-79797778D01*
X190318617Y-79794000D01*
X187683225Y-79794000D01*
X187669694Y-79797973D01*
X187668257Y-79807966D01*
X187075500Y-79807966D01*
X187075500Y-79274183D01*
X187664389Y-79274183D01*
X187665912Y-79282607D01*
X187678292Y-79286000D01*
X188727885Y-79286000D01*
X188743124Y-79281525D01*
X188744329Y-79280135D01*
X188746000Y-79272452D01*
X188746000Y-79267885D01*
X189254000Y-79267885D01*
X189258475Y-79283124D01*
X189259865Y-79284329D01*
X189267548Y-79286000D01*
X190318344Y-79286000D01*
X190331875Y-79282027D01*
X190333180Y-79272947D01*
X190291214Y-79105875D01*
X190287894Y-79096124D01*
X190202972Y-78900814D01*
X190198105Y-78891739D01*
X190082426Y-78712926D01*
X190076136Y-78704757D01*
X189932806Y-78547240D01*
X189925273Y-78540215D01*
X189758139Y-78408222D01*
X189749552Y-78402517D01*
X189712116Y-78381851D01*
X189662146Y-78331419D01*
X189647374Y-78261976D01*
X189672490Y-78195571D01*
X189699842Y-78168964D01*
X189875327Y-78043792D01*
X189883200Y-78037139D01*
X190034052Y-77886812D01*
X190040730Y-77878965D01*
X190165003Y-77706020D01*
X190170313Y-77697183D01*
X190264670Y-77506267D01*
X190268469Y-77496672D01*
X190330377Y-77292910D01*
X190332555Y-77282837D01*
X190333986Y-77271962D01*
X190331775Y-77257778D01*
X190318617Y-77254000D01*
X189272115Y-77254000D01*
X189256876Y-77258475D01*
X189255671Y-77259865D01*
X189254000Y-77267548D01*
X189254000Y-79267885D01*
X188746000Y-79267885D01*
X188746000Y-77272115D01*
X188741525Y-77256876D01*
X188740135Y-77255671D01*
X188732452Y-77254000D01*
X187683225Y-77254000D01*
X187669694Y-77257973D01*
X187668257Y-77267966D01*
X187698565Y-77402446D01*
X187701645Y-77412275D01*
X187781770Y-77609603D01*
X187786413Y-77618794D01*
X187897694Y-77800388D01*
X187903777Y-77808699D01*
X188043213Y-77969667D01*
X188050580Y-77976883D01*
X188214434Y-78112916D01*
X188222881Y-78118831D01*
X188292479Y-78159501D01*
X188341203Y-78211140D01*
X188354274Y-78280923D01*
X188327543Y-78346694D01*
X188287087Y-78380053D01*
X188278462Y-78384542D01*
X188269738Y-78390036D01*
X188099433Y-78517905D01*
X188091726Y-78524748D01*
X187944590Y-78678717D01*
X187938104Y-78686727D01*
X187818098Y-78862649D01*
X187813000Y-78871623D01*
X187723338Y-79064783D01*
X187719775Y-79074470D01*
X187664389Y-79274183D01*
X187075500Y-79274183D01*
X187075500Y-78653972D01*
X187076578Y-78637526D01*
X187079387Y-78616189D01*
X187079387Y-78616188D01*
X187080465Y-78608000D01*
X187075500Y-78570285D01*
X187075500Y-78570280D01*
X187060687Y-78457764D01*
X187002698Y-78317767D01*
X186977532Y-78284970D01*
X186933612Y-78227732D01*
X186933609Y-78227729D01*
X186910451Y-78197549D01*
X186886821Y-78179417D01*
X186874430Y-78168550D01*
X183956475Y-75250595D01*
X183922449Y-75188283D01*
X183927514Y-75117468D01*
X183970061Y-75060632D01*
X184036581Y-75035821D01*
X184045570Y-75035500D01*
X188054719Y-75035500D01*
X188122840Y-75055502D01*
X188153464Y-75083235D01*
X188240677Y-75193270D01*
X188245370Y-75197264D01*
X188245371Y-75197265D01*
X188344492Y-75281623D01*
X188397564Y-75326791D01*
X188577398Y-75427297D01*
X188642437Y-75448429D01*
X188701042Y-75488502D01*
X188728680Y-75553898D01*
X188716574Y-75623855D01*
X188668568Y-75676162D01*
X188642646Y-75688027D01*
X188476868Y-75742212D01*
X188467359Y-75746209D01*
X188278463Y-75844542D01*
X188269738Y-75850036D01*
X188099433Y-75977905D01*
X188091726Y-75984748D01*
X187944590Y-76138717D01*
X187938104Y-76146727D01*
X187818098Y-76322649D01*
X187813000Y-76331623D01*
X187723338Y-76524783D01*
X187719775Y-76534470D01*
X187664389Y-76734183D01*
X187665912Y-76742607D01*
X187678292Y-76746000D01*
X190318344Y-76746000D01*
X190331875Y-76742027D01*
X190333180Y-76732947D01*
X190291214Y-76565875D01*
X190287894Y-76556124D01*
X190202972Y-76360814D01*
X190198105Y-76351739D01*
X190082426Y-76172926D01*
X190076136Y-76164757D01*
X189932806Y-76007240D01*
X189925273Y-76000215D01*
X189758139Y-75868222D01*
X189749552Y-75862517D01*
X189563117Y-75759599D01*
X189553705Y-75755369D01*
X189362031Y-75687493D01*
X189304495Y-75645899D01*
X189278579Y-75579801D01*
X189292513Y-75510185D01*
X189341872Y-75459154D01*
X189370206Y-75447362D01*
X189375790Y-75445803D01*
X189375799Y-75445800D01*
X189381725Y-75444145D01*
X189387214Y-75441372D01*
X189387220Y-75441370D01*
X189560116Y-75354033D01*
X189565610Y-75351258D01*
X189584500Y-75336500D01*
X189723101Y-75228213D01*
X189727951Y-75224424D01*
X189862564Y-75068472D01*
X189881113Y-75035821D01*
X189922886Y-74962286D01*
X189964323Y-74889344D01*
X190029351Y-74693863D01*
X190055171Y-74489474D01*
X190055583Y-74460000D01*
X190035480Y-74254970D01*
X189975935Y-74057749D01*
X189879218Y-73875849D01*
X189805859Y-73785902D01*
X189752906Y-73720975D01*
X189752903Y-73720972D01*
X189749011Y-73716200D01*
X189701502Y-73676897D01*
X189595025Y-73588811D01*
X189595021Y-73588809D01*
X189590275Y-73584882D01*
X189409055Y-73486897D01*
X189212254Y-73425977D01*
X189206129Y-73425333D01*
X189206128Y-73425333D01*
X189013498Y-73405087D01*
X189013496Y-73405087D01*
X189007369Y-73404443D01*
X188920529Y-73412346D01*
X188808342Y-73422555D01*
X188808339Y-73422556D01*
X188802203Y-73423114D01*
X188604572Y-73481280D01*
X188422002Y-73576726D01*
X188417201Y-73580586D01*
X188417198Y-73580588D01*
X188266254Y-73701950D01*
X188261447Y-73705815D01*
X188207096Y-73770588D01*
X188149279Y-73839491D01*
X188090170Y-73878818D01*
X188052758Y-73884500D01*
X182777979Y-73884500D01*
X182761533Y-73883422D01*
X182740189Y-73880612D01*
X182740188Y-73880612D01*
X182732000Y-73879534D01*
X182723812Y-73880612D01*
X182694280Y-73884500D01*
X182589950Y-73898235D01*
X182589948Y-73898236D01*
X182581764Y-73899313D01*
X182574139Y-73902472D01*
X182574137Y-73902472D01*
X182553610Y-73910975D01*
X182544721Y-73914657D01*
X182441768Y-73957301D01*
X182351732Y-74026388D01*
X182351729Y-74026391D01*
X182322964Y-74048464D01*
X182256744Y-74074063D01*
X182246262Y-74074500D01*
X179946103Y-74074500D01*
X179877982Y-74054498D01*
X179848460Y-74028136D01*
X179752906Y-73910975D01*
X179752903Y-73910972D01*
X179749011Y-73906200D01*
X179731786Y-73891950D01*
X179595025Y-73778811D01*
X179595021Y-73778809D01*
X179590275Y-73774882D01*
X179409055Y-73676897D01*
X179212254Y-73615977D01*
X179206129Y-73615333D01*
X179206128Y-73615333D01*
X179013498Y-73595087D01*
X179013496Y-73595087D01*
X179007369Y-73594443D01*
X178920529Y-73602346D01*
X178808342Y-73612555D01*
X178808339Y-73612556D01*
X178802203Y-73613114D01*
X178604572Y-73671280D01*
X178422002Y-73766726D01*
X178417201Y-73770586D01*
X178417198Y-73770588D01*
X178276861Y-73883422D01*
X178261447Y-73895815D01*
X178136691Y-74044493D01*
X178077584Y-74083818D01*
X178040172Y-74089500D01*
X167009914Y-74089500D01*
X166993468Y-74088422D01*
X166858188Y-74070612D01*
X166850000Y-74069534D01*
X166699765Y-74089313D01*
X166610685Y-74126210D01*
X166569499Y-74143270D01*
X166559767Y-74147301D01*
X166469732Y-74216388D01*
X166125570Y-74560550D01*
X166113179Y-74571417D01*
X166089549Y-74589549D01*
X166066391Y-74619729D01*
X166066388Y-74619732D01*
X166020547Y-74679474D01*
X165997302Y-74709767D01*
X165939313Y-74849764D01*
X165924500Y-74962280D01*
X165924500Y-74962286D01*
X165919535Y-75000000D01*
X165920613Y-75008188D01*
X165920613Y-75008189D01*
X165923422Y-75029526D01*
X165924500Y-75045972D01*
X165924500Y-86829434D01*
X165904498Y-86897555D01*
X165875204Y-86929396D01*
X165813568Y-86976691D01*
X165813564Y-86976695D01*
X165807018Y-86981718D01*
X165801995Y-86988264D01*
X165779241Y-87017918D01*
X165710764Y-87107159D01*
X165650256Y-87253238D01*
X165629618Y-87410000D01*
X153400500Y-87410000D01*
X153400500Y-86334004D01*
X153420502Y-86265883D01*
X153448893Y-86235834D01*
X153448476Y-86235338D01*
X153554679Y-86146066D01*
X153554680Y-86146065D01*
X153558111Y-86143181D01*
X153572398Y-86127202D01*
X153593753Y-86103318D01*
X153593757Y-86103313D01*
X153596745Y-86099971D01*
X153605726Y-86086479D01*
X153673623Y-85984480D01*
X153673626Y-85984474D01*
X153676108Y-85980746D01*
X153701061Y-85928431D01*
X153743771Y-85791725D01*
X153745800Y-85779201D01*
X153752321Y-85738935D01*
X153753038Y-85734510D01*
X153755663Y-85591311D01*
X153755110Y-85586870D01*
X153754873Y-85582387D01*
X153754974Y-85582382D01*
X153754428Y-85573578D01*
X153754428Y-85150000D01*
X153752833Y-85141979D01*
X153741288Y-85083939D01*
X153741288Y-85083938D01*
X153738867Y-85071769D01*
X153731974Y-85061453D01*
X153727223Y-85049983D01*
X153730937Y-85048445D01*
X153716472Y-85002249D01*
X153731312Y-84951711D01*
X153727223Y-84950017D01*
X153731974Y-84938547D01*
X153738867Y-84928231D01*
X153754428Y-84850000D01*
X153754428Y-84359845D01*
X153754449Y-84357536D01*
X153755581Y-84295784D01*
X153755663Y-84291311D01*
X153748498Y-84233792D01*
X153710825Y-84095612D01*
X153700164Y-84070975D01*
X153689587Y-84046534D01*
X153689585Y-84046531D01*
X153687806Y-84042419D01*
X153612866Y-83920367D01*
X153610002Y-83916917D01*
X153578705Y-83879219D01*
X153578703Y-83879217D01*
X153575843Y-83875772D01*
X153469659Y-83779658D01*
X153465953Y-83777158D01*
X153465945Y-83777152D01*
X153456039Y-83770470D01*
X153410751Y-83715793D01*
X153400500Y-83666013D01*
X153400500Y-83247619D01*
X153401578Y-83231173D01*
X153404604Y-83208188D01*
X153405682Y-83200000D01*
X153385044Y-83043238D01*
X153324536Y-82897159D01*
X153272861Y-82829815D01*
X153228282Y-82771718D01*
X153203328Y-82752570D01*
X153190938Y-82741703D01*
X143468297Y-73019062D01*
X143457429Y-73006671D01*
X143443305Y-72988264D01*
X143438282Y-72981718D01*
X143312841Y-72885464D01*
X143166762Y-72824956D01*
X143049361Y-72809500D01*
X143010000Y-72804318D01*
X143001812Y-72805396D01*
X142978827Y-72808422D01*
X142962381Y-72809500D01*
X137355713Y-72809500D01*
X137287592Y-72789498D01*
X137258070Y-72763136D01*
X137256649Y-72761393D01*
X137222982Y-72720113D01*
X137182906Y-72670975D01*
X137182903Y-72670972D01*
X137179011Y-72666200D01*
X137144209Y-72637409D01*
X137025025Y-72538811D01*
X137025021Y-72538809D01*
X137020275Y-72534882D01*
X136839055Y-72436897D01*
X136642254Y-72375977D01*
X136636129Y-72375333D01*
X136636128Y-72375333D01*
X136443498Y-72355087D01*
X136443496Y-72355087D01*
X136437369Y-72354443D01*
X136350529Y-72362346D01*
X136238342Y-72372555D01*
X136238339Y-72372556D01*
X136232203Y-72373114D01*
X136034572Y-72431280D01*
X135852002Y-72526726D01*
X135847201Y-72530586D01*
X135847198Y-72530588D01*
X135711838Y-72639420D01*
X135691447Y-72655815D01*
X135559024Y-72813630D01*
X135556056Y-72819028D01*
X135556053Y-72819033D01*
X135466617Y-72981718D01*
X135459776Y-72994162D01*
X135397484Y-73190532D01*
X135396798Y-73196649D01*
X135396797Y-73196653D01*
X135392679Y-73233368D01*
X135374520Y-73395262D01*
X135391759Y-73600553D01*
X135393458Y-73606478D01*
X135442874Y-73778811D01*
X135448544Y-73798586D01*
X135451359Y-73804063D01*
X135451360Y-73804066D01*
X135539897Y-73976341D01*
X135542712Y-73981818D01*
X135670677Y-74143270D01*
X135675370Y-74147264D01*
X135675371Y-74147265D01*
X135809131Y-74261103D01*
X135827564Y-74276791D01*
X136007398Y-74377297D01*
X136072437Y-74398429D01*
X136131042Y-74438502D01*
X136158680Y-74503898D01*
X136146574Y-74573855D01*
X136098568Y-74626162D01*
X136072646Y-74638027D01*
X135906868Y-74692212D01*
X135897359Y-74696209D01*
X135708463Y-74794542D01*
X135699738Y-74800036D01*
X135529433Y-74927905D01*
X135521726Y-74934748D01*
X135374590Y-75088717D01*
X135368104Y-75096727D01*
X135248098Y-75272649D01*
X135243000Y-75281623D01*
X135153338Y-75474783D01*
X135149775Y-75484470D01*
X135094389Y-75684183D01*
X132349536Y-75684183D01*
X132343617Y-73071010D01*
X132343654Y-73068775D01*
X132343693Y-73068676D01*
X132343657Y-73068592D01*
X132343694Y-73066309D01*
X132354372Y-72761802D01*
X132354387Y-72761393D01*
X132355508Y-72732138D01*
X132356548Y-72720113D01*
X132383161Y-72522894D01*
X132386494Y-72498191D01*
X132386665Y-72496970D01*
X132396446Y-72429540D01*
X132403286Y-72382379D01*
X132405392Y-72371347D01*
X132427374Y-72278804D01*
X132453165Y-72170226D01*
X132453657Y-72168227D01*
X132453700Y-72168061D01*
X132486511Y-72039413D01*
X132489491Y-72029464D01*
X132554612Y-71840754D01*
X132555569Y-71838083D01*
X132604287Y-71706832D01*
X132607955Y-71697995D01*
X132689813Y-71520153D01*
X132691429Y-71516775D01*
X132755334Y-71388145D01*
X132759490Y-71380460D01*
X132816332Y-71283546D01*
X132857500Y-71213358D01*
X132859848Y-71209517D01*
X132938042Y-71086655D01*
X132942478Y-71080144D01*
X133055825Y-70924533D01*
X133059083Y-70920257D01*
X133150438Y-70805529D01*
X133154984Y-70800136D01*
X133257685Y-70685056D01*
X133282804Y-70656910D01*
X133287074Y-70652358D01*
X133390205Y-70547722D01*
X133394694Y-70543387D01*
X133467073Y-70476885D01*
X133536079Y-70413483D01*
X133541389Y-70408873D01*
X133617098Y-70346774D01*
X133654743Y-70315897D01*
X133658998Y-70312557D01*
X133812953Y-70196966D01*
X133819420Y-70192420D01*
X133941079Y-70112492D01*
X133944949Y-70110049D01*
X134110603Y-70009634D01*
X134118229Y-70005366D01*
X134245902Y-69939614D01*
X134249255Y-69937950D01*
X134425901Y-69853520D01*
X134434685Y-69849724D01*
X134565257Y-69799095D01*
X134567916Y-69798100D01*
X134755608Y-69730271D01*
X134765525Y-69727144D01*
X134893875Y-69692421D01*
X134895887Y-69691895D01*
X135096248Y-69641225D01*
X135107250Y-69638959D01*
X135221553Y-69620686D01*
X135222786Y-69620495D01*
X135391346Y-69595257D01*
X135444295Y-69587330D01*
X135456298Y-69586117D01*
X135484674Y-69584617D01*
X135485086Y-69584596D01*
X135678532Y-69575005D01*
X135789233Y-69569517D01*
X135796612Y-69569367D01*
X185954349Y-70034566D01*
G37*
G04 #@! TD.AperFunction*
G04 #@! TA.AperFunction,Conductor*
G36*
X136217021Y-111848147D02*
G01*
X141987295Y-117618421D01*
X142021321Y-117680733D01*
X142024200Y-117707516D01*
X142024200Y-119767090D01*
X142023720Y-119778072D01*
X142021488Y-119803586D01*
X142020436Y-119815607D01*
X142023290Y-119826256D01*
X142030191Y-119852010D01*
X142032570Y-119862742D01*
X142039112Y-119899845D01*
X142044623Y-119909390D01*
X142045815Y-119912666D01*
X142047292Y-119915834D01*
X142050146Y-119926484D01*
X142056470Y-119935515D01*
X142071755Y-119957344D01*
X142077661Y-119966615D01*
X142089326Y-119986818D01*
X142096506Y-119999255D01*
X142125382Y-120023485D01*
X142133485Y-120030911D01*
X142871150Y-120768576D01*
X142905176Y-120830888D01*
X142900111Y-120901703D01*
X142861006Y-120955868D01*
X142791258Y-121011946D01*
X142791253Y-121011951D01*
X142786447Y-121015815D01*
X142654024Y-121173630D01*
X142651056Y-121179028D01*
X142651053Y-121179033D01*
X142609307Y-121254970D01*
X142554776Y-121354162D01*
X142492484Y-121550532D01*
X142491798Y-121556649D01*
X142491797Y-121556653D01*
X142471733Y-121735532D01*
X142469520Y-121755262D01*
X142470036Y-121761406D01*
X142484749Y-121936612D01*
X142486759Y-121960553D01*
X142488458Y-121966478D01*
X142541506Y-122151478D01*
X142543544Y-122158586D01*
X142546359Y-122164063D01*
X142546360Y-122164066D01*
X142634897Y-122336341D01*
X142637712Y-122341818D01*
X142765677Y-122503270D01*
X142770370Y-122507264D01*
X142770371Y-122507265D01*
X142905299Y-122622097D01*
X142922564Y-122636791D01*
X143102398Y-122737297D01*
X143197238Y-122768113D01*
X143292471Y-122799056D01*
X143292475Y-122799057D01*
X143298329Y-122800959D01*
X143502894Y-122825351D01*
X143509029Y-122824879D01*
X143509031Y-122824879D01*
X143565039Y-122820569D01*
X143708300Y-122809546D01*
X143714230Y-122807890D01*
X143714232Y-122807890D01*
X143900797Y-122755800D01*
X143900796Y-122755800D01*
X143906725Y-122754145D01*
X143912214Y-122751372D01*
X143912220Y-122751370D01*
X144085116Y-122664033D01*
X144090610Y-122661258D01*
X144095462Y-122657467D01*
X144095467Y-122657464D01*
X144187627Y-122585461D01*
X144253621Y-122559283D01*
X144323292Y-122572941D01*
X144374519Y-122622097D01*
X144391200Y-122684750D01*
X144391200Y-122876583D01*
X144371198Y-122944704D01*
X144354295Y-122965678D01*
X142694084Y-124625890D01*
X142685981Y-124633316D01*
X142657106Y-124657545D01*
X142651593Y-124667094D01*
X142638261Y-124690185D01*
X142632355Y-124699456D01*
X142610746Y-124730316D01*
X142607892Y-124740966D01*
X142606415Y-124744134D01*
X142605223Y-124747410D01*
X142599712Y-124756955D01*
X142593762Y-124790699D01*
X142593170Y-124794058D01*
X142590792Y-124804785D01*
X142581036Y-124841193D01*
X142581997Y-124852178D01*
X142581997Y-124852180D01*
X142584320Y-124878728D01*
X142584800Y-124889710D01*
X142584800Y-126120061D01*
X142564798Y-126188182D01*
X142511142Y-126234675D01*
X142440868Y-126244779D01*
X142380708Y-126218943D01*
X142348140Y-126193222D01*
X142339552Y-126187517D01*
X142153117Y-126084599D01*
X142143705Y-126080369D01*
X141942959Y-126009280D01*
X141932988Y-126006646D01*
X141861837Y-125993972D01*
X141848540Y-125995432D01*
X141844000Y-126009989D01*
X141844000Y-129993000D01*
X141823998Y-130061121D01*
X141770342Y-130107614D01*
X141718000Y-130119000D01*
X141462000Y-130119000D01*
X141393879Y-130098998D01*
X141347386Y-130045342D01*
X141336000Y-129993000D01*
X141336000Y-126008102D01*
X141332082Y-125994758D01*
X141317806Y-125992771D01*
X141279324Y-125998660D01*
X141269288Y-126001051D01*
X141066868Y-126067212D01*
X141057359Y-126071209D01*
X140868463Y-126169542D01*
X140859738Y-126175036D01*
X140752553Y-126255513D01*
X140686068Y-126280419D01*
X140616672Y-126265427D01*
X140566399Y-126215296D01*
X140550900Y-126154753D01*
X140550900Y-120497710D01*
X140551380Y-120486728D01*
X140553703Y-120460180D01*
X140553703Y-120460178D01*
X140554664Y-120449193D01*
X140544908Y-120412785D01*
X140542530Y-120402058D01*
X140539381Y-120384201D01*
X140535988Y-120364955D01*
X140530477Y-120355410D01*
X140529285Y-120352134D01*
X140527808Y-120348966D01*
X140524954Y-120338316D01*
X140503345Y-120307456D01*
X140497439Y-120298185D01*
X140484107Y-120275094D01*
X140478594Y-120265545D01*
X140449717Y-120241315D01*
X140441615Y-120233889D01*
X135596511Y-115388785D01*
X135589085Y-115380682D01*
X135569553Y-115357405D01*
X135541088Y-115292365D01*
X135552305Y-115222260D01*
X135588501Y-115177124D01*
X135683095Y-115103219D01*
X135683101Y-115103213D01*
X135687951Y-115099424D01*
X135692024Y-115094706D01*
X135818540Y-114948134D01*
X135818540Y-114948133D01*
X135822564Y-114943472D01*
X135832469Y-114926037D01*
X135921276Y-114769707D01*
X135924323Y-114764344D01*
X135989351Y-114568863D01*
X136015171Y-114364474D01*
X136015484Y-114342100D01*
X136015534Y-114338522D01*
X136015534Y-114338518D01*
X136015583Y-114335000D01*
X135995480Y-114129970D01*
X135935935Y-113932749D01*
X135839218Y-113750849D01*
X135765859Y-113660902D01*
X135712906Y-113595975D01*
X135712903Y-113595972D01*
X135709011Y-113591200D01*
X135647143Y-113540018D01*
X135555025Y-113463811D01*
X135555021Y-113463809D01*
X135550275Y-113459882D01*
X135413091Y-113385707D01*
X135374474Y-113364827D01*
X135369055Y-113361897D01*
X135301968Y-113341130D01*
X135242808Y-113301879D01*
X135214261Y-113236874D01*
X135225390Y-113166755D01*
X135233803Y-113153645D01*
X135233643Y-113153552D01*
X135239157Y-113144002D01*
X135246240Y-113135561D01*
X135250008Y-113125208D01*
X135250011Y-113125203D01*
X135252363Y-113118740D01*
X135261644Y-113098836D01*
X135265076Y-113092892D01*
X135270588Y-113083345D01*
X135272502Y-113072491D01*
X135272504Y-113072485D01*
X135273696Y-113065724D01*
X135279378Y-113044516D01*
X135281730Y-113038052D01*
X135285500Y-113027694D01*
X135285500Y-112885062D01*
X135305502Y-112816941D01*
X135354690Y-112772596D01*
X135520113Y-112689035D01*
X135520115Y-112689034D01*
X135525610Y-112686258D01*
X135687951Y-112559424D01*
X135692024Y-112554706D01*
X135818540Y-112408134D01*
X135818540Y-112408133D01*
X135822564Y-112403472D01*
X135840588Y-112371745D01*
X135873920Y-112313069D01*
X135924323Y-112224344D01*
X135989351Y-112028863D01*
X136002921Y-111921446D01*
X136031301Y-111856374D01*
X136090361Y-111816972D01*
X136161347Y-111815755D01*
X136217021Y-111848147D01*
G37*
G04 #@! TD.AperFunction*
G04 #@! TA.AperFunction,Conductor*
G36*
X142744054Y-90365502D02*
G01*
X142790547Y-90419158D01*
X142800651Y-90489432D01*
X142772454Y-90552491D01*
X142766371Y-90559740D01*
X142654024Y-90693630D01*
X142651056Y-90699028D01*
X142651053Y-90699033D01*
X142566453Y-90852922D01*
X142554776Y-90874162D01*
X142492484Y-91070532D01*
X142491798Y-91076649D01*
X142491797Y-91076653D01*
X142470207Y-91269137D01*
X142469520Y-91275262D01*
X142486759Y-91480553D01*
X142488458Y-91486478D01*
X142533481Y-91643491D01*
X142543544Y-91678586D01*
X142546359Y-91684063D01*
X142546360Y-91684066D01*
X142622970Y-91833134D01*
X142637712Y-91861818D01*
X142765677Y-92023270D01*
X142922564Y-92156791D01*
X143102398Y-92257297D01*
X143197238Y-92288113D01*
X143292471Y-92319056D01*
X143292475Y-92319057D01*
X143298329Y-92320959D01*
X143502894Y-92345351D01*
X143509029Y-92344879D01*
X143509031Y-92344879D01*
X143565039Y-92340569D01*
X143708300Y-92329546D01*
X143714230Y-92327890D01*
X143714232Y-92327890D01*
X143900797Y-92275800D01*
X143900796Y-92275800D01*
X143906725Y-92274145D01*
X143912214Y-92271372D01*
X143912220Y-92271370D01*
X144085116Y-92184033D01*
X144090610Y-92181258D01*
X144252951Y-92054424D01*
X144310103Y-91988213D01*
X144383540Y-91903134D01*
X144383540Y-91903133D01*
X144387564Y-91898472D01*
X144408387Y-91861818D01*
X144486276Y-91724707D01*
X144489323Y-91719344D01*
X144554351Y-91523863D01*
X144567640Y-91418669D01*
X144596022Y-91353592D01*
X144655081Y-91314191D01*
X144726067Y-91312974D01*
X144781741Y-91345366D01*
X148537595Y-95101220D01*
X148571621Y-95163532D01*
X148574500Y-95190315D01*
X148574500Y-96484465D01*
X148554498Y-96552586D01*
X148520292Y-96586513D01*
X148520926Y-96587375D01*
X148517305Y-96590038D01*
X148513521Y-96592425D01*
X148469380Y-96629992D01*
X148466409Y-96633356D01*
X148386806Y-96723491D01*
X148374572Y-96737343D01*
X148342752Y-96785785D01*
X148340848Y-96789841D01*
X148340846Y-96789844D01*
X148307802Y-96860226D01*
X148281883Y-96915430D01*
X148280574Y-96919713D01*
X148280572Y-96919717D01*
X148276418Y-96933305D01*
X148264936Y-96970861D01*
X148264247Y-96975284D01*
X148264246Y-96975290D01*
X148243698Y-97107265D01*
X148242902Y-97112379D01*
X148242847Y-97116845D01*
X148242847Y-97116850D01*
X148242516Y-97143958D01*
X148242194Y-97170335D01*
X148242775Y-97174777D01*
X148242775Y-97174780D01*
X148243294Y-97178747D01*
X148244435Y-97187469D01*
X148244508Y-97188031D01*
X148245572Y-97204368D01*
X148245572Y-97585480D01*
X148244072Y-97604863D01*
X148242902Y-97612379D01*
X148242847Y-97616845D01*
X148242847Y-97616850D01*
X148242558Y-97640561D01*
X148242194Y-97670335D01*
X148242775Y-97674777D01*
X148242775Y-97674780D01*
X148246099Y-97700201D01*
X148260764Y-97812349D01*
X148261969Y-97816665D01*
X148261970Y-97816670D01*
X148264498Y-97825724D01*
X148276351Y-97868177D01*
X148278157Y-97872282D01*
X148278158Y-97872284D01*
X148327092Y-97983494D01*
X148334034Y-97999270D01*
X148351124Y-98026726D01*
X148355924Y-98034437D01*
X148364662Y-98048476D01*
X148367547Y-98051908D01*
X148367552Y-98051915D01*
X148451640Y-98151950D01*
X148456819Y-98158111D01*
X148460161Y-98161099D01*
X148496682Y-98193753D01*
X148496687Y-98193757D01*
X148500029Y-98196745D01*
X148503762Y-98199230D01*
X148503766Y-98199233D01*
X148615520Y-98273623D01*
X148615526Y-98273626D01*
X148619254Y-98276108D01*
X148623300Y-98278038D01*
X148623302Y-98278039D01*
X148643139Y-98287501D01*
X148671569Y-98301061D01*
X148675851Y-98302399D01*
X148675854Y-98302400D01*
X148755308Y-98327223D01*
X148808275Y-98343771D01*
X148812699Y-98344488D01*
X148812701Y-98344488D01*
X148819215Y-98345543D01*
X148865490Y-98353038D01*
X149008689Y-98355663D01*
X149013130Y-98355110D01*
X149017613Y-98354873D01*
X149017618Y-98354974D01*
X149026422Y-98354428D01*
X149450000Y-98354428D01*
X149460593Y-98352321D01*
X149516061Y-98341288D01*
X149516062Y-98341288D01*
X149528231Y-98338867D01*
X149538547Y-98331974D01*
X149550017Y-98327223D01*
X149551555Y-98330937D01*
X149597751Y-98316472D01*
X149648289Y-98331312D01*
X149649983Y-98327223D01*
X149661453Y-98331974D01*
X149671769Y-98338867D01*
X149683938Y-98341288D01*
X149683939Y-98341288D01*
X149739407Y-98352321D01*
X149750000Y-98354428D01*
X150240155Y-98354428D01*
X150242463Y-98354449D01*
X150308689Y-98355663D01*
X150335518Y-98352321D01*
X150361771Y-98349051D01*
X150361775Y-98349050D01*
X150366208Y-98348498D01*
X150504388Y-98310825D01*
X150508488Y-98309051D01*
X150508493Y-98309049D01*
X150553466Y-98289587D01*
X150553469Y-98289585D01*
X150557581Y-98287806D01*
X150679633Y-98212866D01*
X150683083Y-98210002D01*
X150720781Y-98178705D01*
X150720783Y-98178703D01*
X150724228Y-98175843D01*
X150773058Y-98121897D01*
X150795645Y-98096944D01*
X150856189Y-98059863D01*
X150889060Y-98055500D01*
X154741665Y-98055500D01*
X154809786Y-98075502D01*
X154856279Y-98129158D01*
X154866383Y-98199432D01*
X154845753Y-98252505D01*
X154733095Y-98417655D01*
X154728000Y-98426623D01*
X154638338Y-98619783D01*
X154634775Y-98629470D01*
X154579389Y-98829183D01*
X154580912Y-98837607D01*
X154593292Y-98841000D01*
X157233344Y-98841000D01*
X157246875Y-98837027D01*
X157248180Y-98827947D01*
X157206214Y-98660875D01*
X157202894Y-98651124D01*
X157117972Y-98455814D01*
X157113105Y-98446739D01*
X156997426Y-98267925D01*
X156990075Y-98258380D01*
X156964358Y-98192206D01*
X156978500Y-98122632D01*
X157028011Y-98071748D01*
X157089902Y-98055500D01*
X157542984Y-98055500D01*
X157611105Y-98075502D01*
X157632079Y-98092405D01*
X159617291Y-100077618D01*
X159651317Y-100139930D01*
X159653118Y-100183158D01*
X159644318Y-100250000D01*
X159664956Y-100406762D01*
X159725464Y-100552841D01*
X159821718Y-100678282D01*
X159828264Y-100683305D01*
X159850729Y-100700543D01*
X159947159Y-100774536D01*
X160093238Y-100835044D01*
X160101426Y-100836122D01*
X160222895Y-100852114D01*
X160287822Y-100880837D01*
X160326913Y-100940102D01*
X160327758Y-101011094D01*
X160295543Y-101066131D01*
X158248039Y-103113635D01*
X158185727Y-103147661D01*
X158114912Y-103142596D01*
X158058076Y-103100049D01*
X158033265Y-103033529D01*
X158034022Y-103008093D01*
X158034199Y-103006755D01*
X158043382Y-102937000D01*
X158022744Y-102780238D01*
X157962236Y-102634159D01*
X157879269Y-102526034D01*
X157871005Y-102515264D01*
X157865982Y-102508718D01*
X157740541Y-102412464D01*
X157594462Y-102351956D01*
X157437700Y-102331318D01*
X157280938Y-102351956D01*
X157134859Y-102412464D01*
X157009418Y-102508718D01*
X157004395Y-102515264D01*
X156968377Y-102562204D01*
X156911039Y-102604071D01*
X156868414Y-102611500D01*
X156734400Y-102611500D01*
X156666279Y-102591498D01*
X156619786Y-102537842D01*
X156609682Y-102467568D01*
X156639176Y-102402988D01*
X156641480Y-102400574D01*
X156642951Y-102399424D01*
X156646506Y-102395305D01*
X156646515Y-102395296D01*
X156773540Y-102248134D01*
X156773540Y-102248133D01*
X156777564Y-102243472D01*
X156798387Y-102206818D01*
X156838392Y-102136395D01*
X156879323Y-102064344D01*
X156944351Y-101868863D01*
X156970171Y-101664474D01*
X156970423Y-101646478D01*
X156970534Y-101638522D01*
X156970534Y-101638518D01*
X156970583Y-101635000D01*
X156950480Y-101429970D01*
X156890935Y-101232749D01*
X156794218Y-101050849D01*
X156678597Y-100909084D01*
X156667906Y-100895975D01*
X156667903Y-100895972D01*
X156664011Y-100891200D01*
X156657173Y-100885543D01*
X156510025Y-100763811D01*
X156510021Y-100763809D01*
X156505275Y-100759882D01*
X156324055Y-100661897D01*
X156273183Y-100646150D01*
X156214025Y-100606899D01*
X156185477Y-100541895D01*
X156196605Y-100471776D01*
X156243876Y-100418804D01*
X156274235Y-100405099D01*
X156407255Y-100365191D01*
X156416842Y-100361433D01*
X156608095Y-100267739D01*
X156616945Y-100262464D01*
X156790328Y-100138792D01*
X156798200Y-100132139D01*
X156949052Y-99981812D01*
X156955730Y-99973965D01*
X157080003Y-99801020D01*
X157085313Y-99792183D01*
X157179670Y-99601267D01*
X157183469Y-99591672D01*
X157245377Y-99387910D01*
X157247555Y-99377837D01*
X157248986Y-99366962D01*
X157246775Y-99352778D01*
X157233617Y-99349000D01*
X154598225Y-99349000D01*
X154584694Y-99352973D01*
X154583257Y-99362966D01*
X154613565Y-99497446D01*
X154616645Y-99507275D01*
X154696770Y-99704603D01*
X154701413Y-99713794D01*
X154812694Y-99895388D01*
X154818777Y-99903699D01*
X154958213Y-100064667D01*
X154965580Y-100071883D01*
X155129434Y-100207916D01*
X155137881Y-100213831D01*
X155321756Y-100321279D01*
X155331042Y-100325729D01*
X155530001Y-100401703D01*
X155544866Y-100406022D01*
X155544289Y-100408008D01*
X155599260Y-100437082D01*
X155634110Y-100498936D01*
X155629988Y-100569813D01*
X155588201Y-100627209D01*
X155546930Y-100648228D01*
X155525489Y-100654538D01*
X155525484Y-100654540D01*
X155519572Y-100656280D01*
X155337002Y-100751726D01*
X155332201Y-100755586D01*
X155332198Y-100755588D01*
X155207706Y-100855682D01*
X155176447Y-100880815D01*
X155044024Y-101038630D01*
X155041056Y-101044028D01*
X155041053Y-101044033D01*
X154999107Y-101120334D01*
X154944776Y-101219162D01*
X154882484Y-101415532D01*
X154881798Y-101421649D01*
X154881797Y-101421653D01*
X154872774Y-101502097D01*
X154859520Y-101620262D01*
X154860036Y-101626406D01*
X154875779Y-101813878D01*
X154876759Y-101825553D01*
X154880496Y-101838586D01*
X154931504Y-102016471D01*
X154933544Y-102023586D01*
X154936359Y-102029063D01*
X154936360Y-102029066D01*
X154993252Y-102139766D01*
X155027712Y-102206818D01*
X155155677Y-102368270D01*
X155160371Y-102372265D01*
X155160372Y-102372266D01*
X155180677Y-102389547D01*
X155219589Y-102448929D01*
X155220220Y-102519923D01*
X155182368Y-102579988D01*
X155118052Y-102610053D01*
X155099013Y-102611500D01*
X152324016Y-102611500D01*
X152255895Y-102591498D01*
X152234921Y-102574595D01*
X152232709Y-102572383D01*
X152198683Y-102510071D01*
X152196882Y-102466842D01*
X152198892Y-102451579D01*
X152205682Y-102400000D01*
X152185044Y-102243238D01*
X152124536Y-102097159D01*
X152039546Y-101986398D01*
X152033305Y-101978264D01*
X152028282Y-101971718D01*
X151902841Y-101875464D01*
X151756762Y-101814956D01*
X151714135Y-101809344D01*
X151608188Y-101795396D01*
X151600000Y-101794318D01*
X151533157Y-101803118D01*
X151463010Y-101792179D01*
X151427617Y-101767291D01*
X151041559Y-101381233D01*
X151007533Y-101318921D01*
X151005928Y-101310009D01*
X151005698Y-101308403D01*
X151004428Y-101290559D01*
X151004428Y-100919610D01*
X151005975Y-100901085D01*
X151005871Y-100901072D01*
X151006171Y-100898740D01*
X151006174Y-100898707D01*
X151006180Y-100898669D01*
X151006586Y-100896257D01*
X151009404Y-100864842D01*
X151009555Y-100852500D01*
X151007505Y-100821018D01*
X151000848Y-100774536D01*
X150987838Y-100683686D01*
X150987837Y-100683680D01*
X150987201Y-100679241D01*
X150985007Y-100671736D01*
X150972191Y-100627911D01*
X150970933Y-100623609D01*
X150941735Y-100559392D01*
X150913508Y-100497309D01*
X150913506Y-100497305D01*
X150911653Y-100493230D01*
X150880426Y-100444401D01*
X150872808Y-100435560D01*
X150789860Y-100339293D01*
X150789857Y-100339290D01*
X150786936Y-100335900D01*
X150783567Y-100332961D01*
X150783563Y-100332957D01*
X150758886Y-100311430D01*
X150743258Y-100297797D01*
X150734969Y-100292424D01*
X150626842Y-100222340D01*
X150626843Y-100222340D01*
X150623073Y-100219897D01*
X150570455Y-100195585D01*
X150566157Y-100194300D01*
X150566150Y-100194297D01*
X150437537Y-100155835D01*
X150437538Y-100155835D01*
X150433237Y-100154549D01*
X150375914Y-100145982D01*
X150305470Y-100145552D01*
X150237171Y-100145134D01*
X150237166Y-100145134D01*
X150232693Y-100145107D01*
X150230220Y-100145446D01*
X150226365Y-100145571D01*
X149800000Y-100145571D01*
X149793932Y-100146778D01*
X149733939Y-100158711D01*
X149733938Y-100158711D01*
X149721769Y-100161132D01*
X149711453Y-100168025D01*
X149699983Y-100172776D01*
X149698445Y-100169062D01*
X149652249Y-100183527D01*
X149601711Y-100168687D01*
X149600017Y-100172776D01*
X149588547Y-100168025D01*
X149578231Y-100161132D01*
X149566062Y-100158711D01*
X149566061Y-100158711D01*
X149506068Y-100146778D01*
X149500000Y-100145571D01*
X149009084Y-100145571D01*
X149008314Y-100145569D01*
X148937179Y-100145134D01*
X148937173Y-100145134D01*
X148932693Y-100145107D01*
X148928250Y-100145716D01*
X148928244Y-100145716D01*
X148905115Y-100148885D01*
X148875268Y-100152973D01*
X148870961Y-100154204D01*
X148870956Y-100154205D01*
X148820285Y-100168687D01*
X148737559Y-100192330D01*
X148684649Y-100215998D01*
X148680867Y-100218384D01*
X148680860Y-100218388D01*
X148580745Y-100281556D01*
X148512460Y-100300990D01*
X148444508Y-100280421D01*
X148424415Y-100264089D01*
X147262405Y-99102079D01*
X147228379Y-99039767D01*
X147225500Y-99012984D01*
X147225500Y-96745110D01*
X147225980Y-96734128D01*
X147228303Y-96707580D01*
X147228303Y-96707578D01*
X147229264Y-96696593D01*
X147219508Y-96660185D01*
X147217130Y-96649458D01*
X147214291Y-96633356D01*
X147210588Y-96612355D01*
X147205077Y-96602810D01*
X147203885Y-96599534D01*
X147202408Y-96596366D01*
X147199554Y-96585716D01*
X147177945Y-96554856D01*
X147172039Y-96545585D01*
X147158707Y-96522494D01*
X147153194Y-96512945D01*
X147124317Y-96488715D01*
X147116215Y-96481289D01*
X145608611Y-94973685D01*
X145601184Y-94965581D01*
X145584041Y-94945151D01*
X145584042Y-94945151D01*
X145576955Y-94936706D01*
X145560762Y-94927357D01*
X145544315Y-94917861D01*
X145535044Y-94911955D01*
X145513215Y-94896670D01*
X145504184Y-94890346D01*
X145493534Y-94887492D01*
X145490366Y-94886015D01*
X145487090Y-94884823D01*
X145477545Y-94879312D01*
X145443801Y-94873362D01*
X145440442Y-94872770D01*
X145429715Y-94870392D01*
X145393307Y-94860636D01*
X145382322Y-94861597D01*
X145382320Y-94861597D01*
X145355772Y-94863920D01*
X145344790Y-94864400D01*
X144273328Y-94864400D01*
X144205207Y-94844398D01*
X144158714Y-94790742D01*
X144148610Y-94720468D01*
X144178104Y-94655888D01*
X144195755Y-94639110D01*
X144252951Y-94594424D01*
X144259517Y-94586818D01*
X144383540Y-94443134D01*
X144383540Y-94443133D01*
X144387564Y-94438472D01*
X144391085Y-94432275D01*
X144458982Y-94312753D01*
X144489323Y-94259344D01*
X144554351Y-94063863D01*
X144580171Y-93859474D01*
X144580583Y-93830000D01*
X144560480Y-93624970D01*
X144500935Y-93427749D01*
X144404218Y-93245849D01*
X144286089Y-93101009D01*
X144277906Y-93090975D01*
X144277903Y-93090972D01*
X144274011Y-93086200D01*
X144246591Y-93063516D01*
X144120025Y-92958811D01*
X144120021Y-92958809D01*
X144115275Y-92954882D01*
X143934055Y-92856897D01*
X143737254Y-92795977D01*
X143731129Y-92795333D01*
X143731128Y-92795333D01*
X143538498Y-92775087D01*
X143538496Y-92775087D01*
X143532369Y-92774443D01*
X143445529Y-92782346D01*
X143333342Y-92792555D01*
X143333339Y-92792556D01*
X143327203Y-92793114D01*
X143129572Y-92851280D01*
X142947002Y-92946726D01*
X142942201Y-92950586D01*
X142942198Y-92950588D01*
X142824988Y-93044827D01*
X142786447Y-93075815D01*
X142654024Y-93233630D01*
X142651056Y-93239028D01*
X142651053Y-93239033D01*
X142578098Y-93371739D01*
X142554776Y-93414162D01*
X142552913Y-93420035D01*
X142499810Y-93587439D01*
X142492484Y-93610532D01*
X142491798Y-93616649D01*
X142491797Y-93616653D01*
X142471046Y-93801653D01*
X142469520Y-93815262D01*
X142470036Y-93821406D01*
X142486171Y-94013547D01*
X142486759Y-94020553D01*
X142488458Y-94026478D01*
X142541506Y-94211478D01*
X142543544Y-94218586D01*
X142546359Y-94224063D01*
X142546360Y-94224066D01*
X142622970Y-94373134D01*
X142637712Y-94401818D01*
X142765677Y-94563270D01*
X142770370Y-94567264D01*
X142770371Y-94567265D01*
X142858709Y-94642446D01*
X142897622Y-94701829D01*
X142898253Y-94772822D01*
X142860402Y-94832887D01*
X142796085Y-94862953D01*
X142777046Y-94864400D01*
X139109810Y-94864400D01*
X139098828Y-94863920D01*
X139072280Y-94861597D01*
X139072278Y-94861597D01*
X139061293Y-94860636D01*
X139050641Y-94863490D01*
X139039661Y-94864451D01*
X139039534Y-94862999D01*
X138980444Y-94861594D01*
X138921647Y-94821801D01*
X138893697Y-94756538D01*
X138905849Y-94685749D01*
X138984670Y-94526267D01*
X138988469Y-94516672D01*
X139050377Y-94312910D01*
X139052555Y-94302837D01*
X139053986Y-94291962D01*
X139051775Y-94277778D01*
X139038617Y-94274000D01*
X136403225Y-94274000D01*
X136389694Y-94277973D01*
X136388257Y-94287966D01*
X136418565Y-94422446D01*
X136421645Y-94432275D01*
X136501770Y-94629603D01*
X136506413Y-94638794D01*
X136617694Y-94820388D01*
X136623777Y-94828699D01*
X136763213Y-94989667D01*
X136770580Y-94996883D01*
X136934434Y-95132916D01*
X136942881Y-95138831D01*
X137126756Y-95246279D01*
X137136042Y-95250729D01*
X137335001Y-95326703D01*
X137349866Y-95331022D01*
X137349289Y-95333008D01*
X137404260Y-95362082D01*
X137439110Y-95423936D01*
X137434988Y-95494813D01*
X137393201Y-95552209D01*
X137351930Y-95573228D01*
X137330489Y-95579538D01*
X137330484Y-95579540D01*
X137324572Y-95581280D01*
X137142002Y-95676726D01*
X137137201Y-95680586D01*
X137137198Y-95680588D01*
X136992473Y-95796950D01*
X136981447Y-95805815D01*
X136849024Y-95963630D01*
X136846056Y-95969028D01*
X136846053Y-95969033D01*
X136782287Y-96085024D01*
X136749776Y-96144162D01*
X136745181Y-96158649D01*
X136706902Y-96279319D01*
X136667239Y-96338203D01*
X136602036Y-96366295D01*
X136531997Y-96354678D01*
X136479357Y-96307038D01*
X136460800Y-96241220D01*
X136460800Y-96017913D01*
X136461279Y-96006932D01*
X136463603Y-95980370D01*
X136463603Y-95980368D01*
X136464563Y-95969393D01*
X136454808Y-95932983D01*
X136452433Y-95922272D01*
X136448137Y-95897910D01*
X136445888Y-95885155D01*
X136440379Y-95875612D01*
X136439188Y-95872340D01*
X136437708Y-95869167D01*
X136434854Y-95858516D01*
X136413245Y-95827656D01*
X136407339Y-95818385D01*
X136394007Y-95795294D01*
X136388494Y-95785745D01*
X136359617Y-95761515D01*
X136351515Y-95754089D01*
X135614005Y-95016579D01*
X135579979Y-94954267D01*
X135585044Y-94883452D01*
X135625528Y-94828194D01*
X135683097Y-94783217D01*
X135683101Y-94783213D01*
X135687951Y-94779424D01*
X135699009Y-94766614D01*
X135818540Y-94628134D01*
X135818540Y-94628133D01*
X135822564Y-94623472D01*
X135843387Y-94586818D01*
X135893085Y-94499333D01*
X135924323Y-94444344D01*
X135989351Y-94248863D01*
X136015171Y-94044474D01*
X136015423Y-94026478D01*
X136015534Y-94018522D01*
X136015534Y-94018518D01*
X136015583Y-94015000D01*
X135995480Y-93809970D01*
X135935935Y-93612749D01*
X135839218Y-93430849D01*
X135765859Y-93340902D01*
X135712906Y-93275975D01*
X135712903Y-93275972D01*
X135709011Y-93271200D01*
X135621718Y-93198985D01*
X135581979Y-93140151D01*
X135580357Y-93069173D01*
X135617367Y-93008586D01*
X135681257Y-92977625D01*
X135702033Y-92975900D01*
X135929890Y-92975900D01*
X135940872Y-92976380D01*
X135967420Y-92978703D01*
X135967422Y-92978703D01*
X135978407Y-92979664D01*
X136014815Y-92969908D01*
X136025542Y-92967530D01*
X136031292Y-92966516D01*
X136062645Y-92960988D01*
X136072190Y-92955477D01*
X136075466Y-92954285D01*
X136078634Y-92952808D01*
X136089284Y-92949954D01*
X136120144Y-92928345D01*
X136129415Y-92922439D01*
X136152506Y-92909107D01*
X136162055Y-92903594D01*
X136186285Y-92874717D01*
X136193711Y-92866615D01*
X136351615Y-92708711D01*
X136359719Y-92701284D01*
X136380149Y-92684141D01*
X136388594Y-92677055D01*
X136397359Y-92661874D01*
X136407439Y-92644415D01*
X136413345Y-92635144D01*
X136428630Y-92613315D01*
X136434954Y-92604284D01*
X136437808Y-92593634D01*
X136439285Y-92590466D01*
X136440477Y-92587190D01*
X136445988Y-92577645D01*
X136452530Y-92540542D01*
X136454909Y-92529810D01*
X136456064Y-92525500D01*
X136464664Y-92493407D01*
X136463903Y-92484706D01*
X136489252Y-92419902D01*
X136546757Y-92378263D01*
X136617644Y-92374323D01*
X136679408Y-92409333D01*
X136693673Y-92427000D01*
X136718554Y-92464236D01*
X136718557Y-92464239D01*
X136725448Y-92474552D01*
X136791769Y-92518867D01*
X136803938Y-92521288D01*
X136803939Y-92521288D01*
X136819047Y-92524293D01*
X136850252Y-92530500D01*
X137125233Y-92530500D01*
X137193354Y-92550502D01*
X137239847Y-92604158D01*
X137249951Y-92674432D01*
X137220457Y-92739012D01*
X137183413Y-92768263D01*
X136998463Y-92864542D01*
X136989738Y-92870036D01*
X136819433Y-92997905D01*
X136811726Y-93004748D01*
X136664590Y-93158717D01*
X136658104Y-93166727D01*
X136538098Y-93342649D01*
X136533000Y-93351623D01*
X136443338Y-93544783D01*
X136439775Y-93554470D01*
X136384389Y-93754183D01*
X136385912Y-93762607D01*
X136398292Y-93766000D01*
X139038344Y-93766000D01*
X139051875Y-93762027D01*
X139053180Y-93752947D01*
X139011214Y-93585875D01*
X139007894Y-93576124D01*
X138922972Y-93380814D01*
X138918105Y-93371739D01*
X138802426Y-93192926D01*
X138796136Y-93184757D01*
X138652806Y-93027240D01*
X138645273Y-93020215D01*
X138478139Y-92888222D01*
X138469552Y-92882517D01*
X138283117Y-92779599D01*
X138273705Y-92775369D01*
X138273435Y-92775273D01*
X138273341Y-92775205D01*
X138268989Y-92773249D01*
X138269393Y-92772351D01*
X138215899Y-92733679D01*
X138189983Y-92667581D01*
X138203917Y-92597965D01*
X138253276Y-92546934D01*
X138315495Y-92530500D01*
X138589748Y-92530500D01*
X138620953Y-92524293D01*
X138636061Y-92521288D01*
X138636062Y-92521288D01*
X138648231Y-92518867D01*
X138714552Y-92474552D01*
X138758867Y-92408231D01*
X138762283Y-92391061D01*
X138769293Y-92355816D01*
X138770500Y-92349748D01*
X138770500Y-90942017D01*
X138790502Y-90873896D01*
X138807405Y-90852922D01*
X139277922Y-90382405D01*
X139340234Y-90348379D01*
X139367017Y-90345500D01*
X142675933Y-90345500D01*
X142744054Y-90365502D01*
G37*
G04 #@! TD.AperFunction*
G04 #@! TA.AperFunction,Conductor*
G36*
X146747196Y-81650502D02*
G01*
X146768170Y-81667405D01*
X149308934Y-84208169D01*
X149342960Y-84270481D01*
X149345837Y-84298034D01*
X149345214Y-84400035D01*
X149345108Y-84417307D01*
X149345447Y-84419780D01*
X149345572Y-84423635D01*
X149345572Y-84850000D01*
X149361133Y-84928231D01*
X149368026Y-84938547D01*
X149372777Y-84950017D01*
X149369063Y-84951555D01*
X149383528Y-84997751D01*
X149368688Y-85048289D01*
X149372777Y-85049983D01*
X149368026Y-85061453D01*
X149361133Y-85071769D01*
X149358712Y-85083938D01*
X149358712Y-85083939D01*
X149347167Y-85141979D01*
X149345572Y-85150000D01*
X149345572Y-85640916D01*
X149345570Y-85641686D01*
X149345173Y-85706695D01*
X149345108Y-85717307D01*
X149352974Y-85774732D01*
X149354205Y-85779039D01*
X149354206Y-85779044D01*
X149368273Y-85828264D01*
X149392331Y-85912441D01*
X149415999Y-85965351D01*
X149418385Y-85969133D01*
X149418389Y-85969140D01*
X149428068Y-85984480D01*
X149492425Y-86086479D01*
X149529992Y-86130620D01*
X149637343Y-86225428D01*
X149642676Y-86228931D01*
X149643085Y-86229412D01*
X149644650Y-86230608D01*
X149644390Y-86230949D01*
X149688630Y-86283047D01*
X149699500Y-86334243D01*
X149699500Y-96346123D01*
X149679498Y-96414244D01*
X149625842Y-96460737D01*
X149555568Y-96470841D01*
X149533837Y-96464879D01*
X149528231Y-96461133D01*
X149516062Y-96458712D01*
X149516061Y-96458712D01*
X149456068Y-96446779D01*
X149450000Y-96445572D01*
X149351500Y-96445572D01*
X149283379Y-96425570D01*
X149236886Y-96371914D01*
X149225500Y-96319572D01*
X149225500Y-95023009D01*
X149225980Y-95012027D01*
X149228303Y-94985479D01*
X149228303Y-94985477D01*
X149229264Y-94974492D01*
X149219508Y-94938084D01*
X149217130Y-94927357D01*
X149216538Y-94923998D01*
X149210588Y-94890254D01*
X149205077Y-94880709D01*
X149203885Y-94877433D01*
X149202408Y-94874265D01*
X149199554Y-94863615D01*
X149177945Y-94832755D01*
X149172039Y-94823484D01*
X149158707Y-94800393D01*
X149153194Y-94790844D01*
X149124317Y-94766614D01*
X149116215Y-94759188D01*
X144359940Y-90002913D01*
X144325914Y-89940601D01*
X144330979Y-89869786D01*
X144375867Y-89811239D01*
X144400328Y-89793792D01*
X144408200Y-89787139D01*
X144559052Y-89636812D01*
X144565730Y-89628965D01*
X144690003Y-89456020D01*
X144695313Y-89447183D01*
X144789670Y-89256267D01*
X144793469Y-89246672D01*
X144855377Y-89042910D01*
X144857555Y-89032837D01*
X144858986Y-89021962D01*
X144856775Y-89007778D01*
X144843617Y-89004000D01*
X142208225Y-89004000D01*
X142194694Y-89007973D01*
X142193257Y-89017966D01*
X142223565Y-89152446D01*
X142226645Y-89162275D01*
X142306770Y-89359603D01*
X142311413Y-89368794D01*
X142393449Y-89502665D01*
X142411987Y-89571199D01*
X142390531Y-89638875D01*
X142335891Y-89684208D01*
X142286016Y-89694500D01*
X139199698Y-89694500D01*
X139188716Y-89694020D01*
X139162180Y-89691698D01*
X139162178Y-89691698D01*
X139151193Y-89690737D01*
X139140543Y-89693591D01*
X139140541Y-89693591D01*
X139114804Y-89700488D01*
X139104069Y-89702868D01*
X139096508Y-89704201D01*
X139066955Y-89709412D01*
X139057407Y-89714924D01*
X139054130Y-89716117D01*
X139050962Y-89717594D01*
X139040316Y-89720447D01*
X139031287Y-89726769D01*
X139009453Y-89742057D01*
X139000185Y-89747961D01*
X138967545Y-89766806D01*
X138960462Y-89775247D01*
X138960461Y-89775248D01*
X138943320Y-89795676D01*
X138935894Y-89803779D01*
X138347078Y-90392595D01*
X138284766Y-90426621D01*
X138257983Y-90429500D01*
X136850252Y-90429500D01*
X136844184Y-90430707D01*
X136803939Y-90438712D01*
X136803938Y-90438712D01*
X136791769Y-90441133D01*
X136725448Y-90485448D01*
X136718557Y-90495761D01*
X136691665Y-90536007D01*
X136637187Y-90581534D01*
X136566744Y-90590381D01*
X136502700Y-90559740D01*
X136465389Y-90499338D01*
X136460900Y-90466004D01*
X136460900Y-86911500D01*
X136480902Y-86843379D01*
X136534558Y-86796886D01*
X136586900Y-86785500D01*
X142348500Y-86785500D01*
X142416621Y-86805502D01*
X142463114Y-86859158D01*
X142474500Y-86911500D01*
X142474500Y-87079748D01*
X142486133Y-87138231D01*
X142530448Y-87204552D01*
X142596769Y-87248867D01*
X142608938Y-87251288D01*
X142608939Y-87251288D01*
X142618743Y-87253238D01*
X142655252Y-87260500D01*
X142930233Y-87260500D01*
X142998354Y-87280502D01*
X143044847Y-87334158D01*
X143054951Y-87404432D01*
X143025457Y-87469012D01*
X142988413Y-87498263D01*
X142803463Y-87594542D01*
X142794738Y-87600036D01*
X142624433Y-87727905D01*
X142616726Y-87734748D01*
X142469590Y-87888717D01*
X142463104Y-87896727D01*
X142343098Y-88072649D01*
X142338000Y-88081623D01*
X142248338Y-88274783D01*
X142244775Y-88284470D01*
X142189389Y-88484183D01*
X142190912Y-88492607D01*
X142203292Y-88496000D01*
X144843344Y-88496000D01*
X144856875Y-88492027D01*
X144858180Y-88482947D01*
X144816214Y-88315875D01*
X144812894Y-88306124D01*
X144727972Y-88110814D01*
X144723105Y-88101739D01*
X144607426Y-87922926D01*
X144601136Y-87914757D01*
X144457806Y-87757240D01*
X144450273Y-87750215D01*
X144283139Y-87618222D01*
X144274552Y-87612517D01*
X144088117Y-87509599D01*
X144078705Y-87505369D01*
X144078435Y-87505273D01*
X144078341Y-87505205D01*
X144073989Y-87503249D01*
X144074393Y-87502351D01*
X144020899Y-87463679D01*
X143994983Y-87397581D01*
X144008917Y-87327965D01*
X144058276Y-87276934D01*
X144120495Y-87260500D01*
X144394748Y-87260500D01*
X144431257Y-87253238D01*
X144441061Y-87251288D01*
X144441062Y-87251288D01*
X144453231Y-87248867D01*
X144519552Y-87204552D01*
X144563867Y-87138231D01*
X144575500Y-87079748D01*
X144575500Y-85340252D01*
X144563867Y-85281769D01*
X144519552Y-85215448D01*
X144453231Y-85171133D01*
X144441062Y-85168712D01*
X144441061Y-85168712D01*
X144400816Y-85160707D01*
X144394748Y-85159500D01*
X142655252Y-85159500D01*
X142649184Y-85160707D01*
X142608939Y-85168712D01*
X142608938Y-85168712D01*
X142596769Y-85171133D01*
X142530448Y-85215448D01*
X142486133Y-85281769D01*
X142474500Y-85340252D01*
X142474500Y-85508500D01*
X142454498Y-85576621D01*
X142400842Y-85623114D01*
X142348500Y-85634500D01*
X136500570Y-85634500D01*
X136432449Y-85614498D01*
X136411475Y-85597595D01*
X135362405Y-84548525D01*
X135328379Y-84486213D01*
X135325500Y-84459430D01*
X135325500Y-82181806D01*
X135345502Y-82113685D01*
X135399158Y-82067192D01*
X135469432Y-82057088D01*
X135494388Y-82063935D01*
X135501769Y-82068867D01*
X135513938Y-82071288D01*
X135513939Y-82071288D01*
X135540112Y-82076494D01*
X135560252Y-82080500D01*
X137299748Y-82080500D01*
X137319888Y-82076494D01*
X137346061Y-82071288D01*
X137346062Y-82071288D01*
X137358231Y-82068867D01*
X137424552Y-82024552D01*
X137468867Y-81958231D01*
X137480500Y-81899748D01*
X137480500Y-81756500D01*
X137500502Y-81688379D01*
X137554158Y-81641886D01*
X137606500Y-81630500D01*
X146679075Y-81630500D01*
X146747196Y-81650502D01*
G37*
G04 #@! TD.AperFunction*
M02*
