G04 #@! TF.GenerationSoftware,KiCad,Pcbnew,(6.0.10)*
G04 #@! TF.CreationDate,2023-06-06T06:07:39+02:00*
G04 #@! TF.ProjectId,RECOLOCADOR_ESP32_DEV_KIT_V1_VERSIONFINAL,5245434f-4c4f-4434-9144-4f525f455350,FINAL*
G04 #@! TF.SameCoordinates,Original*
G04 #@! TF.FileFunction,Soldermask,Top*
G04 #@! TF.FilePolarity,Negative*
%FSLAX46Y46*%
G04 Gerber Fmt 4.6, Leading zero omitted, Abs format (unit mm)*
G04 Created by KiCad (PCBNEW (6.0.10)) date 2023-06-06 06:07:39*
%MOMM*%
%LPD*%
G01*
G04 APERTURE LIST*
%ADD10R,1.700000X1.700000*%
%ADD11O,1.700000X1.700000*%
%ADD12C,2.000000*%
G04 APERTURE END LIST*
D10*
X189000000Y-87160000D03*
D11*
X189000000Y-84620000D03*
X189000000Y-82080000D03*
X189000000Y-79540000D03*
X189000000Y-77000000D03*
X189000000Y-74460000D03*
D10*
X136430000Y-81030000D03*
D11*
X136430000Y-78490000D03*
X136430000Y-75950000D03*
X136430000Y-73410000D03*
D10*
X186500000Y-116380000D03*
D11*
X186500000Y-118920000D03*
X186500000Y-121460000D03*
X186500000Y-124000000D03*
X186500000Y-126540000D03*
X186500000Y-129080000D03*
D10*
X168950000Y-121700000D03*
D11*
X168950000Y-119160000D03*
X168950000Y-116620000D03*
X168950000Y-114080000D03*
X168950000Y-111540000D03*
X168950000Y-109000000D03*
X168950000Y-106460000D03*
X168950000Y-103920000D03*
X168950000Y-101380000D03*
X168950000Y-98840000D03*
X168950000Y-96300000D03*
X168950000Y-93760000D03*
X168950000Y-91220000D03*
X168950000Y-88680000D03*
X168950000Y-86140000D03*
D10*
X143525000Y-86210000D03*
D11*
X143525000Y-88750000D03*
X143525000Y-91290000D03*
X143525000Y-93830000D03*
X143525000Y-96370000D03*
X143525000Y-98910000D03*
X143525000Y-101450000D03*
X143525000Y-103990000D03*
X143525000Y-106530000D03*
X143525000Y-109070000D03*
X143525000Y-111610000D03*
X143525000Y-114150000D03*
X143525000Y-116690000D03*
X143525000Y-119230000D03*
X143525000Y-121770000D03*
D12*
X189500000Y-94750000D03*
X183000000Y-94750000D03*
X183000000Y-99250000D03*
X189500000Y-99250000D03*
D10*
X186500000Y-104880000D03*
D11*
X186500000Y-107420000D03*
X186500000Y-109960000D03*
X186500000Y-112500000D03*
D10*
X179000000Y-87350000D03*
D11*
X179000000Y-84810000D03*
X179000000Y-82270000D03*
X179000000Y-79730000D03*
X179000000Y-77190000D03*
X179000000Y-74650000D03*
D10*
X134960000Y-91475000D03*
D11*
X134960000Y-94015000D03*
X134960000Y-96555000D03*
X134960000Y-99095000D03*
X134960000Y-101635000D03*
X134960000Y-104175000D03*
X134960000Y-106715000D03*
X134960000Y-109255000D03*
X134960000Y-111795000D03*
X134960000Y-114335000D03*
X134960000Y-116875000D03*
X134960000Y-119415000D03*
X134960000Y-121955000D03*
X134960000Y-124495000D03*
D10*
X155915000Y-91475000D03*
D11*
X155915000Y-94015000D03*
X155915000Y-96555000D03*
X155915000Y-99095000D03*
X155915000Y-101635000D03*
X155915000Y-104175000D03*
X155915000Y-106715000D03*
X155915000Y-109255000D03*
X155915000Y-111795000D03*
X155915000Y-114335000D03*
X155915000Y-116875000D03*
X155915000Y-119415000D03*
X155915000Y-121955000D03*
X155915000Y-124495000D03*
D10*
X137720000Y-91480000D03*
D11*
X137720000Y-94020000D03*
X137720000Y-96560000D03*
D10*
X139050000Y-127325000D03*
D11*
X139050000Y-129865000D03*
X141590000Y-127325000D03*
X141590000Y-129865000D03*
X144130000Y-127325000D03*
X144130000Y-129865000D03*
X146670000Y-127325000D03*
X146670000Y-129865000D03*
X149210000Y-127325000D03*
X149210000Y-129865000D03*
X151750000Y-127325000D03*
X151750000Y-129865000D03*
M02*
