G04 #@! TF.GenerationSoftware,KiCad,Pcbnew,(6.0.10)*
G04 #@! TF.CreationDate,2023-06-06T06:07:39+02:00*
G04 #@! TF.ProjectId,RECOLOCADOR_ESP32_DEV_KIT_V1_VERSIONFINAL,5245434f-4c4f-4434-9144-4f525f455350,FINAL*
G04 #@! TF.SameCoordinates,Original*
G04 #@! TF.FileFunction,Legend,Bot*
G04 #@! TF.FilePolarity,Positive*
%FSLAX46Y46*%
G04 Gerber Fmt 4.6, Leading zero omitted, Abs format (unit mm)*
G04 Created by KiCad (PCBNEW (6.0.10)) date 2023-06-06 06:07:39*
%MOMM*%
%LPD*%
G01*
G04 APERTURE LIST*
G04 Aperture macros list*
%AMFreePoly0*
4,1,22,0.500000,-0.750000,0.000000,-0.750000,0.000000,-0.745033,-0.079941,-0.743568,-0.215256,-0.701293,-0.333266,-0.622738,-0.424486,-0.514219,-0.481581,-0.384460,-0.499963,-0.243891,-0.482194,-0.129773,-0.499963,0.006109,-0.482194,0.120227,-0.499963,0.256109,-0.478152,0.396186,-0.417904,0.524511,-0.324060,0.630769,-0.204165,0.706417,-0.067858,0.745374,0.000000,0.744959,0.000000,0.750000,
0.500000,0.750000,0.500000,-0.750000,0.500000,-0.750000,$1*%
%AMFreePoly1*
4,1,20,0.000000,0.744959,0.073905,0.744508,0.209726,0.703889,0.328688,0.626782,0.421226,0.519385,0.479903,0.390333,0.500000,0.250000,0.500000,-0.250000,0.499851,-0.262216,0.476331,-0.402017,0.414519,-0.529596,0.319384,-0.634700,0.198574,-0.708877,0.061801,-0.746166,0.000000,-0.745033,0.000000,-0.750000,-0.500000,-0.750000,-0.500000,0.750000,0.000000,0.750000,0.000000,0.744959,
0.000000,0.744959,$1*%
%AMFreePoly2*
4,1,22,0.500000,-0.750000,0.000000,-0.750000,0.000000,-0.745033,-0.079941,-0.743568,-0.215256,-0.701293,-0.333266,-0.622738,-0.424486,-0.514219,-0.481581,-0.384460,-0.499164,-0.250000,-0.500000,-0.250000,-0.500000,0.250000,-0.499164,0.250000,-0.499963,0.256109,-0.478152,0.396186,-0.417904,0.524511,-0.324060,0.630769,-0.204165,0.706417,-0.067858,0.745374,0.000000,0.744959,0.000000,0.750000,
0.500000,0.750000,0.500000,-0.750000,0.500000,-0.750000,$1*%
G04 Aperture macros list end*
%ADD10C,0.250000*%
%ADD11C,0.150000*%
%ADD12C,0.120000*%
%ADD13R,1.700000X1.700000*%
%ADD14O,1.700000X1.700000*%
%ADD15C,2.000000*%
%ADD16FreePoly0,0.000000*%
%ADD17FreePoly1,0.000000*%
%ADD18FreePoly2,90.000000*%
%ADD19FreePoly1,90.000000*%
%ADD20FreePoly2,0.000000*%
G04 APERTURE END LIST*
D10*
X163498571Y-88753928D02*
X163498571Y-88420595D01*
X164022380Y-88420595D02*
X163022380Y-88420595D01*
X163022380Y-88896785D01*
X163022380Y-89468214D02*
X163022380Y-89658690D01*
X163070000Y-89753928D01*
X163165238Y-89849166D01*
X163355714Y-89896785D01*
X163689047Y-89896785D01*
X163879523Y-89849166D01*
X163974761Y-89753928D01*
X164022380Y-89658690D01*
X164022380Y-89468214D01*
X163974761Y-89372976D01*
X163879523Y-89277738D01*
X163689047Y-89230119D01*
X163355714Y-89230119D01*
X163165238Y-89277738D01*
X163070000Y-89372976D01*
X163022380Y-89468214D01*
X164022380Y-90896785D02*
X163546190Y-90563452D01*
X164022380Y-90325357D02*
X163022380Y-90325357D01*
X163022380Y-90706309D01*
X163070000Y-90801547D01*
X163117619Y-90849166D01*
X163212857Y-90896785D01*
X163355714Y-90896785D01*
X163450952Y-90849166D01*
X163498571Y-90801547D01*
X163546190Y-90706309D01*
X163546190Y-90325357D01*
X163736666Y-92039642D02*
X163736666Y-92515833D01*
X164022380Y-91944404D02*
X163022380Y-92277738D01*
X164022380Y-92611071D01*
X163355714Y-92801547D02*
X163355714Y-93182500D01*
X163022380Y-92944404D02*
X163879523Y-92944404D01*
X163974761Y-92992023D01*
X164022380Y-93087261D01*
X164022380Y-93182500D01*
X164022380Y-93658690D02*
X163974761Y-93563452D01*
X163879523Y-93515833D01*
X163022380Y-93515833D01*
X164022380Y-94468214D02*
X163498571Y-94468214D01*
X163403333Y-94420595D01*
X163355714Y-94325357D01*
X163355714Y-94134880D01*
X163403333Y-94039642D01*
X163974761Y-94468214D02*
X164022380Y-94372976D01*
X164022380Y-94134880D01*
X163974761Y-94039642D01*
X163879523Y-93992023D01*
X163784285Y-93992023D01*
X163689047Y-94039642D01*
X163641428Y-94134880D01*
X163641428Y-94372976D01*
X163593809Y-94468214D01*
X163974761Y-94896785D02*
X164022380Y-94992023D01*
X164022380Y-95182500D01*
X163974761Y-95277738D01*
X163879523Y-95325357D01*
X163831904Y-95325357D01*
X163736666Y-95277738D01*
X163689047Y-95182500D01*
X163689047Y-95039642D01*
X163641428Y-94944404D01*
X163546190Y-94896785D01*
X163498571Y-94896785D01*
X163403333Y-94944404D01*
X163355714Y-95039642D01*
X163355714Y-95182500D01*
X163403333Y-95277738D01*
X163498571Y-96087261D02*
X163498571Y-95753928D01*
X164022380Y-95753928D02*
X163022380Y-95753928D01*
X163022380Y-96230119D01*
X164022380Y-96611071D02*
X163022380Y-96611071D01*
X163022380Y-96992023D01*
X163070000Y-97087261D01*
X163117619Y-97134880D01*
X163212857Y-97182500D01*
X163355714Y-97182500D01*
X163450952Y-97134880D01*
X163498571Y-97087261D01*
X163546190Y-96992023D01*
X163546190Y-96611071D01*
X163070000Y-98134880D02*
X163022380Y-98039642D01*
X163022380Y-97896785D01*
X163070000Y-97753928D01*
X163165238Y-97658690D01*
X163260476Y-97611071D01*
X163450952Y-97563452D01*
X163593809Y-97563452D01*
X163784285Y-97611071D01*
X163879523Y-97658690D01*
X163974761Y-97753928D01*
X164022380Y-97896785D01*
X164022380Y-97992023D01*
X163974761Y-98134880D01*
X163927142Y-98182500D01*
X163593809Y-98182500D01*
X163593809Y-97992023D01*
X163736666Y-98563452D02*
X163736666Y-99039642D01*
X164022380Y-98468214D02*
X163022380Y-98801547D01*
X164022380Y-99134880D01*
X163641428Y-100230119D02*
X163641428Y-100992023D01*
X163498571Y-102230119D02*
X163498571Y-102563452D01*
X164022380Y-102706309D02*
X164022380Y-102230119D01*
X163022380Y-102230119D01*
X163022380Y-102706309D01*
X163974761Y-103087261D02*
X164022380Y-103230119D01*
X164022380Y-103468214D01*
X163974761Y-103563452D01*
X163927142Y-103611071D01*
X163831904Y-103658690D01*
X163736666Y-103658690D01*
X163641428Y-103611071D01*
X163593809Y-103563452D01*
X163546190Y-103468214D01*
X163498571Y-103277738D01*
X163450952Y-103182500D01*
X163403333Y-103134880D01*
X163308095Y-103087261D01*
X163212857Y-103087261D01*
X163117619Y-103134880D01*
X163070000Y-103182500D01*
X163022380Y-103277738D01*
X163022380Y-103515833D01*
X163070000Y-103658690D01*
X164022380Y-104087261D02*
X163022380Y-104087261D01*
X163022380Y-104468214D01*
X163070000Y-104563452D01*
X163117619Y-104611071D01*
X163212857Y-104658690D01*
X163355714Y-104658690D01*
X163450952Y-104611071D01*
X163498571Y-104563452D01*
X163546190Y-104468214D01*
X163546190Y-104087261D01*
X163022380Y-104992023D02*
X163022380Y-105611071D01*
X163403333Y-105277738D01*
X163403333Y-105420595D01*
X163450952Y-105515833D01*
X163498571Y-105563452D01*
X163593809Y-105611071D01*
X163831904Y-105611071D01*
X163927142Y-105563452D01*
X163974761Y-105515833D01*
X164022380Y-105420595D01*
X164022380Y-105134880D01*
X163974761Y-105039642D01*
X163927142Y-104992023D01*
X163117619Y-105992023D02*
X163070000Y-106039642D01*
X163022380Y-106134880D01*
X163022380Y-106372976D01*
X163070000Y-106468214D01*
X163117619Y-106515833D01*
X163212857Y-106563452D01*
X163308095Y-106563452D01*
X163450952Y-106515833D01*
X164022380Y-105944404D01*
X164022380Y-106563452D01*
X163641428Y-106992023D02*
X163641428Y-107753928D01*
X164022380Y-108230119D02*
X163022380Y-108230119D01*
X163022380Y-108468214D01*
X163070000Y-108611071D01*
X163165238Y-108706309D01*
X163260476Y-108753928D01*
X163450952Y-108801547D01*
X163593809Y-108801547D01*
X163784285Y-108753928D01*
X163879523Y-108706309D01*
X163974761Y-108611071D01*
X164022380Y-108468214D01*
X164022380Y-108230119D01*
X163498571Y-109230119D02*
X163498571Y-109563452D01*
X164022380Y-109706309D02*
X164022380Y-109230119D01*
X163022380Y-109230119D01*
X163022380Y-109706309D01*
X163022380Y-109992023D02*
X164022380Y-110325357D01*
X163022380Y-110658690D01*
X163641428Y-110992023D02*
X163641428Y-111753928D01*
X164022380Y-112230119D02*
X163022380Y-112230119D01*
X164022380Y-112801547D02*
X163450952Y-112372976D01*
X163022380Y-112801547D02*
X163593809Y-112230119D01*
X164022380Y-113230119D02*
X163022380Y-113230119D01*
X163022380Y-113563452D02*
X163022380Y-114134880D01*
X164022380Y-113849166D02*
X163022380Y-113849166D01*
X163641428Y-114468214D02*
X163641428Y-115230119D01*
X163022380Y-115563452D02*
X164022380Y-115896785D01*
X163022380Y-116230119D01*
X164022380Y-117087261D02*
X164022380Y-116515833D01*
X164022380Y-116801547D02*
X163022380Y-116801547D01*
X163165238Y-116706309D01*
X163260476Y-116611071D01*
X163308095Y-116515833D01*
X163641428Y-117515833D02*
X163641428Y-118277738D01*
X164022380Y-118753928D02*
X163022380Y-118753928D01*
X163736666Y-119087261D01*
X163022380Y-119420595D01*
X164022380Y-119420595D01*
X164022380Y-119896785D02*
X163022380Y-119896785D01*
X164022380Y-120468214D02*
X163450952Y-120039642D01*
X163022380Y-120468214D02*
X163593809Y-119896785D01*
X164022380Y-121468214D02*
X163546190Y-121134880D01*
X164022380Y-120896785D02*
X163022380Y-120896785D01*
X163022380Y-121277738D01*
X163070000Y-121372976D01*
X163117619Y-121420595D01*
X163212857Y-121468214D01*
X163355714Y-121468214D01*
X163450952Y-121420595D01*
X163498571Y-121372976D01*
X163546190Y-121277738D01*
X163546190Y-120896785D01*
X164022380Y-121896785D02*
X163022380Y-121896785D01*
X163403333Y-121896785D02*
X163355714Y-121992023D01*
X163355714Y-122182500D01*
X163403333Y-122277738D01*
X163450952Y-122325357D01*
X163546190Y-122372976D01*
X163831904Y-122372976D01*
X163927142Y-122325357D01*
X163974761Y-122277738D01*
X164022380Y-122182500D01*
X164022380Y-121992023D01*
X163974761Y-121896785D01*
X163355714Y-123230119D02*
X164022380Y-123230119D01*
X163355714Y-122801547D02*
X163879523Y-122801547D01*
X163974761Y-122849166D01*
X164022380Y-122944404D01*
X164022380Y-123087261D01*
X163974761Y-123182500D01*
X163927142Y-123230119D01*
X163974761Y-123658690D02*
X164022380Y-123753928D01*
X164022380Y-123944404D01*
X163974761Y-124039642D01*
X163879523Y-124087261D01*
X163831904Y-124087261D01*
X163736666Y-124039642D01*
X163689047Y-123944404D01*
X163689047Y-123801547D01*
X163641428Y-123706309D01*
X163546190Y-123658690D01*
X163498571Y-123658690D01*
X163403333Y-123706309D01*
X163355714Y-123801547D01*
X163355714Y-123944404D01*
X163403333Y-124039642D01*
X163641428Y-124515833D02*
X163641428Y-125277738D01*
X163736666Y-125706309D02*
X163736666Y-126182500D01*
X164022380Y-125611071D02*
X163022380Y-125944404D01*
X164022380Y-126277738D01*
X164022380Y-127039642D02*
X163022380Y-127039642D01*
X163974761Y-127039642D02*
X164022380Y-126944404D01*
X164022380Y-126753928D01*
X163974761Y-126658690D01*
X163927142Y-126611071D01*
X163831904Y-126563452D01*
X163546190Y-126563452D01*
X163450952Y-126611071D01*
X163403333Y-126658690D01*
X163355714Y-126753928D01*
X163355714Y-126944404D01*
X163403333Y-127039642D01*
X164022380Y-127944404D02*
X163498571Y-127944404D01*
X163403333Y-127896785D01*
X163355714Y-127801547D01*
X163355714Y-127611071D01*
X163403333Y-127515833D01*
X163974761Y-127944404D02*
X164022380Y-127849166D01*
X164022380Y-127611071D01*
X163974761Y-127515833D01*
X163879523Y-127468214D01*
X163784285Y-127468214D01*
X163689047Y-127515833D01*
X163641428Y-127611071D01*
X163641428Y-127849166D01*
X163593809Y-127944404D01*
X163355714Y-128420595D02*
X164355714Y-128420595D01*
X163403333Y-128420595D02*
X163355714Y-128515833D01*
X163355714Y-128706309D01*
X163403333Y-128801547D01*
X163450952Y-128849166D01*
X163546190Y-128896785D01*
X163831904Y-128896785D01*
X163927142Y-128849166D01*
X163974761Y-128801547D01*
X164022380Y-128706309D01*
X164022380Y-128515833D01*
X163974761Y-128420595D01*
X164022380Y-129753928D02*
X163498571Y-129753928D01*
X163403333Y-129706309D01*
X163355714Y-129611071D01*
X163355714Y-129420595D01*
X163403333Y-129325357D01*
X163974761Y-129753928D02*
X164022380Y-129658690D01*
X164022380Y-129420595D01*
X163974761Y-129325357D01*
X163879523Y-129277738D01*
X163784285Y-129277738D01*
X163689047Y-129325357D01*
X163641428Y-129420595D01*
X163641428Y-129658690D01*
X163593809Y-129753928D01*
X163355714Y-130087261D02*
X163355714Y-130468214D01*
X163022380Y-130230119D02*
X163879523Y-130230119D01*
X163974761Y-130277738D01*
X164022380Y-130372976D01*
X164022380Y-130468214D01*
X163974761Y-131182500D02*
X164022380Y-131087261D01*
X164022380Y-130896785D01*
X163974761Y-130801547D01*
X163879523Y-130753928D01*
X163498571Y-130753928D01*
X163403333Y-130801547D01*
X163355714Y-130896785D01*
X163355714Y-131087261D01*
X163403333Y-131182500D01*
X163498571Y-131230119D01*
X163593809Y-131230119D01*
X163689047Y-130753928D01*
X164022380Y-131658690D02*
X163355714Y-131658690D01*
X163546190Y-131658690D02*
X163450952Y-131706309D01*
X163403333Y-131753928D01*
X163355714Y-131849166D01*
X163355714Y-131944404D01*
X165632380Y-88420595D02*
X164632380Y-88420595D01*
X165632380Y-88849166D02*
X165108571Y-88849166D01*
X165013333Y-88801547D01*
X164965714Y-88706309D01*
X164965714Y-88563452D01*
X165013333Y-88468214D01*
X165060952Y-88420595D01*
X164965714Y-89182500D02*
X164965714Y-89563452D01*
X164632380Y-89325357D02*
X165489523Y-89325357D01*
X165584761Y-89372976D01*
X165632380Y-89468214D01*
X165632380Y-89563452D01*
X164965714Y-89753928D02*
X164965714Y-90134880D01*
X164632380Y-89896785D02*
X165489523Y-89896785D01*
X165584761Y-89944404D01*
X165632380Y-90039642D01*
X165632380Y-90134880D01*
X164965714Y-90468214D02*
X165965714Y-90468214D01*
X165013333Y-90468214D02*
X164965714Y-90563452D01*
X164965714Y-90753928D01*
X165013333Y-90849166D01*
X165060952Y-90896785D01*
X165156190Y-90944404D01*
X165441904Y-90944404D01*
X165537142Y-90896785D01*
X165584761Y-90849166D01*
X165632380Y-90753928D01*
X165632380Y-90563452D01*
X165584761Y-90468214D01*
X165584761Y-91325357D02*
X165632380Y-91420595D01*
X165632380Y-91611071D01*
X165584761Y-91706309D01*
X165489523Y-91753928D01*
X165441904Y-91753928D01*
X165346666Y-91706309D01*
X165299047Y-91611071D01*
X165299047Y-91468214D01*
X165251428Y-91372976D01*
X165156190Y-91325357D01*
X165108571Y-91325357D01*
X165013333Y-91372976D01*
X164965714Y-91468214D01*
X164965714Y-91611071D01*
X165013333Y-91706309D01*
X165537142Y-92182500D02*
X165584761Y-92230119D01*
X165632380Y-92182500D01*
X165584761Y-92134880D01*
X165537142Y-92182500D01*
X165632380Y-92182500D01*
X165013333Y-92182500D02*
X165060952Y-92230119D01*
X165108571Y-92182500D01*
X165060952Y-92134880D01*
X165013333Y-92182500D01*
X165108571Y-92182500D01*
X164584761Y-93372976D02*
X165870476Y-92515833D01*
X164584761Y-94420595D02*
X165870476Y-93563452D01*
X164965714Y-95182500D02*
X165775238Y-95182500D01*
X165870476Y-95134880D01*
X165918095Y-95087261D01*
X165965714Y-94992023D01*
X165965714Y-94849166D01*
X165918095Y-94753928D01*
X165584761Y-95182500D02*
X165632380Y-95087261D01*
X165632380Y-94896785D01*
X165584761Y-94801547D01*
X165537142Y-94753928D01*
X165441904Y-94706309D01*
X165156190Y-94706309D01*
X165060952Y-94753928D01*
X165013333Y-94801547D01*
X164965714Y-94896785D01*
X164965714Y-95087261D01*
X165013333Y-95182500D01*
X165632380Y-95658690D02*
X164965714Y-95658690D01*
X164632380Y-95658690D02*
X164680000Y-95611071D01*
X164727619Y-95658690D01*
X164680000Y-95706309D01*
X164632380Y-95658690D01*
X164727619Y-95658690D01*
X164965714Y-95992023D02*
X164965714Y-96372976D01*
X164632380Y-96134880D02*
X165489523Y-96134880D01*
X165584761Y-96182500D01*
X165632380Y-96277738D01*
X165632380Y-96372976D01*
X165632380Y-96706309D02*
X164632380Y-96706309D01*
X165632380Y-97134880D02*
X165108571Y-97134880D01*
X165013333Y-97087261D01*
X164965714Y-96992023D01*
X164965714Y-96849166D01*
X165013333Y-96753928D01*
X165060952Y-96706309D01*
X164965714Y-98039642D02*
X165632380Y-98039642D01*
X164965714Y-97611071D02*
X165489523Y-97611071D01*
X165584761Y-97658690D01*
X165632380Y-97753928D01*
X165632380Y-97896785D01*
X165584761Y-97992023D01*
X165537142Y-98039642D01*
X165632380Y-98515833D02*
X164632380Y-98515833D01*
X165013333Y-98515833D02*
X164965714Y-98611071D01*
X164965714Y-98801547D01*
X165013333Y-98896785D01*
X165060952Y-98944404D01*
X165156190Y-98992023D01*
X165441904Y-98992023D01*
X165537142Y-98944404D01*
X165584761Y-98896785D01*
X165632380Y-98801547D01*
X165632380Y-98611071D01*
X165584761Y-98515833D01*
X165537142Y-99420595D02*
X165584761Y-99468214D01*
X165632380Y-99420595D01*
X165584761Y-99372976D01*
X165537142Y-99420595D01*
X165632380Y-99420595D01*
X165584761Y-100325357D02*
X165632380Y-100230119D01*
X165632380Y-100039642D01*
X165584761Y-99944404D01*
X165537142Y-99896785D01*
X165441904Y-99849166D01*
X165156190Y-99849166D01*
X165060952Y-99896785D01*
X165013333Y-99944404D01*
X164965714Y-100039642D01*
X164965714Y-100230119D01*
X165013333Y-100325357D01*
X165632380Y-100896785D02*
X165584761Y-100801547D01*
X165537142Y-100753928D01*
X165441904Y-100706309D01*
X165156190Y-100706309D01*
X165060952Y-100753928D01*
X165013333Y-100801547D01*
X164965714Y-100896785D01*
X164965714Y-101039642D01*
X165013333Y-101134880D01*
X165060952Y-101182500D01*
X165156190Y-101230119D01*
X165441904Y-101230119D01*
X165537142Y-101182500D01*
X165584761Y-101134880D01*
X165632380Y-101039642D01*
X165632380Y-100896785D01*
X165632380Y-101658690D02*
X164965714Y-101658690D01*
X165060952Y-101658690D02*
X165013333Y-101706309D01*
X164965714Y-101801547D01*
X164965714Y-101944404D01*
X165013333Y-102039642D01*
X165108571Y-102087261D01*
X165632380Y-102087261D01*
X165108571Y-102087261D02*
X165013333Y-102134880D01*
X164965714Y-102230119D01*
X164965714Y-102372976D01*
X165013333Y-102468214D01*
X165108571Y-102515833D01*
X165632380Y-102515833D01*
X164584761Y-103706309D02*
X165870476Y-102849166D01*
X165346666Y-103992023D02*
X165346666Y-104468214D01*
X165632380Y-103896785D02*
X164632380Y-104230119D01*
X165632380Y-104563452D01*
X164965714Y-104753928D02*
X164965714Y-105134880D01*
X164632380Y-104896785D02*
X165489523Y-104896785D01*
X165584761Y-104944404D01*
X165632380Y-105039642D01*
X165632380Y-105134880D01*
X165632380Y-105611071D02*
X165584761Y-105515833D01*
X165489523Y-105468214D01*
X164632380Y-105468214D01*
X165632380Y-106420595D02*
X165108571Y-106420595D01*
X165013333Y-106372976D01*
X164965714Y-106277738D01*
X164965714Y-106087261D01*
X165013333Y-105992023D01*
X165584761Y-106420595D02*
X165632380Y-106325357D01*
X165632380Y-106087261D01*
X165584761Y-105992023D01*
X165489523Y-105944404D01*
X165394285Y-105944404D01*
X165299047Y-105992023D01*
X165251428Y-106087261D01*
X165251428Y-106325357D01*
X165203809Y-106420595D01*
X165584761Y-106849166D02*
X165632380Y-106944404D01*
X165632380Y-107134880D01*
X165584761Y-107230119D01*
X165489523Y-107277738D01*
X165441904Y-107277738D01*
X165346666Y-107230119D01*
X165299047Y-107134880D01*
X165299047Y-106992023D01*
X165251428Y-106896785D01*
X165156190Y-106849166D01*
X165108571Y-106849166D01*
X165013333Y-106896785D01*
X164965714Y-106992023D01*
X164965714Y-107134880D01*
X165013333Y-107230119D01*
X165108571Y-108039642D02*
X165108571Y-107706309D01*
X165632380Y-107706309D02*
X164632380Y-107706309D01*
X164632380Y-108182500D01*
X165632380Y-108563452D02*
X164632380Y-108563452D01*
X164632380Y-108944404D01*
X164680000Y-109039642D01*
X164727619Y-109087261D01*
X164822857Y-109134880D01*
X164965714Y-109134880D01*
X165060952Y-109087261D01*
X165108571Y-109039642D01*
X165156190Y-108944404D01*
X165156190Y-108563452D01*
X164680000Y-110087261D02*
X164632380Y-109992023D01*
X164632380Y-109849166D01*
X164680000Y-109706309D01*
X164775238Y-109611071D01*
X164870476Y-109563452D01*
X165060952Y-109515833D01*
X165203809Y-109515833D01*
X165394285Y-109563452D01*
X165489523Y-109611071D01*
X165584761Y-109706309D01*
X165632380Y-109849166D01*
X165632380Y-109944404D01*
X165584761Y-110087261D01*
X165537142Y-110134880D01*
X165203809Y-110134880D01*
X165203809Y-109944404D01*
X165346666Y-110515833D02*
X165346666Y-110992023D01*
X165632380Y-110420595D02*
X164632380Y-110753928D01*
X165632380Y-111087261D01*
X167242380Y-88896785D02*
X167242380Y-88420595D01*
X166242380Y-88420595D01*
X167242380Y-89230119D02*
X166575714Y-89230119D01*
X166242380Y-89230119D02*
X166290000Y-89182500D01*
X166337619Y-89230119D01*
X166290000Y-89277738D01*
X166242380Y-89230119D01*
X166337619Y-89230119D01*
X167194761Y-90134880D02*
X167242380Y-90039642D01*
X167242380Y-89849166D01*
X167194761Y-89753928D01*
X167147142Y-89706309D01*
X167051904Y-89658690D01*
X166766190Y-89658690D01*
X166670952Y-89706309D01*
X166623333Y-89753928D01*
X166575714Y-89849166D01*
X166575714Y-90039642D01*
X166623333Y-90134880D01*
X167194761Y-90944404D02*
X167242380Y-90849166D01*
X167242380Y-90658690D01*
X167194761Y-90563452D01*
X167099523Y-90515833D01*
X166718571Y-90515833D01*
X166623333Y-90563452D01*
X166575714Y-90658690D01*
X166575714Y-90849166D01*
X166623333Y-90944404D01*
X166718571Y-90992023D01*
X166813809Y-90992023D01*
X166909047Y-90515833D01*
X166575714Y-91420595D02*
X167242380Y-91420595D01*
X166670952Y-91420595D02*
X166623333Y-91468214D01*
X166575714Y-91563452D01*
X166575714Y-91706309D01*
X166623333Y-91801547D01*
X166718571Y-91849166D01*
X167242380Y-91849166D01*
X167194761Y-92277738D02*
X167242380Y-92372976D01*
X167242380Y-92563452D01*
X167194761Y-92658690D01*
X167099523Y-92706309D01*
X167051904Y-92706309D01*
X166956666Y-92658690D01*
X166909047Y-92563452D01*
X166909047Y-92420595D01*
X166861428Y-92325357D01*
X166766190Y-92277738D01*
X166718571Y-92277738D01*
X166623333Y-92325357D01*
X166575714Y-92420595D01*
X166575714Y-92563452D01*
X166623333Y-92658690D01*
X167194761Y-93515833D02*
X167242380Y-93420595D01*
X167242380Y-93230119D01*
X167194761Y-93134880D01*
X167099523Y-93087261D01*
X166718571Y-93087261D01*
X166623333Y-93134880D01*
X166575714Y-93230119D01*
X166575714Y-93420595D01*
X166623333Y-93515833D01*
X166718571Y-93563452D01*
X166813809Y-93563452D01*
X166909047Y-93087261D01*
X167242380Y-94420595D02*
X166242380Y-94420595D01*
X167194761Y-94420595D02*
X167242380Y-94325357D01*
X167242380Y-94134880D01*
X167194761Y-94039642D01*
X167147142Y-93992023D01*
X167051904Y-93944404D01*
X166766190Y-93944404D01*
X166670952Y-93992023D01*
X166623333Y-94039642D01*
X166575714Y-94134880D01*
X166575714Y-94325357D01*
X166623333Y-94420595D01*
X166575714Y-96087261D02*
X167242380Y-96087261D01*
X166575714Y-95658690D02*
X167099523Y-95658690D01*
X167194761Y-95706309D01*
X167242380Y-95801547D01*
X167242380Y-95944404D01*
X167194761Y-96039642D01*
X167147142Y-96087261D01*
X166575714Y-96563452D02*
X167242380Y-96563452D01*
X166670952Y-96563452D02*
X166623333Y-96611071D01*
X166575714Y-96706309D01*
X166575714Y-96849166D01*
X166623333Y-96944404D01*
X166718571Y-96992023D01*
X167242380Y-96992023D01*
X167242380Y-97896785D02*
X166242380Y-97896785D01*
X167194761Y-97896785D02*
X167242380Y-97801547D01*
X167242380Y-97611071D01*
X167194761Y-97515833D01*
X167147142Y-97468214D01*
X167051904Y-97420595D01*
X166766190Y-97420595D01*
X166670952Y-97468214D01*
X166623333Y-97515833D01*
X166575714Y-97611071D01*
X166575714Y-97801547D01*
X166623333Y-97896785D01*
X167194761Y-98753928D02*
X167242380Y-98658690D01*
X167242380Y-98468214D01*
X167194761Y-98372976D01*
X167099523Y-98325357D01*
X166718571Y-98325357D01*
X166623333Y-98372976D01*
X166575714Y-98468214D01*
X166575714Y-98658690D01*
X166623333Y-98753928D01*
X166718571Y-98801547D01*
X166813809Y-98801547D01*
X166909047Y-98325357D01*
X167242380Y-99230119D02*
X166575714Y-99230119D01*
X166766190Y-99230119D02*
X166670952Y-99277738D01*
X166623333Y-99325357D01*
X166575714Y-99420595D01*
X166575714Y-99515833D01*
X167147142Y-101182500D02*
X167194761Y-101134880D01*
X167242380Y-100992023D01*
X167242380Y-100896785D01*
X167194761Y-100753928D01*
X167099523Y-100658690D01*
X167004285Y-100611071D01*
X166813809Y-100563452D01*
X166670952Y-100563452D01*
X166480476Y-100611071D01*
X166385238Y-100658690D01*
X166290000Y-100753928D01*
X166242380Y-100896785D01*
X166242380Y-100992023D01*
X166290000Y-101134880D01*
X166337619Y-101182500D01*
X167194761Y-101992023D02*
X167242380Y-101896785D01*
X167242380Y-101706309D01*
X167194761Y-101611071D01*
X167099523Y-101563452D01*
X166718571Y-101563452D01*
X166623333Y-101611071D01*
X166575714Y-101706309D01*
X166575714Y-101896785D01*
X166623333Y-101992023D01*
X166718571Y-102039642D01*
X166813809Y-102039642D01*
X166909047Y-101563452D01*
X167242380Y-102468214D02*
X166575714Y-102468214D01*
X166766190Y-102468214D02*
X166670952Y-102515833D01*
X166623333Y-102563452D01*
X166575714Y-102658690D01*
X166575714Y-102753928D01*
X166575714Y-103087261D02*
X167242380Y-103087261D01*
X166670952Y-103087261D02*
X166623333Y-103134880D01*
X166575714Y-103230119D01*
X166575714Y-103372976D01*
X166623333Y-103468214D01*
X166718571Y-103515833D01*
X167242380Y-103515833D01*
X166242380Y-104944404D02*
X166242380Y-105134880D01*
X166290000Y-105230119D01*
X166385238Y-105325357D01*
X166575714Y-105372976D01*
X166909047Y-105372976D01*
X167099523Y-105325357D01*
X167194761Y-105230119D01*
X167242380Y-105134880D01*
X167242380Y-104944404D01*
X167194761Y-104849166D01*
X167099523Y-104753928D01*
X166909047Y-104706309D01*
X166575714Y-104706309D01*
X166385238Y-104753928D01*
X166290000Y-104849166D01*
X166242380Y-104944404D01*
X167242380Y-105801547D02*
X166242380Y-105801547D01*
X166718571Y-105801547D02*
X166718571Y-106372976D01*
X167242380Y-106372976D02*
X166242380Y-106372976D01*
X167242380Y-107325357D02*
X167242380Y-106849166D01*
X166242380Y-106849166D01*
X167242380Y-108420595D02*
X166242380Y-108420595D01*
X167242380Y-108849166D02*
X166718571Y-108849166D01*
X166623333Y-108801547D01*
X166575714Y-108706309D01*
X166575714Y-108563452D01*
X166623333Y-108468214D01*
X166670952Y-108420595D01*
X166575714Y-109182500D02*
X166575714Y-109563452D01*
X166242380Y-109325357D02*
X167099523Y-109325357D01*
X167194761Y-109372976D01*
X167242380Y-109468214D01*
X167242380Y-109563452D01*
X166575714Y-109753928D02*
X166575714Y-110134880D01*
X166242380Y-109896785D02*
X167099523Y-109896785D01*
X167194761Y-109944404D01*
X167242380Y-110039642D01*
X167242380Y-110134880D01*
X166575714Y-110468214D02*
X167575714Y-110468214D01*
X166623333Y-110468214D02*
X166575714Y-110563452D01*
X166575714Y-110753928D01*
X166623333Y-110849166D01*
X166670952Y-110896785D01*
X166766190Y-110944404D01*
X167051904Y-110944404D01*
X167147142Y-110896785D01*
X167194761Y-110849166D01*
X167242380Y-110753928D01*
X167242380Y-110563452D01*
X167194761Y-110468214D01*
X167147142Y-111372976D02*
X167194761Y-111420595D01*
X167242380Y-111372976D01*
X167194761Y-111325357D01*
X167147142Y-111372976D01*
X167242380Y-111372976D01*
X166623333Y-111372976D02*
X166670952Y-111420595D01*
X166718571Y-111372976D01*
X166670952Y-111325357D01*
X166623333Y-111372976D01*
X166718571Y-111372976D01*
X166194761Y-112563452D02*
X167480476Y-111706309D01*
X166194761Y-113611071D02*
X167480476Y-112753928D01*
X167242380Y-114087261D02*
X167194761Y-113992023D01*
X167147142Y-113944404D01*
X167051904Y-113896785D01*
X166766190Y-113896785D01*
X166670952Y-113944404D01*
X166623333Y-113992023D01*
X166575714Y-114087261D01*
X166575714Y-114230119D01*
X166623333Y-114325357D01*
X166670952Y-114372976D01*
X166766190Y-114420595D01*
X167051904Y-114420595D01*
X167147142Y-114372976D01*
X167194761Y-114325357D01*
X167242380Y-114230119D01*
X167242380Y-114087261D01*
X167242380Y-114849166D02*
X166242380Y-114849166D01*
X167242380Y-115277738D02*
X166718571Y-115277738D01*
X166623333Y-115230119D01*
X166575714Y-115134880D01*
X166575714Y-114992023D01*
X166623333Y-114896785D01*
X166670952Y-114849166D01*
X166575714Y-115658690D02*
X167242380Y-115849166D01*
X166766190Y-116039642D01*
X167242380Y-116230119D01*
X166575714Y-116420595D01*
X167242380Y-116801547D02*
X166575714Y-116801547D01*
X166766190Y-116801547D02*
X166670952Y-116849166D01*
X166623333Y-116896785D01*
X166575714Y-116992023D01*
X166575714Y-117087261D01*
X167147142Y-117420595D02*
X167194761Y-117468214D01*
X167242380Y-117420595D01*
X167194761Y-117372976D01*
X167147142Y-117420595D01*
X167242380Y-117420595D01*
X167242380Y-118039642D02*
X167194761Y-117944404D01*
X167147142Y-117896785D01*
X167051904Y-117849166D01*
X166766190Y-117849166D01*
X166670952Y-117896785D01*
X166623333Y-117944404D01*
X166575714Y-118039642D01*
X166575714Y-118182499D01*
X166623333Y-118277738D01*
X166670952Y-118325357D01*
X166766190Y-118372976D01*
X167051904Y-118372976D01*
X167147142Y-118325357D01*
X167194761Y-118277738D01*
X167242380Y-118182499D01*
X167242380Y-118039642D01*
X167242380Y-118801547D02*
X166575714Y-118801547D01*
X166766190Y-118801547D02*
X166670952Y-118849166D01*
X166623333Y-118896785D01*
X166575714Y-118992023D01*
X166575714Y-119087261D01*
X166575714Y-119849166D02*
X167385238Y-119849166D01*
X167480476Y-119801547D01*
X167528095Y-119753928D01*
X167575714Y-119658690D01*
X167575714Y-119515833D01*
X167528095Y-119420595D01*
X167194761Y-119849166D02*
X167242380Y-119753928D01*
X167242380Y-119563452D01*
X167194761Y-119468214D01*
X167147142Y-119420595D01*
X167051904Y-119372976D01*
X166766190Y-119372976D01*
X166670952Y-119420595D01*
X166623333Y-119468214D01*
X166575714Y-119563452D01*
X166575714Y-119753928D01*
X166623333Y-119849166D01*
X166194761Y-121039642D02*
X167480476Y-120182499D01*
X167194761Y-121801547D02*
X167242380Y-121706309D01*
X167242380Y-121515833D01*
X167194761Y-121420595D01*
X167147142Y-121372976D01*
X167051904Y-121325357D01*
X166766190Y-121325357D01*
X166670952Y-121372976D01*
X166623333Y-121420595D01*
X166575714Y-121515833D01*
X166575714Y-121706309D01*
X166623333Y-121801547D01*
X167194761Y-122611071D02*
X167242380Y-122515833D01*
X167242380Y-122325357D01*
X167194761Y-122230119D01*
X167099523Y-122182499D01*
X166718571Y-122182499D01*
X166623333Y-122230119D01*
X166575714Y-122325357D01*
X166575714Y-122515833D01*
X166623333Y-122611071D01*
X166718571Y-122658690D01*
X166813809Y-122658690D01*
X166909047Y-122182499D01*
X167242380Y-123087261D02*
X166575714Y-123087261D01*
X166766190Y-123087261D02*
X166670952Y-123134880D01*
X166623333Y-123182499D01*
X166575714Y-123277738D01*
X166575714Y-123372976D01*
X166575714Y-123706309D02*
X167242380Y-123706309D01*
X166670952Y-123706309D02*
X166623333Y-123753928D01*
X166575714Y-123849166D01*
X166575714Y-123992023D01*
X166623333Y-124087261D01*
X166718571Y-124134880D01*
X167242380Y-124134880D01*
X167242380Y-124753928D02*
X167194761Y-124658690D01*
X167147142Y-124611071D01*
X167051904Y-124563452D01*
X166766190Y-124563452D01*
X166670952Y-124611071D01*
X166623333Y-124658690D01*
X166575714Y-124753928D01*
X166575714Y-124896785D01*
X166623333Y-124992023D01*
X166670952Y-125039642D01*
X166766190Y-125087261D01*
X167051904Y-125087261D01*
X167147142Y-125039642D01*
X167194761Y-124992023D01*
X167242380Y-124896785D01*
X167242380Y-124753928D01*
X167242380Y-125515833D02*
X166242380Y-125515833D01*
X167242380Y-125944404D02*
X166718571Y-125944404D01*
X166623333Y-125896785D01*
X166575714Y-125801547D01*
X166575714Y-125658690D01*
X166623333Y-125563452D01*
X166670952Y-125515833D01*
X167242380Y-126563452D02*
X167194761Y-126468214D01*
X167099523Y-126420595D01*
X166242380Y-126420595D01*
D11*
X135293333Y-88597380D02*
X135293333Y-89311666D01*
X135340952Y-89454523D01*
X135436190Y-89549761D01*
X135579047Y-89597380D01*
X135674285Y-89597380D01*
X134293333Y-89597380D02*
X134864761Y-89597380D01*
X134579047Y-89597380D02*
X134579047Y-88597380D01*
X134674285Y-88740238D01*
X134769523Y-88835476D01*
X134864761Y-88883095D01*
X156248333Y-88597380D02*
X156248333Y-89311666D01*
X156295952Y-89454523D01*
X156391190Y-89549761D01*
X156534047Y-89597380D01*
X156629285Y-89597380D01*
X155343571Y-88930714D02*
X155343571Y-89597380D01*
X155581666Y-88549761D02*
X155819761Y-89264047D01*
X155200714Y-89264047D01*
X150483333Y-102352379D02*
X150483333Y-103066665D01*
X150530952Y-103209522D01*
X150626190Y-103304760D01*
X150769047Y-103352379D01*
X150864285Y-103352379D01*
X150007142Y-103352379D02*
X150007142Y-102352379D01*
X149626190Y-102352379D01*
X149530952Y-102399999D01*
X149483333Y-102447618D01*
X149435714Y-102542856D01*
X149435714Y-102685713D01*
X149483333Y-102780951D01*
X149530952Y-102828570D01*
X149626190Y-102876189D01*
X150007142Y-102876189D01*
X148483333Y-103352379D02*
X149054761Y-103352379D01*
X148769047Y-103352379D02*
X148769047Y-102352379D01*
X148864285Y-102495237D01*
X148959523Y-102590475D01*
X149054761Y-102638094D01*
X152272381Y-81176667D02*
X152986667Y-81176667D01*
X153129524Y-81129048D01*
X153224762Y-81033810D01*
X153272381Y-80890953D01*
X153272381Y-80795715D01*
X153272381Y-81652858D02*
X152272381Y-81652858D01*
X152272381Y-82033810D01*
X152320001Y-82129048D01*
X152367620Y-82176667D01*
X152462858Y-82224286D01*
X152605715Y-82224286D01*
X152700953Y-82176667D01*
X152748572Y-82129048D01*
X152796191Y-82033810D01*
X152796191Y-81652858D01*
X152605715Y-83081429D02*
X153272381Y-83081429D01*
X152224762Y-82843334D02*
X152939048Y-82605239D01*
X152939048Y-83224286D01*
X150433333Y-98652380D02*
X150433333Y-99366666D01*
X150480952Y-99509523D01*
X150576190Y-99604761D01*
X150719047Y-99652380D01*
X150814285Y-99652380D01*
X149957142Y-99652380D02*
X149957142Y-98652380D01*
X149576190Y-98652380D01*
X149480952Y-98700000D01*
X149433333Y-98747619D01*
X149385714Y-98842857D01*
X149385714Y-98985714D01*
X149433333Y-99080952D01*
X149480952Y-99128571D01*
X149576190Y-99176190D01*
X149957142Y-99176190D01*
X149004761Y-98747619D02*
X148957142Y-98700000D01*
X148861904Y-98652380D01*
X148623809Y-98652380D01*
X148528571Y-98700000D01*
X148480952Y-98747619D01*
X148433333Y-98842857D01*
X148433333Y-98938095D01*
X148480952Y-99080952D01*
X149052380Y-99652380D01*
X148433333Y-99652380D01*
X138053333Y-88602380D02*
X138053333Y-89316666D01*
X138100952Y-89459523D01*
X138196190Y-89554761D01*
X138339047Y-89602380D01*
X138434285Y-89602380D01*
X137624761Y-88697619D02*
X137577142Y-88650000D01*
X137481904Y-88602380D01*
X137243809Y-88602380D01*
X137148571Y-88650000D01*
X137100952Y-88697619D01*
X137053333Y-88792857D01*
X137053333Y-88888095D01*
X137100952Y-89030952D01*
X137672380Y-89602380D01*
X137053333Y-89602380D01*
X149852380Y-81186666D02*
X150566666Y-81186666D01*
X150709523Y-81139047D01*
X150804761Y-81043809D01*
X150852380Y-80900952D01*
X150852380Y-80805714D01*
X150852380Y-81662857D02*
X149852380Y-81662857D01*
X149852380Y-82043809D01*
X149900000Y-82139047D01*
X149947619Y-82186666D01*
X150042857Y-82234285D01*
X150185714Y-82234285D01*
X150280952Y-82186666D01*
X150328571Y-82139047D01*
X150376190Y-82043809D01*
X150376190Y-81662857D01*
X149852380Y-82567619D02*
X149852380Y-83186666D01*
X150233333Y-82853333D01*
X150233333Y-82996190D01*
X150280952Y-83091428D01*
X150328571Y-83139047D01*
X150423809Y-83186666D01*
X150661904Y-83186666D01*
X150757142Y-83139047D01*
X150804761Y-83091428D01*
X150852380Y-82996190D01*
X150852380Y-82710476D01*
X150804761Y-82615238D01*
X150757142Y-82567619D01*
X136172380Y-127785476D02*
X136886666Y-127785476D01*
X137029523Y-127737857D01*
X137124761Y-127642619D01*
X137172380Y-127499761D01*
X137172380Y-127404523D01*
X137172380Y-128785476D02*
X137172380Y-128214047D01*
X137172380Y-128499761D02*
X136172380Y-128499761D01*
X136315238Y-128404523D01*
X136410476Y-128309285D01*
X136458095Y-128214047D01*
X137172380Y-129737857D02*
X137172380Y-129166428D01*
X137172380Y-129452142D02*
X136172380Y-129452142D01*
X136315238Y-129356904D01*
X136410476Y-129261666D01*
X136458095Y-129166428D01*
D12*
X136290000Y-92745000D02*
X136290000Y-125825000D01*
X136290000Y-92745000D02*
X133630000Y-92745000D01*
X136290000Y-125825000D02*
X133630000Y-125825000D01*
X136290000Y-90145000D02*
X134960000Y-90145000D01*
X136290000Y-91475000D02*
X136290000Y-90145000D01*
X133630000Y-92745000D02*
X133630000Y-125825000D01*
X157245000Y-91475000D02*
X157245000Y-90145000D01*
X157245000Y-90145000D02*
X155915000Y-90145000D01*
X157245000Y-92745000D02*
X154585000Y-92745000D01*
X154585000Y-92745000D02*
X154585000Y-125825000D01*
X157245000Y-92745000D02*
X157245000Y-125825000D01*
X157245000Y-125825000D02*
X154585000Y-125825000D01*
X148250000Y-100799999D02*
X148250000Y-101399999D01*
X148950000Y-102099999D02*
X150350000Y-102099999D01*
X151050000Y-101399999D02*
X151050000Y-100799999D01*
X150350000Y-100099999D02*
X148950000Y-100099999D01*
X148950000Y-100099999D02*
G75*
G03*
X148250000Y-100799999I-1J-699999D01*
G01*
X151050000Y-100799999D02*
G75*
G03*
X150350000Y-100099999I-700000J0D01*
G01*
X148250000Y-101399999D02*
G75*
G03*
X148950000Y-102099999I699999J-1D01*
G01*
X150350000Y-102099999D02*
G75*
G03*
X151050000Y-101399999I0J700000D01*
G01*
X151800000Y-84300000D02*
X151800000Y-85700000D01*
X152500000Y-86400000D02*
X153100000Y-86400000D01*
X153800000Y-85700000D02*
X153800000Y-84300000D01*
X153100000Y-83600000D02*
X152500000Y-83600000D01*
X153100000Y-86400000D02*
G75*
G03*
X153800000Y-85700000I1J699999D01*
G01*
X151800000Y-85700000D02*
G75*
G03*
X152500000Y-86400000I699999J-1D01*
G01*
X152500000Y-83600000D02*
G75*
G03*
X151800000Y-84300000I0J-700000D01*
G01*
X153800000Y-84300000D02*
G75*
G03*
X153100000Y-83600000I-700000J0D01*
G01*
X151000000Y-97700000D02*
X151000000Y-97100000D01*
X148900000Y-98400000D02*
X150300000Y-98400000D01*
X148200000Y-97100000D02*
X148200000Y-97700000D01*
X150300000Y-96400000D02*
X148900000Y-96400000D01*
X150300000Y-98400000D02*
G75*
G03*
X151000000Y-97700000I0J700000D01*
G01*
X148900000Y-96400000D02*
G75*
G03*
X148200000Y-97100000I-1J-699999D01*
G01*
X151000000Y-97100000D02*
G75*
G03*
X150300000Y-96400000I-700000J0D01*
G01*
X148200000Y-97700000D02*
G75*
G03*
X148900000Y-98400000I699999J-1D01*
G01*
X139050000Y-90150000D02*
X137720000Y-90150000D01*
X138355000Y-92750000D02*
X136390000Y-92750000D01*
X138355000Y-97890000D02*
X136390000Y-97890000D01*
X139050000Y-91480000D02*
X139050000Y-90150000D01*
X136390000Y-92750000D02*
X136390000Y-97890000D01*
X150600000Y-83600000D02*
X150000000Y-83600000D01*
X150000000Y-86400000D02*
X150600000Y-86400000D01*
X151300000Y-85700000D02*
X151300000Y-84300000D01*
X149300000Y-84300000D02*
X149300000Y-85700000D01*
X149300000Y-85700000D02*
G75*
G03*
X150000000Y-86400000I699999J-1D01*
G01*
X151300000Y-84300000D02*
G75*
G03*
X150600000Y-83600000I-700000J0D01*
G01*
X150000000Y-83600000D02*
G75*
G03*
X149300000Y-84300000I0J-700000D01*
G01*
X150600000Y-86400000D02*
G75*
G03*
X151300000Y-85700000I1J699999D01*
G01*
X140320000Y-125995000D02*
X140320000Y-128595000D01*
X137720000Y-128595000D02*
X137720000Y-131195000D01*
X139050000Y-125995000D02*
X137720000Y-125995000D01*
X140320000Y-125995000D02*
X153080000Y-125995000D01*
X140320000Y-128595000D02*
X137720000Y-128595000D01*
X137720000Y-131195000D02*
X153080000Y-131195000D01*
X153080000Y-125995000D02*
X153080000Y-131195000D01*
X137720000Y-125995000D02*
X137720000Y-127325000D01*
%LPC*%
D13*
X189000000Y-87160000D03*
D14*
X189000000Y-84620000D03*
X189000000Y-82080000D03*
X189000000Y-79540000D03*
X189000000Y-77000000D03*
X189000000Y-74460000D03*
D13*
X136430000Y-81030000D03*
D14*
X136430000Y-78490000D03*
X136430000Y-75950000D03*
X136430000Y-73410000D03*
D13*
X186500000Y-116380000D03*
D14*
X186500000Y-118920000D03*
X186500000Y-121460000D03*
X186500000Y-124000000D03*
X186500000Y-126540000D03*
X186500000Y-129080000D03*
D13*
X168950000Y-121700000D03*
D14*
X168950000Y-119160000D03*
X168950000Y-116620000D03*
X168950000Y-114080000D03*
X168950000Y-111540000D03*
X168950000Y-109000000D03*
X168950000Y-106460000D03*
X168950000Y-103920000D03*
X168950000Y-101380000D03*
X168950000Y-98840000D03*
X168950000Y-96300000D03*
X168950000Y-93760000D03*
X168950000Y-91220000D03*
X168950000Y-88680000D03*
X168950000Y-86140000D03*
D13*
X143525000Y-86210000D03*
D14*
X143525000Y-88750000D03*
X143525000Y-91290000D03*
X143525000Y-93830000D03*
X143525000Y-96370000D03*
X143525000Y-98910000D03*
X143525000Y-101450000D03*
X143525000Y-103990000D03*
X143525000Y-106530000D03*
X143525000Y-109070000D03*
X143525000Y-111610000D03*
X143525000Y-114150000D03*
X143525000Y-116690000D03*
X143525000Y-119230000D03*
X143525000Y-121770000D03*
D15*
X189500000Y-94750000D03*
X183000000Y-94750000D03*
X183000000Y-99250000D03*
X189500000Y-99250000D03*
D13*
X186500000Y-104880000D03*
D14*
X186500000Y-107420000D03*
X186500000Y-109960000D03*
X186500000Y-112500000D03*
D13*
X179000000Y-87350000D03*
D14*
X179000000Y-84810000D03*
X179000000Y-82270000D03*
X179000000Y-79730000D03*
X179000000Y-77190000D03*
X179000000Y-74650000D03*
D13*
X134960000Y-91475000D03*
D14*
X134960000Y-94015000D03*
X134960000Y-96555000D03*
X134960000Y-99095000D03*
X134960000Y-101635000D03*
X134960000Y-104175000D03*
X134960000Y-106715000D03*
X134960000Y-109255000D03*
X134960000Y-111795000D03*
X134960000Y-114335000D03*
X134960000Y-116875000D03*
X134960000Y-119415000D03*
X134960000Y-121955000D03*
X134960000Y-124495000D03*
D13*
X155915000Y-91475000D03*
D14*
X155915000Y-94015000D03*
X155915000Y-96555000D03*
X155915000Y-99095000D03*
X155915000Y-101635000D03*
X155915000Y-104175000D03*
X155915000Y-106715000D03*
X155915000Y-109255000D03*
X155915000Y-111795000D03*
X155915000Y-114335000D03*
X155915000Y-116875000D03*
X155915000Y-119415000D03*
X155915000Y-121955000D03*
X155915000Y-124495000D03*
D16*
X149000000Y-101099999D03*
D17*
X150300000Y-101099999D03*
D18*
X152800000Y-85650000D03*
D19*
X152800000Y-84350000D03*
D20*
X148950000Y-97400000D03*
D17*
X150250000Y-97400000D03*
D13*
X137720000Y-91480000D03*
D14*
X137720000Y-94020000D03*
X137720000Y-96560000D03*
D18*
X150300000Y-85650000D03*
D19*
X150300000Y-84350000D03*
D13*
X139050000Y-127325000D03*
D14*
X139050000Y-129865000D03*
X141590000Y-127325000D03*
X141590000Y-129865000D03*
X144130000Y-127325000D03*
X144130000Y-129865000D03*
X146670000Y-127325000D03*
X146670000Y-129865000D03*
X149210000Y-127325000D03*
X149210000Y-129865000D03*
X151750000Y-127325000D03*
X151750000Y-129865000D03*
M02*
